<?xml version="1.0" encoding="utf-8"?>
<!-- Generator: Adobe Illustrator 21.0.0, SVG Export Plug-In . SVG Version: 6.00 Build 0)  -->
<svg version="1.1" id="Capa_1" xmlns="http://www.w3.org/2000/svg" xmlns:xlink="http://www.w3.org/1999/xlink" x="0px" y="0px"
	 viewBox="0 0 100 100" style="enable-background:new 0 0 100 100;" xml:space="preserve">
<style type="text/css">
	.st0{fill:#FFFFFF;}
</style>
<path class="st0" d="M70.6,92.9H31.2c-1.8,0-3.2-1.4-3.2-3.2V77.4h45.7v12.4c0,1.7-1.3,3.1-3,3.1C70.7,92.9,70.6,92.9,70.6,92.9z
	 M73.8,21.2v52.1H28V21.2L73.8,21.2z M31.2,6.1h39.4c1.8,0,3.2,1.4,3.2,3.2v7.9H28v-8C28.1,7.5,29.5,6.1,31.2,6.1z M70.6,2H31.2
	c-4,0-7.2,3.2-7.2,7.1c0,0,0,0,0,0.1v80.5c0,4,3.2,7.2,7.1,7.2c0,0,0,0,0.1,0h39.4c4,0,7.2-3.2,7.2-7.1c0,0,0,0,0-0.1V9.2
	C77.8,5.2,74.6,2,70.6,2C70.6,2,70.6,2,70.6,2z"/>
<path class="st0" d="M45,13.6h11.9c1.1,0,2-0.9,2-2s-0.9-2-2-2H45c-1.1,0-2,0.9-2,2c-0.1,1,0.7,1.9,1.8,2
	C44.8,13.6,44.9,13.6,45,13.6z"/>
<circle class="st0" cx="50.9" cy="85.1" r="4.1"/>
<path class="st0" d="M34.7,47.9l5.2,5.2c0.7,0.8,2,0.8,2.7,0.1c0,0,0,0,0.1-0.1c0.8-0.8,0.8-2.1,0-2.9c0,0,0,0,0,0l-3.6-3.7l3.8-3.8
	c0.8-0.8,0.8-2.1,0-2.9s-2.1-0.8-2.9,0L34.8,45C34,45.7,33.9,47,34.7,47.9C34.7,47.8,34.7,47.9,34.7,47.9z"/>
<path class="st0" d="M59,53.1c0.7,0.8,2,0.8,2.7,0.1c0,0,0,0,0.1-0.1l5.2-5.2c0.4-0.4,0.6-0.9,0.6-1.4c0-0.5-0.2-1-0.6-1.4l-5.1-5.3
	c-0.8-0.8-2.1-0.8-2.9,0s-0.8,2.1,0,2.9l3.8,3.8L59,50.3C58.2,51,58.2,52.3,59,53.1C59,53.1,59,53.1,59,53.1z"/>
<path class="st0" d="M48.2,57.6c0.2,0,0.3,0.1,0.5,0.1c1,0,1.8-0.7,2-1.6l4.4-18.3c0.3-1.1-0.4-2.2-1.5-2.5s-2.2,0.4-2.5,1.5
	l-4.4,18.3c-0.3,1.1,0.3,2.2,1.4,2.5C48.1,57.6,48.2,57.6,48.2,57.6z"/>
</svg>
