<?xml version="1.0" encoding="utf-8"?>
<!-- Generator: Adobe Illustrator 21.0.0, SVG Export Plug-In . SVG Version: 6.00 Build 0)  -->
<svg version="1.1" id="Capa_1" xmlns="http://www.w3.org/2000/svg" xmlns:xlink="http://www.w3.org/1999/xlink" x="0px" y="0px"
	 viewBox="0 0 100 100" style="enable-background:new 0 0 100 100;" xml:space="preserve">
<style type="text/css">
	.st0{fill:#FFFFFF;}
</style>
<path class="st0" d="M61.7,40.7c-10.4,0-10.4,15.7,0,15.7S72.1,40.7,61.7,40.7z M72.7,46.9H81c0.7-3.9,4.2-6.7,8.2-6.7
	c9.9,0,11.5,14.2,1.9,16.4c-0.7,8.3-3.9,16.2-9.1,22.7c6.3,8.4-5.7,18.3-12.8,10.6c-12.7,6.8-28,6.7-40.6-0.4
	c-1.6,1.6-3.7,2.4-5.9,2.4c-12.4,0-10-19.4,2-16.4l3.8-10.5c-3.9-2.4-5.2-7.6-2.8-11.6c0.2-0.4,0.5-0.7,0.8-1.1l-7-8.5
	c-1.6,1-3.4,1.4-5.2,1.4c-13.7,0-13.7-20.7,0-20.7c1.2,0,2.3,0.2,3.5,0.6C23.9,18.4,32,13.7,41,11.9c1-9.9,15.6-9.9,16.5,0
	c4.5,0.8,8.7,2.5,12.6,4.8c3.2-3.4,8.4-3.6,11.8-0.4c1.7,1.6,2.7,3.8,2.7,6c0,12.9-20.5,9.4-16.2-2.8c-3.5-2-7.3-3.5-11.2-4.3
	c-0.6,2-2,3.7-3.7,4.8l6.4,17.6C66,36.5,71.7,40.8,72.7,46.9L72.7,46.9L72.7,46.9z M72.7,50.2c-0.5,3.3-2.4,6.3-5.4,8l6.5,17.9
	c1.9-0.3,3.9,0,5.7,1c4.7-5.8,7.5-12.9,8.3-20.4c-3.4-0.6-6-3.2-6.8-6.6L72.7,50.2z M64.3,59.6C59,60.8,53.5,58,51.4,53l-10.2,4
	c0.2,1.2,0,2.4-0.3,3.6l28.8,17.6c0.3-0.3,0.6-0.5,1-0.7L64.3,59.6z M50.5,49.7c-0.4-4.6,2-9,6.2-11l-6.3-17.5
	c-0.7,0.1-1.5,0.1-2.1,0L37.4,50.9c1.2,0.7,2.1,1.7,2.8,2.9L50.5,49.7z M32.9,53c-6.6,0-6.6,10.1,0,10.1S39.5,53,32.9,53z
	 M34.2,49.8L45.1,20c-1.8-1.1-3.1-2.8-3.7-4.7C33.6,17,26.4,21.1,20.8,27c4.5,3.6,5.2,10.2,1.6,14.6c-0.1,0.1-0.2,0.2-0.3,0.3
	l7.1,8.6C30.8,49.8,32.5,49.5,34.2,49.8z M39.3,63.5c-1.9,2.1-4.8,3.3-7.5,2.9l-4,10.7c3,2.3,4,6.3,2.7,9.8
	c11.5,6.4,25.5,6.6,37,0.4c-0.7-2.1-0.6-4.5,0.3-6.5L39.3,63.5z M22.7,78.7c-6.6,0-6.6,10.1,0,10.1S29.3,78.7,22.7,78.7z M49.3,7.8
	c-6.6,0-6.6,10.1,0,10.1S55.9,7.8,49.3,7.8z M75.2,79.4c-6.6,0-6.7,10.1,0,10.1S81.9,79.4,75.2,79.4z M89.1,43.7
	c-6.6,0-6.6,10.1,0,10.1C95.8,53.6,95.8,43.7,89.1,43.7z M14.4,28.1c-9.2,0-9.3,14.1,0,14.1S23.7,28.1,14.4,28.1z M76.4,17.4
	c-6.6,0-6.6,10.1,0,10.1C83.1,27.4,83.1,17.4,76.4,17.4z"/>
</svg>
