<?xml version="1.0" encoding="utf-8"?>
<!-- Generator: Adobe Illustrator 21.0.0, SVG Export Plug-In . SVG Version: 6.00 Build 0)  -->
<svg version="1.1" id="Capa_1" xmlns="http://www.w3.org/2000/svg" xmlns:xlink="http://www.w3.org/1999/xlink" x="0px" y="0px"
	 viewBox="0 0 100 100" style="enable-background:new 0 0 100 100;" xml:space="preserve">
<style type="text/css">
	.st0{fill:#D37522;}
</style>
<g>
	<path class="st0" d="M8.5,11.9l5.1,3.4V8.6L8.5,11.9z M16.7,13.5v4.8c0,0.6-0.3,1.1-0.8,1.4s-1.1,0.2-1.6-0.1l-9.5-6.4
		C4.3,13,4,12.5,4,12c0-0.5,0.3-1,0.7-1.3l9.5-6.4c0.5-0.3,1.1-0.4,1.6-0.1c0.5,0.3,0.8,0.8,0.8,1.4v4.8h8c0.5,0,0.9,0.2,1.2,0.5
		l0,0l0,0l0,0c0.2,0.2,0.3,0.6,0.3,0.9v9.6c0,0.9-0.7,1.6-1.6,1.6c-0.9,0-1.6-0.7-1.6-1.6v-8C23.1,13.5,16.7,13.5,16.7,13.5z"/>
	<path class="st0" d="M48.8,32.1l3.4,5.1l3.4-5.1H48.8z M50.3,6.6C50.3,5.7,51,5,51.9,5h32.7c0.9,0,1.6,0.7,1.6,1.6v15.9
		c0,0.9-0.7,1.6-1.6,1.6S83,23.4,83,22.5V8.2H53.5v20.7h5c0.6,0,1.1,0.3,1.4,0.8c0.3,0.5,0.2,1.1-0.1,1.6l-6.4,9.5
		c-0.3,0.4-0.8,0.7-1.3,0.7c-0.5,0-1-0.3-1.3-0.7l-6.4-9.5c-0.3-0.5-0.4-1.1-0.1-1.6c0.3-0.5,0.8-0.8,1.4-0.8h4.5V6.6z"/>
	<path class="st0" d="M26.2,36.2c1.8,0.8,2.6,3,1.8,4.8c-0.8,1.8-3,2.6-4.8,1.8s-2.6-3-1.8-4.8C22.2,36.1,24.4,35.3,26.2,36.2z
		 M27.5,33.3c-3.4-1.5-7.4,0-9,3.4s0,7.4,3.4,9c3.4,1.5,7.4,0,9-3.4C32.4,38.8,30.9,34.8,27.5,33.3z"/>
	<path class="st0" d="M84.2,38.5c2.1,1.1,2.8,3.7,1.7,5.8s-3.7,2.8-5.8,1.7c-2.1-1.1-2.8-3.7-1.7-5.8C79.5,38.1,82.1,37.3,84.2,38.5
		z M85.7,35.7c-3.6-2-8.1-0.6-10.1,3c-2,3.6-0.6,8.1,3,10.1c3.6,2,8.1,0.6,10.1-3C90.6,42.2,89.3,37.6,85.7,35.7z"/>
	<path class="st0" d="M21.3,28.8c-0.4,0.1-0.8,0.3-1.1,0.4l0.1,1.1c0.1,0.6-0.2,1.1-0.7,1.5c-0.8,0.6-1.6,1.3-2.2,2.1
		c-0.4,0.5-0.9,0.7-1.5,0.6l-1.1-0.2c-0.2,0.4-0.4,0.7-0.5,1.1l0.8,0.7c0.5,0.4,0.7,1,0.5,1.5c-0.2,1-0.2,2-0.1,3
		c0.1,0.6-0.2,1.2-0.6,1.5l-0.9,0.7c0.1,0.4,0.3,0.8,0.4,1.1l1.1-0.1c0.6-0.1,1.1,0.2,1.5,0.7c0.6,0.8,1.3,1.6,2.1,2.2
		c0.5,0.4,0.7,0.9,0.6,1.5l-0.2,1.1c0.4,0.2,0.7,0.4,1.1,0.5l0.7-0.8c0.4-0.5,1-0.7,1.5-0.5c1,0.2,2,0.2,3,0.1
		c0.6-0.1,1.2,0.2,1.5,0.6l0.7,0.9c0.4-0.1,0.8-0.3,1.1-0.4l-0.1-1.1c-0.1-0.6,0.2-1.1,0.7-1.5c0.8-0.6,1.6-1.3,2.2-2.1
		c0.4-0.5,0.9-0.7,1.5-0.6l1.1,0.2c0.2-0.4,0.4-0.7,0.5-1.1l-0.8-0.7c-0.5-0.4-0.7-1-0.5-1.5c0.2-1,0.2-2,0.1-3
		c-0.1-0.6,0.2-1.2,0.6-1.5l0.9-0.7c-0.1-0.4-0.3-0.8-0.4-1.1l-1.1,0.1c-0.6,0.1-1.1-0.2-1.5-0.7c-0.6-0.8-1.3-1.6-2.1-2.2
		c-0.5-0.4-0.7-0.9-0.6-1.5l0.2-1.1c-0.4-0.2-0.7-0.4-1.1-0.5L28,29.9c-0.4,0.5-1,0.7-1.5,0.5c-1-0.2-2-0.2-3-0.1
		c-0.6,0.1-1.2-0.2-1.5-0.6L21.3,28.8z M17.1,29.7l-0.1-1.3c-0.1-0.6,0.3-1.2,0.8-1.5c1.2-0.7,2.5-1.2,3.9-1.5
		c0.6-0.1,1.3,0.1,1.6,0.6l0.8,1.1c0.7,0,1.4,0,2.1,0.1l0.8-1c0.4-0.5,1.1-0.7,1.7-0.5c1.3,0.4,2.6,1,3.8,1.7c0.5,0.3,0.8,1,0.7,1.6
		l-0.2,1.3c0.5,0.5,1,1,1.5,1.6l1.3-0.1c0.6-0.1,1.2,0.3,1.5,0.8c0.7,1.2,1.2,2.5,1.5,3.9c0.1,0.6-0.1,1.3-0.6,1.6L37,38.8
		c0,0.7,0,1.4-0.1,2.1l1,0.8c0.5,0.4,0.7,1.1,0.5,1.7c-0.4,1.3-1,2.6-1.7,3.8c-0.3,0.5-1,0.8-1.6,0.7l-1.3-0.2c-0.5,0.5-1,1-1.6,1.5
		l0.1,1.3c0.1,0.6-0.3,1.2-0.8,1.5c-1.2,0.7-2.5,1.2-3.9,1.5c-0.6,0.1-1.3-0.1-1.6-0.6l-0.8-1.1c-0.7,0-1.4,0-2.1-0.1l-0.8,1
		c-0.4,0.5-1.1,0.7-1.7,0.5c-1.3-0.4-2.6-1-3.8-1.7c-0.5-0.3-0.8-1-0.7-1.6l0.2-1.3c-0.5-0.5-1-1-1.5-1.6l-1.3,0.1
		c-0.6,0.1-1.2-0.3-1.5-0.8c-0.7-1.2-1.2-2.5-1.5-3.9c-0.1-0.6,0.1-1.3,0.6-1.6l1.1-0.8c0-0.7,0-1.4,0.1-2.1l-1-0.8
		c-0.5-0.4-0.7-1.1-0.5-1.7c0.4-1.3,1-2.6,1.7-3.8c0.3-0.5,1-0.8,1.6-0.7l1.3,0.2C16,30.7,16.5,30.2,17.1,29.7z"/>
	<path class="st0" d="M79.4,29.8c-0.5,0.1-1.1,0.3-1.6,0.5l0,1.4c0,0.6-0.3,1.1-0.8,1.4c-1,0.6-1.9,1.3-2.7,2.2
		c-0.4,0.4-1,0.6-1.6,0.5l-1.4-0.3c-0.3,0.5-0.6,1-0.8,1.5l1,1c0.4,0.4,0.6,1,0.4,1.6c-0.3,1.1-0.4,2.3-0.4,3.4
		c0,0.6-0.3,1.1-0.7,1.4L69.7,45c0.1,0.5,0.3,1.1,0.5,1.6l1.4,0c0.6,0,1.1,0.3,1.4,0.8c0.6,1,1.3,1.9,2.2,2.7c0.4,0.4,0.6,1,0.5,1.6
		l-0.3,1.3c0.5,0.3,1,0.6,1.5,0.8l1-1c0.4-0.4,1-0.6,1.6-0.4c1.1,0.3,2.3,0.4,3.4,0.4c0.6,0,1.1,0.3,1.4,0.7l0.7,1.2
		c0.5-0.1,1.1-0.3,1.6-0.5l0-1.4c0-0.6,0.3-1.1,0.8-1.4c1-0.6,1.9-1.3,2.7-2.2c0.4-0.4,1-0.6,1.6-0.5l1.4,0.3c0.3-0.5,0.6-1,0.8-1.5
		l-1-1c-0.4-0.4-0.6-1-0.4-1.6c0.3-1.1,0.4-2.3,0.4-3.4c0-0.6,0.3-1.1,0.7-1.5l1.2-0.7c-0.1-0.5-0.3-1.1-0.5-1.6l-1.4,0
		c-0.6,0-1.1-0.3-1.4-0.8c-0.6-1-1.3-1.9-2.2-2.7c-0.4-0.4-0.6-1-0.5-1.6l0.3-1.3c-0.5-0.3-1-0.6-1.5-0.8l-1,1
		c-0.4,0.4-1,0.6-1.6,0.4c-1.1-0.3-2.3-0.4-3.4-0.4c-0.6,0-1.1-0.3-1.4-0.7L79.4,29.8z M74.6,30.8l0-1.6c0-0.6,0.4-1.2,0.9-1.5
		c1.4-0.6,2.9-1.1,4.4-1.3c0.6-0.1,1.2,0.2,1.6,0.7l0.8,1.3c0.9,0,1.7,0.1,2.6,0.3l1.1-1.1c0.4-0.5,1.1-0.6,1.7-0.4
		c1.5,0.5,2.8,1.3,4,2.2c0.5,0.4,0.7,1,0.6,1.6l-0.4,1.5c0.6,0.6,1.1,1.3,1.6,2l1.6,0c0.6,0,1.2,0.4,1.5,0.9
		c0.6,1.4,1.1,2.9,1.3,4.4c0.1,0.6-0.2,1.2-0.7,1.6l-1.3,0.8c0,0.9-0.1,1.7-0.3,2.6l1.1,1.1c0.5,0.4,0.6,1.1,0.4,1.7
		c-0.5,1.5-1.3,2.8-2.2,4c-0.4,0.5-1,0.7-1.6,0.6L91.7,52c-0.6,0.6-1.3,1.1-2,1.6l0,1.6c0,0.6-0.4,1.2-0.9,1.5
		c-1.4,0.6-2.9,1.1-4.4,1.3c-0.6,0.1-1.2-0.2-1.6-0.7L82,55.9c-0.9,0-1.7-0.1-2.6-0.3l-1.1,1.1c-0.4,0.5-1.1,0.6-1.7,0.4
		c-1.5-0.5-2.8-1.3-4-2.2c-0.5-0.4-0.7-1-0.6-1.6l0.4-1.5c-0.6-0.6-1.1-1.3-1.6-2l-1.6,0c-0.6,0-1.2-0.4-1.5-0.9
		c-0.6-1.4-1.1-2.9-1.3-4.4c-0.1-0.6,0.2-1.2,0.7-1.6l1.3-0.8c0-0.9,0.1-1.7,0.3-2.6l-1.1-1.1c-0.5-0.4-0.6-1.1-0.4-1.7
		c0.5-1.5,1.3-2.8,2.2-4c0.4-0.5,1-0.7,1.6-0.6l1.5,0.4C73.2,31.8,73.9,31.3,74.6,30.8L74.6,30.8z"/>
	<path class="st0" d="M51,57.9c2.3,0,4.2,1.9,4.2,4.2s-1.9,4.2-4.2,4.2s-4.2-1.9-4.2-4.2C46.8,59.8,48.7,57.9,51,57.9z M51,54.7
		c-4.1,0-7.4,3.3-7.4,7.4c0,4.1,3.3,7.4,7.4,7.4c4.1,0,7.4-3.3,7.4-7.4S55.1,54.7,51,54.7z"/>
	<path class="st0" d="M82.1,63.7v8.5c0,0.9,0.7,1.6,1.6,1.6c0.9,0,1.6-0.7,1.6-1.6v-8.5c0-0.9-0.7-1.6-1.6-1.6
		C82.8,62.2,82.1,62.9,82.1,63.7z"/>
	<path class="st0" d="M51.9,49.5c-0.5,0-1.1,0-1.7,0l-0.4,1.3c-0.2,0.6-0.6,1-1.2,1.1c-1.1,0.3-2.2,0.7-3.2,1.3
		c-0.5,0.3-1.1,0.3-1.6,0l-1.2-0.7c-0.4,0.4-0.8,0.8-1.2,1.2l0.7,1.2c0.3,0.5,0.3,1.1,0,1.6c-0.6,1-1.1,2.1-1.3,3.2
		c-0.1,0.6-0.6,1-1.1,1.2l-1.3,0.4c0,0.5,0,1.1,0,1.7l1.3,0.4c0.6,0.2,1,0.6,1.1,1.2c0.3,1.1,0.7,2.2,1.3,3.2c0.3,0.5,0.3,1.1,0,1.6
		l-0.7,1.2c0.4,0.4,0.8,0.8,1.2,1.2l1.2-0.7c0.5-0.3,1.1-0.3,1.6,0c1,0.6,2.1,1.1,3.2,1.3c0.6,0.1,1,0.6,1.2,1.1l0.4,1.3
		c0.5,0,1.1,0,1.7,0l0.4-1.3c0.2-0.6,0.6-1,1.2-1.1c1.1-0.3,2.2-0.7,3.2-1.3c0.5-0.3,1.1-0.3,1.6,0l1.2,0.7c0.4-0.4,0.8-0.8,1.2-1.2
		l-0.7-1.2c-0.3-0.5-0.3-1.1,0-1.6c0.6-1,1.1-2.1,1.3-3.2c0.1-0.6,0.6-1,1.1-1.2l1.3-0.4c0-0.5,0-1.1,0-1.7L62.4,61
		c-0.6-0.2-1-0.6-1.1-1.2c-0.3-1.1-0.7-2.2-1.3-3.2c-0.3-0.5-0.3-1.1,0-1.6l0.7-1.2c-0.4-0.4-0.8-0.8-1.2-1.2l-1.2,0.7
		c-0.5,0.3-1.1,0.3-1.6,0c-1-0.6-2.1-1.1-3.2-1.3c-0.6-0.1-1-0.6-1.2-1.1L51.9,49.5z M47,49.1l0.4-1.5c0.2-0.6,0.7-1.1,1.3-1.2
		c1.5-0.2,3.1-0.2,4.6,0c0.6,0.1,1.1,0.5,1.3,1.2l0.4,1.5c0.8,0.2,1.6,0.6,2.4,1l1.4-0.8c0.5-0.3,1.2-0.3,1.7,0.1
		c1.2,0.9,2.3,2,3.3,3.3c0.4,0.5,0.4,1.2,0.1,1.7l-0.8,1.4c0.4,0.8,0.7,1.6,1,2.4l1.5,0.4c0.6,0.2,1.1,0.7,1.2,1.3
		c0.2,1.5,0.2,3.1,0,4.6c-0.1,0.6-0.5,1.1-1.2,1.3l-1.5,0.4c-0.2,0.8-0.6,1.6-1,2.4l0.8,1.4c0.3,0.5,0.3,1.2-0.1,1.7
		c-0.9,1.2-2,2.3-3.3,3.3c-0.5,0.4-1.2,0.4-1.7,0.1l-1.4-0.8c-0.8,0.4-1.6,0.7-2.4,1l-0.4,1.5c-0.2,0.6-0.7,1.1-1.3,1.2
		c-1.5,0.2-3.1,0.2-4.6,0c-0.6-0.1-1.1-0.5-1.3-1.2L47,75.2c-0.8-0.2-1.6-0.6-2.4-1L43.3,75c-0.5,0.3-1.2,0.3-1.7-0.1
		c-1.2-0.9-2.3-2-3.3-3.3c-0.4-0.5-0.4-1.2-0.1-1.7l0.8-1.4c-0.4-0.8-0.7-1.6-1-2.4l-1.5-0.4c-0.6-0.2-1.1-0.7-1.2-1.3
		c-0.2-1.5-0.2-3.1,0-4.6c0.1-0.6,0.5-1.1,1.2-1.3l1.5-0.4c0.2-0.8,0.6-1.6,1-2.4l-0.8-1.4c-0.3-0.5-0.3-1.2,0.1-1.7
		c0.9-1.2,2-2.3,3.3-3.3c0.5-0.4,1.2-0.4,1.7-0.1l1.4,0.8C45.4,49.7,46.2,49.3,47,49.1z"/>
	<path class="st0" d="M83.7,80.1c3.5,0,6.4,2.9,6.4,6.4s-2.9,6.4-6.4,6.4s-6.4-2.9-6.4-6.4S80.2,80.1,83.7,80.1z M83.7,76.9
		c-5.3,0-9.5,4.3-9.5,9.5c0,5.3,4.3,9.5,9.5,9.5c5.3,0,9.5-4.3,9.5-9.5C93.3,81.2,89,76.9,83.7,76.9z"/>
	<path class="st0" d="M20.6,67.4h6.8L24,62.3L20.6,67.4z M22.4,70.5h-4.8c-0.6,0-1.1-0.3-1.4-0.8c-0.3-0.5-0.2-1.1,0.1-1.6l6.4-9.5
		c0.3-0.4,0.8-0.7,1.3-0.7c0.5,0,1,0.3,1.3,0.7l6.4,9.5c0.3,0.5,0.4,1.1,0.1,1.6c-0.3,0.5-0.8,0.8-1.4,0.8h-4.8v22.3h24.8v-7.7
		c0-0.9,0.7-1.6,1.6-1.6c0.9,0,1.6,0.7,1.6,1.6v8.5c0,0.1,0,0.3-0.1,0.4c0,0.1,0.1,0.3,0.1,0.4c0,0.9-0.7,1.6-1.6,1.6H24
		c-0.9,0-1.6-0.7-1.6-1.6c0-0.3,0.1-0.6,0.2-0.8h-0.2L22.4,70.5z"/>
</g>
</svg>
