<?xml version="1.0" encoding="utf-8"?>
<!-- Generator: Adobe Illustrator 21.0.0, SVG Export Plug-In . SVG Version: 6.00 Build 0)  -->
<svg version="1.1" id="Capa_1" xmlns="http://www.w3.org/2000/svg" xmlns:xlink="http://www.w3.org/1999/xlink" x="0px" y="0px"
	 viewBox="0 0 100 100" style="enable-background:new 0 0 100 100;" xml:space="preserve">
<style type="text/css">
	.st0{fill:#D37522;}
</style>
<path class="st0" d="M91.1,38.3c0,0.8-0.7,1.5-1.5,1.5h-1.5c-0.3,0-0.7,0.1-0.9,0.3l-4.9,4v-2.8c0-0.4-0.2-0.8-0.4-1
	c-0.3-0.3-0.6-0.4-1-0.4H66.1c-0.8,0-1.5-0.7-1.5-1.5V17.7c0-0.8,0.7-1.4,1.5-1.4h23.5c0.8,0,1.5,0.7,1.5,1.5V38.3z M70.5,69.1h-4.4
	c-2.4,0-4.4,2-4.4,4.4v3H54l-3.5-11.7c2.6-0.1,5-1.2,6.9-3.1v1l-2.5,2.5c-0.5,0.6-0.5,1.5,0.1,2.1c0.6,0.5,1.4,0.5,1.9,0l2.9-2.9
	c0.3-0.3,0.4-0.6,0.4-1v-7.4c2.4,0,4.4-2,4.4-4.4s-2-4.4-4.4-4.4c0-4.6-3.1-8.7-7.6-9.9l-4.2-12.6c-0.2-0.6-0.8-1-1.4-1h-7.4
	c-0.7-5.3-4.9-9.5-10.2-10.2v-3c0-0.8,0.7-1.5,1.5-1.5l0,0h7.6c-0.8,2.3,0.4,4.8,2.7,5.6c0.5,0.2,1,0.3,1.5,0.3h14.7
	c2.4,0,4.4-2,4.4-4.4c0-0.5-0.1-1-0.3-1.5h7.6c0.8,0,1.5,0.7,1.5,1.5v2.9h-4.4c-2.4,0-4.4,2-4.4,4.4v20.6c0,2.4,2,4.4,4.4,4.4h4.4
	L70.5,69.1z M80.8,72c0.4,0,0.8-0.2,1-0.4c0.3-0.3,0.4-0.6,0.4-1v-2.8l4.9,4c0.3,0.2,0.6,0.3,0.9,0.3h1.5c0.8,0,1.5,0.6,1.5,1.4v8.8
	c0,0.8-0.6,1.5-1.4,1.5c0,0,0,0,0,0H66.1c-0.8,0-1.5-0.7-1.5-1.5v-8.8c0-0.8,0.7-1.5,1.5-1.5L80.8,72z M57.3,48.5
	c-2.5-0.3-4.7-1.6-6.1-3.7c-0.4-0.7-1.4-0.9-2-0.4c-0.2,0.1-0.3,0.2-0.4,0.4c-1.4,2.1-3.6,3.4-6.1,3.7v-1.4c0.2-4,3.6-7.2,7.6-7
	c3.8,0.2,6.9,3.2,7,7V48.5z M60.3,50c0.8,0,1.5,0.7,1.5,1.5s-0.7,1.5-1.5,1.5V50z M39.7,52.9c-0.8,0-1.5-0.7-1.5-1.5
	c0-0.8,0.7-1.5,1.5-1.5V52.9z M42.6,54.4v-3c2.8-0.2,5.4-1.5,7.3-3.5c1.9,2,4.5,3.3,7.3,3.5v3c-0.2,4-3.6,7.2-7.6,7
	C45.9,61.3,42.8,58.2,42.6,54.4L42.6,54.4z M70.5,89.6c0,0.8-0.7,1.5-1.5,1.5H30.9c-0.8,0-1.5-0.7-1.5-1.5v-1.5h4.4
	c2.4,0,4.4-2,4.4-4.4c0,0,0,0,0,0V63.1c0-2.4-2-4.4-4.4-4.4h-4.4v-22c5.3-0.7,9.5-4.9,10.2-10.2H46l3.4,10.3
	c-5.5,0.3-9.7,4.8-9.7,10.3c-2.4,0-4.4,2-4.4,4.4c0,2.4,2,4.4,4.4,4.4l0,0h0.1c0.6,4,3.6,7.3,7.5,8.4l4.2,14c0.2,0.6,0.8,1,1.4,1
	h8.8v2.9c0,2.4,2,4.4,4.4,4.4h4.4L70.5,89.6z M8.9,83.7V63.1c0-0.8,0.7-1.5,1.5-1.5h1.5c0.3,0,0.7-0.1,0.9-0.3l5-3.9v2.8
	c0,0.4,0.2,0.8,0.4,1c0.3,0.3,0.6,0.4,1,0.4h14.7c0.8,0,1.4,0.6,1.5,1.4v20.6c0,0.8-0.7,1.5-1.5,1.5H10.4
	C9.6,85.2,8.9,84.5,8.9,83.7z M19.3,26.6h8.3l7.2,4.1c-3.1,3.8-8.6,4.3-12.4,1.2C20.8,30.5,19.7,28.7,19.3,26.6z M26.6,16.4v7.2
	h-7.2C20,19.9,22.9,17,26.6,16.4z M36.3,28.1l-6.8-3.9v-7.8c4.8,0.8,8,5.3,7.2,10.1C36.6,27,36.5,27.6,36.3,28.1z M57.3,8.9
	c0.8,0,1.5,0.7,1.5,1.5s-0.7,1.5-1.5,1.5l0,0H42.7c-0.8,0-1.5-0.7-1.5-1.5c0-0.8,0.7-1.5,1.5-1.5c0,0,0,0,0,0L57.3,8.9z M89.6,13.3
	H73.4v-2.9C73.4,8,71.5,6,69.1,6H30.9c-2.4,0-4.4,2-4.4,4.4v3c-6.4,0.8-11,6.6-10.2,13.1c0.7,5.4,4.9,9.6,10.2,10.2v22.1h-5.9v-4.4
	c0-0.8-0.6-1.5-1.5-1.5c-0.3,0-0.7,0.1-0.9,0.3l-6.9,5.5h-1c-2.4,0-4.4,2-4.4,4.4v20.5c0,2.4,2,4.4,4.4,4.4h16.2v1.5
	c0,2.4,1.9,4.4,4.4,4.4h38.1c2.4,0,4.4-2,4.4-4.4v-2.9h16.2c2.4,0,4.4-2,4.4-4.4v-8.8c0-2.4-2-4.4-4.4-4.4h-1l-6.9-5.5
	c-0.6-0.5-1.5-0.4-2.1,0.2c-0.2,0.3-0.3,0.6-0.3,0.9V69h-5.9V42.7h5.9v4.4c0,0.8,0.6,1.5,1.5,1.5c0.3,0,0.7-0.1,0.9-0.3l6.9-5.5h1
	c2.4,0,4.4-2,4.4-4.4c0,0,0,0,0,0V17.7C94,15.3,92.1,13.3,89.6,13.3C89.6,13.3,89.6,13.3,89.6,13.3L89.6,13.3z"/>
<path class="st0" d="M29.5,77.9h-2.9v-2.9h2.9L29.5,77.9z M20.7,69.1v-1.5h2.9v10.3h-2.9L20.7,69.1z M14.8,70.5h2.9v7.3h-2.9V70.5z
	 M32.4,79.3v-5.9c0-0.4-0.2-0.8-0.4-1c-0.3-0.3-0.6-0.4-1-0.4h-4.4v-5.8c0-0.4-0.2-0.8-0.4-1c-0.3-0.3-0.6-0.4-1-0.4h-5.9
	c-0.8,0-1.5,0.7-1.5,1.5v1.5h-4.4c-0.8,0-1.5,0.7-1.5,1.5v10.3c0,0.4,0.2,0.8,0.4,1c0.3,0.3,0.6,0.4,1,0.4h17.6c0.4,0,0.8-0.2,1-0.4
	C32.3,80.1,32.4,79.7,32.4,79.3L32.4,79.3z"/>
<path class="st0" d="M85.2,30.7l-5.9-1v-6.3l5.9-1V30.7z M70.5,26.6c0-1.6,1.3-2.9,2.9-3c0,0,0,0,0,0h3v5.9h-3
	C71.8,29.4,70.6,28.2,70.5,26.6z M87.6,19.6c-0.3-0.3-0.7-0.4-1.1-0.3l-8.7,1.4h-4.4c-3.2,0-5.9,2.6-5.9,5.9s2.6,5.9,5.9,5.9h0.4
	l1.1,3.4c0.2,0.8,1.1,1.2,1.8,0.9c0,0,0,0,0,0c0.4-0.1,0.7-0.4,0.9-0.7c0.2-0.4,0.2-0.8,0.1-1.1l-0.8-2.5h0.8l8.7,1.5h0.2
	c0.4,0,0.8-0.2,1.1-0.5c0.3-0.3,0.4-0.6,0.4-1V20.7C88.1,20.2,88,19.8,87.6,19.6L87.6,19.6z"/>
<path class="st0" d="M73.4,77.9c0,0.8-0.7,1.5-1.5,1.5c-0.8,0-1.5-0.7-1.5-1.5c0-0.8,0.7-1.5,1.5-1.5C72.8,76.4,73.4,77.1,73.4,77.9
	"/>
<path class="st0" d="M79.3,77.9c0,0.8-0.7,1.5-1.5,1.5c-0.8,0-1.5-0.7-1.5-1.5c0-0.8,0.7-1.5,1.5-1.5C78.7,76.4,79.3,77.1,79.3,77.9
	"/>
<path class="st0" d="M85.2,77.9c0,0.8-0.7,1.5-1.5,1.5c-0.8,0-1.5-0.7-1.5-1.5c0-0.8,0.7-1.5,1.5-1.5C84.6,76.4,85.2,77.1,85.2,77.9
	"/>
<rect x="48.5" y="82.3" class="st0" width="2.9" height="2.9"/>
<rect x="42.7" y="82.3" class="st0" width="2.9" height="2.9"/>
<rect x="54.4" y="82.3" class="st0" width="2.9" height="2.9"/>
</svg>
