<?xml version="1.0" encoding="utf-8"?>
<!-- Generator: Adobe Illustrator 21.0.0, SVG Export Plug-In . SVG Version: 6.00 Build 0)  -->
<svg version="1.1" id="Capa_1" xmlns="http://www.w3.org/2000/svg" xmlns:xlink="http://www.w3.org/1999/xlink" x="0px" y="0px"
	 viewBox="0 0 100 100" style="enable-background:new 0 0 100 100;" xml:space="preserve">
<style type="text/css">
	.st0{fill:#FFFFFF;}
</style>
<path class="st0" d="M96,28.9L96,28.9c0-1.1-0.5-2.2-1.3-3c-0.9-0.9-2.1-1.4-3.3-1.3c-4.2,0.2-7.5,3.7-7.4,7.9l0.2,6.5l-1,4
	c-1.4,0.1-2.7,0.7-3.7,1.7l-7.2,7.2l-2.4,0.4c-1.7,0.3-3.4,1.1-4.6,2.4l-5,5c-1.6,1.6-2.5,3.7-2.5,5.9l-0.2,8
	c-2.4,1-4.1,3.3-4.1,5.9l-0.1,10.9c0,3.6,2.8,6.5,6.4,6.5L77.9,97c3.5,0,6.4-2.8,6.4-6.4l0.1-10.9c0-2.6-1.5-5-3.8-6
	c0.3-1.7,1.1-3.2,2.3-4.4l8.5-8.5c2.3-2.3,3.7-5.2,4-8.4l0.9-8.5c0.1-0.3,0.1-0.7,0.1-1v-0.3L96,28.9z M80.5,79.7l-0.1,10.9
	c0,0.6-0.3,1.3-0.7,1.7C79.2,92.8,78.6,93,78,93l-18.1-0.2c-0.6,0-1.3-0.3-1.7-0.7c-0.5-0.5-0.7-1.1-0.7-1.7l0.1-10.9
	c0-1.4,1.1-2.4,2.5-2.4l0,0l18.1,0.2c0.6,0,1.3,0.3,1.7,0.7C80.3,78.4,80.5,79,80.5,79.7z M76.7,73.2L61.6,73l0.2-7.5
	c0-1.2,0.5-2.3,1.3-3.1l5-5c0.7-0.7,1.5-1.1,2.5-1.3l3-0.5c0.1,0,0.3-0.1,0.4-0.1c0.2-0.1,0.3-0.2,0.5-0.3l7.8-7.8
	c0.3-0.3,0.7-0.5,1.2-0.5l0,0c0.9,0,1.7,0.8,1.7,1.7c0,0.5-0.2,0.9-0.5,1.2l-8.8,8.8c-0.8,0.8-0.8,2,0,2.8s2,0.8,2.8,0l0,0l8.8-8.8
	c2.2-2.2,2.2-5.8,0-8.1c-0.2-0.2-0.4-0.3-0.6-0.5l1.1-4.6c0,0,0-0.1,0-0.2v-0.1V39v0l-0.2-6.8c-0.1-2,1.5-3.7,3.5-3.8
	c0.1,0,0.3,0,0.4,0.1s0.2,0.2,0.2,0.4l0.4,13.6l-1,9.4c-0.2,2.3-1.2,4.4-2.9,6l-8.5,8.5C78.3,68.3,77.1,70.7,76.7,73.2z"/>
<path class="st0" d="M74.3,81.1c0,0.9,0.3,1.7,1,2.3c0.6,0.5,1.3,0.8,2.1,0.8c1.7,0,3-1.3,3.1-2.9v-0.1C80.4,77,74.3,77,74.3,81.1z"
	/>
<path class="st0" d="M46.8,73.5l-0.2-8c0-2.2-0.9-4.3-2.5-5.9l-5-5c-1.3-1.3-2.9-2.1-4.6-2.4l-2.4-0.4L25,44.6c-1-1-2.3-1.6-3.7-1.7
	l-1-4l0.2-6.5c0.1-4.2-3.2-7.7-7.4-7.9c-1.2,0-2.4,0.5-3.3,1.3c-0.8,0.8-1.3,1.9-1.3,3L8,42.7v0.2c0,0.3,0,0.7,0.1,1L9,52.5
	c0.3,3.2,1.7,6.1,4,8.4l8.5,8.5c1.2,1.2,2,2.8,2.3,4.4c-2.4,1-3.9,3.4-3.8,6l0.1,10.9c0.1,3.6,3,6.4,6.5,6.3l18.1-0.2
	c3.5-0.1,6.4-3,6.3-6.5l-0.1-10.9C50.9,76.8,49.3,74.4,46.8,73.5z M16.3,39.3c0,0.1,0,0.2,0,0.3l1.1,4.5c-0.2,0.2-0.4,0.3-0.6,0.5
	c-2.2,2.2-2.2,5.8,0,8.1l8.8,8.8c0.8,0.8,2,0.8,2.8,0s0.8-2,0-2.8l0,0l-8.8-8.8c-0.3-0.3-0.5-0.8-0.5-1.2c0-0.5,0.2-0.9,0.5-1.2
	c0.3-0.3,0.7-0.5,1.2-0.5l0,0c0.5,0,0.9,0.2,1.2,0.5l7.7,7.6l0.1,0.2l0,0c0.1,0.1,0.3,0.2,0.4,0.3l0.1,0.1l0,0
	c0.1,0,0.2,0.1,0.3,0.1l3,0.5c0.9,0.2,1.8,0.6,2.5,1.3l5,5c0.8,0.8,1.3,2,1.3,3.1l0.3,7.5l-15.1,0.2c-0.4-2.5-1.6-4.9-3.4-6.7
	L15.9,58c-1.6-1.6-2.6-3.7-2.9-6l-0.9-8.3c0,0,0-0.1,0-0.2L12,42.6L12.4,29c0-0.1,0.1-0.3,0.1-0.4c0.1-0.1,0.3-0.2,0.4-0.1
	c2,0.1,3.6,1.7,3.5,3.8l-0.2,6.8C16.3,39.2,16.3,39.2,16.3,39.3z M47,90.3c0,0.6-0.2,1.3-0.7,1.7l0,0c-0.4,0.5-1.1,0.7-1.7,0.7
	l-18,0.2c-1.3,0-2.5-1.1-2.5-2.4L24,79.6c0-0.6,0.2-1.3,0.7-1.7c0.4-0.5,1.1-0.7,1.7-0.7L44.5,77c1.3,0,2.4,1.1,2.4,2.4L47,90.3z"/>
<path class="st0" d="M24,81.1c0,0.9,0.3,1.7,1,2.3c0.6,0.5,1.3,0.8,2.1,0.8c1.7,0,3-1.3,3.1-2.9v-0.1C30.1,77,24,77,24,81.1z"/>
<path class="st0" d="M32,35.5h2.5c0.3,1,0.7,2,1.2,2.9L34,40.1c-1.4,1.4-1.4,3.7,0,5.2l0,0l2.8,2.8c1.5,1.4,3.7,1.4,5.2,0l1.7-1.7
	c0.9,0.5,1.9,0.9,2.9,1.2V50c0,2,1.6,3.7,3.7,3.7h4c2-0.1,3.6-1.7,3.6-3.7v-2.4c1-0.3,2-0.7,2.9-1.2l1.7,1.7c1.5,1.4,3.7,1.4,5.2,0
	l2.8-2.8c1.4-1.4,1.4-3.7,0-5.2l0,0l-1.7-1.7c0.5-0.9,0.9-1.9,1.2-2.9h2.4c2,0,3.6-1.7,3.6-3.7v-4c0-2-1.6-3.7-3.7-3.7l0,0h-2.4
	c-0.3-1-0.7-2-1.2-2.9l1.7-1.7c1.4-1.4,1.4-3.7,0-5.2l-2.8-2.8c-1.5-1.4-3.7-1.4-5.2,0l-1.7,1.7c-0.9-0.5-1.9-0.9-2.9-1.2V9.6
	c0-2-1.6-3.7-3.7-3.6h-4c-2,0-3.7,1.6-3.7,3.7v2.4c-1,0.3-2,0.7-2.9,1.2l-1.7-1.7c-1.4-1.4-3.7-1.4-5.2,0l-2.8,2.8
	c-1.4,1.4-1.4,3.7,0,5.2l0,0l1.7,1.7c-0.5,0.9-0.9,1.9-1.2,2.9H32c-2,0-3.7,1.6-3.7,3.7v4c0,1,0.4,1.9,1.1,2.6
	C30.1,35.1,31,35.5,32,35.5z M49.9,15.1L50,15l0.1-0.2l0.2-0.3l0.1-0.1c0-0.1,0.1-0.2,0.1-0.2V14c0-0.1,0-0.2,0-0.2
	c0-0.1,0-0.1,0-0.2V10h3.3v3.8c0,0.1,0,0.2,0,0.3s0,0.2,0.1,0.2c0,0.1,0,0.1,0,0.2c0,0.1,0.1,0.1,0.1,0.2l0.1,0.1l0.2,0.2l0.1,0.1
	l0.2,0.1l0.1,0.1c0,0,0.1,0.1,0.2,0.1l0.2,0.1l0.2,0.1h0.1c1.7,0.4,3.3,1,4.8,1.9c0.1,0,0.2,0.1,0.2,0.1l0.2,0.1
	c0.4,0.2,0.9,0.2,1.3,0l0.2-0.1c0.2-0.1,0.4-0.2,0.5-0.3l2.7-2.6l2.3,2.4L65,19.4l-0.2,0.1l0,0l0,0c-0.2,0.2-0.3,0.4-0.4,0.6
	c-0.1,0.2-0.1,0.5-0.1,0.8c0,0.2,0,0.5,0.1,0.7v0.1l0.1,0.3c0.9,1.4,1.5,2.9,1.9,4.6v0.1c0,0.2,0.1,0.3,0.2,0.5v0.1
	c0.1,0.2,0.2,0.3,0.4,0.4l0.1,0.1c0.2,0.1,0.4,0.2,0.6,0.3c0.1,0,0.3,0.1,0.4,0.1H72v3.3h-3.7h-0.2c-0.1,0-0.2,0-0.3,0.1h-0.2
	l-0.2,0.1h-0.1c-0.1,0-0.1,0.1-0.2,0.2L67,32l-0.1,0.1l0.3,0.4l0,0l-0.4-0.3l-0.1,0.1c0,0.1-0.1,0.1-0.1,0.2l-0.1,0.1
	c0,0.1-0.1,0.2-0.1,0.3V33c-0.4,1.6-1,3.2-1.9,4.6c-0.1,0.1-0.1,0.2-0.1,0.3V38c-0.1,0.2-0.1,0.4-0.1,0.7v0.1c0,0.3,0.1,0.5,0.2,0.8
	c0.1,0.2,0.2,0.4,0.4,0.6l0.1,0.2l0,0l2.4,2.4L65.1,45l-2.7-2.7l0,0c-0.2-0.1-0.3-0.2-0.5-0.3s-0.5-0.1-0.8-0.1s-0.5,0.1-0.7,0.2
	c-0.1,0-0.2,0.1-0.3,0.2c-1.4,0.9-3,1.5-4.6,1.9h-0.1l-0.2,0.1L55,44.4c-0.1,0-0.1,0.1-0.2,0.1l-0.1,0.1l-0.2,0.1l-0.1,0.2L54.3,45
	l-0.1,0.2l-0.2,0c0,0.1,0,0.1-0.1,0.2c0,0.1,0,0.1,0,0.2c0,0.1,0,0.2,0,0.2v3.8h-3.4V46v-0.1c0-0.1,0-0.2,0-0.2c0-0.1,0-0.2-0.1-0.2
	v-0.1l-0.1-0.2c0,0,0-0.1-0.1-0.2l-0.1-0.2L50,44.6l-0.1-0.1l-0.2-0.1l-0.2-0.1l-0.1-0.1l-0.3-0.1H49c-1.6-0.4-3.2-1-4.6-1.9
	L44.1,42c-0.2-0.1-0.4-0.1-0.7-0.1h-0.1c-0.5,0-0.9,0.2-1.3,0.5L39.3,45L37,42.7l2.4-2.4l0.2-0.2l0,0l0,0c0.2-0.2,0.3-0.4,0.4-0.6
	c0.1-0.2,0.1-0.5,0.1-0.8c0-0.2,0-0.5-0.1-0.7v-0.1l-0.1-0.3c-0.9-1.4-1.5-3-1.9-4.6v-0.1c0-0.1,0-0.1-0.1-0.2
	c0-0.1-0.1-0.1-0.1-0.2l-0.1-0.1l-0.1-0.2c0-0.1-0.1-0.1-0.1-0.1l-0.2-0.2l-0.1-0.1L37,31.7l-0.2-0.1l-0.2-0.1h-0.2
	c-0.1,0-0.2,0-0.2,0h-3.9v-3.3h3.9c0.1,0,0.2,0,0.4-0.1h0.1c0.4-0.2,0.8-0.5,1-0.9c0.1-0.2,0.2-0.3,0.2-0.5v-0.1
	c0.4-1.7,1-3.2,2-4.7c0.1-0.1,0.1-0.2,0.1-0.3v-0.1c0.1-0.2,0.1-0.4,0.1-0.6v-0.1c0-0.3-0.1-0.5-0.2-0.8c-0.1-0.2-0.2-0.4-0.4-0.6
	l-0.1-0.2h-0.1L37,17l2.3-2.3l2.6,2.6l0.1,0.1c0.2,0.1,0.3,0.3,0.5,0.3l0.1,0.1c0.4,0.2,0.9,0.2,1.3,0l0.2-0.1
	c0.1,0,0.1-0.1,0.2-0.1c1.4-0.9,3-1.6,4.6-1.9H49c0.1,0,0.2,0,0.3-0.1l0.2-0.1l0.1-0.1C49.8,15.3,49.8,15.2,49.9,15.1z"/>
<path class="st0" d="M43.4,29.8c0,4.9,4,8.8,8.8,8.8s8.8-4,8.8-8.8c0-4.9-4-8.8-8.8-8.8C47.3,21,43.4,25,43.4,29.8L43.4,29.8z
	 M47.4,29.8c0-2.7,2.2-4.8,4.8-4.8c2.7,0,4.8,2.2,4.8,4.8s-2.2,4.8-4.8,4.8C49.6,34.6,47.4,32.5,47.4,29.8z"/>
</svg>
