<svg xmlns="http://www.w3.org/2000/svg" viewBox="0 0 19.95 30.84"><title>FRK-premio</title><g id="Capa_2" data-name="Capa 2"><g id="Capa_1-2" data-name="Capa 1"><path d="M7.31,21.38l-.61-.65a.23.23,0,0,0-.17-.09l-.91.17a3.32,3.32,0,0,1-.65,0,3.12,3.12,0,0,1-1.43-.3.5.5,0,0,0-.7.3L.23,28a.62.62,0,0,0,.83.78l2.6-1.22a.65.65,0,0,1,.83.3l1.22,2.6a.61.61,0,0,0,1.13,0l2.69-7.34a.56.56,0,0,0-.39-.69,3.31,3.31,0,0,1-1.82-1" style="fill:#fff"/><path d="M17.07,20.9a.53.53,0,0,0-.7-.3,3.86,3.86,0,0,1-1.43.3,3.22,3.22,0,0,1-.65,0l-.87-.17c-.09,0-.13,0-.17,0l-.61.65a3.72,3.72,0,0,1-1.78,1,.56.56,0,0,0-.39.7l2.69,7.33a.61.61,0,0,0,1.13,0l1.22-2.6a.64.64,0,0,1,.82-.3l2.6,1.21a.62.62,0,0,0,.82-.78Z" style="fill:#fff"/><path d="M10,17.51a7.14,7.14,0,1,1,7.16-7.12A7.17,7.17,0,0,1,10,17.51m9.33-6.21a1.93,1.93,0,0,1,0-1.82l.43-.78A2,2,0,0,0,18.85,6l-.78-.39A1.91,1.91,0,0,1,17,4.14l-.13-.87A1.92,1.92,0,0,0,14.6,1.63l-.87.17A1.84,1.84,0,0,1,12,1.24L11.39.59a2,2,0,0,0-2.82,0L8,1.24a1.88,1.88,0,0,1-1.73.56l-.87-.17A1.94,1.94,0,0,0,3.1,3.28L3,4.14A1.84,1.84,0,0,1,1.88,5.62L1.1,6A2,2,0,0,0,.23,8.7l.43.78a1.93,1.93,0,0,1,0,1.82l-.43.78a2,2,0,0,0,.87,2.69l.78.39A1.91,1.91,0,0,1,3,16.64l.13.87a1.91,1.91,0,0,0,2.26,1.65L6.22,19A1.84,1.84,0,0,1,8,19.55l.61.65a2,2,0,0,0,2.82,0l.61-.65A1.88,1.88,0,0,1,13.73,19l.87.17a1.94,1.94,0,0,0,2.26-1.65l.13-.87a1.84,1.84,0,0,1,1.08-1.48l.78-.39a2,2,0,0,0,.87-2.69Z" style="fill:#fff"/><path d="M10,4.53a5.86,5.86,0,1,0,5.86,5.86A5.89,5.89,0,0,0,10,4.53" style="fill:#fff"/></g></g></svg>