<?xml version="1.0" encoding="utf-8"?>
<!-- Generator: Adobe Illustrator 21.0.0, SVG Export Plug-In . SVG Version: 6.00 Build 0)  -->
<svg version="1.1" id="Capa_1" xmlns="http://www.w3.org/2000/svg" xmlns:xlink="http://www.w3.org/1999/xlink" x="0px" y="0px"
	 viewBox="0 0 100 100" style="enable-background:new 0 0 100 100;" xml:space="preserve">
<style type="text/css">
	.st0{fill:#FFFFFF;stroke:#FFFFFF;stroke-width:0.5733;stroke-miterlimit:10;}
</style>
<path class="st0" d="M6.4,57.3c-0.1-0.9,0.6-1.6,1.5-1.7c0.1,0,0.1,0,0.2,0h6.8v30.6H6.4V57.3z M18.3,14.8H42v71.4H18.3V14.8z
	 M67.5,55.6h25.5c0.9-0.1,1.6,0.6,1.7,1.5c0,0.1,0,0.1,0,0.2v28.9H45.4V55.6H67.5z M70.2,35.2h11.5l0.9,17H69.2L70.2,35.2z M81,24.9
	l0.3,6.8H70.2l0.5-6.8H81z M4.7,89.6h91.6c0.9,0.1,1.6-0.6,1.7-1.5c0-0.1,0-0.1,0-0.2V57.3c0-2.8-2.2-5-4.9-5.1c-0.1,0-0.1,0-0.2,0
	h-6.8l-1.7-29.1c-0.1-0.9-0.8-1.5-1.7-1.5H69.2c-0.9,0-1.6,0.7-1.7,1.5l-1.7,29.1H45.4V13.1c0.1-0.9-0.6-1.6-1.5-1.7
	c-0.1,0-0.1,0-0.2,0H16.6c-0.9-0.1-1.6,0.6-1.7,1.5c0,0.1,0,0.1,0,0.2v39.1H8.1c-2.8,0-5,2.2-5.1,4.9c0,0.1,0,0.1,0,0.2v30.6
	c-0.1,0.9,0.6,1.7,1.5,1.7C4.6,89.6,4.6,89.6,4.7,89.6z"/>
<path class="st0" d="M74.2,9.7v8.5c0,0.9,0.8,1.7,1.7,1.7c0.9,0,1.7-0.8,1.7-1.7V9.7c0-0.9-0.8-1.7-1.7-1.7C75,8,74.2,8.8,74.2,9.7z
	"/>
<path class="st0" d="M52.2,62.4h10.1v6.8H52.2V62.4z M50.5,72.6h13.6c0.9,0.1,1.6-0.6,1.7-1.5c0-0.1,0-0.1,0-0.2V60.7
	c0.1-0.9-0.6-1.6-1.5-1.7c-0.1,0-0.1,0-0.2,0H50.5c-0.9-0.1-1.6,0.6-1.7,1.5c0,0.1,0,0.1,0,0.2v10.2c-0.1,0.9,0.6,1.7,1.5,1.7
	C50.3,72.6,50.4,72.6,50.5,72.6L50.5,72.6z"/>
<path class="st0" d="M77.6,62.4h10.2v6.8H77.7L77.6,62.4z M75.9,72.6h13.6c0.9,0.1,1.6-0.6,1.7-1.5c0-0.1,0-0.1,0-0.2V60.7
	c0.1-0.9-0.6-1.6-1.5-1.7c-0.1,0-0.1,0-0.2,0H75.9c-0.9-0.1-1.6,0.6-1.7,1.5c0,0.1,0,0.1,0,0.2v10.2c-0.1,0.9,0.6,1.7,1.4,1.7
	C75.8,72.6,75.9,72.6,75.9,72.6L75.9,72.6z"/>
<path class="st0" d="M36.9,21.6H23.3c-0.9,0-1.7,0.8-1.7,1.7c0,0.9,0.8,1.7,1.7,1.7l0,0h13.6c0.9,0,1.7-0.8,1.7-1.7
	C38.6,22.3,37.8,21.6,36.9,21.6L36.9,21.6z"/>
<path class="st0" d="M36.9,28.4H23.3c-0.9,0-1.7,0.8-1.7,1.7c0,0.9,0.8,1.7,1.7,1.7l0,0h13.6c0.9,0,1.7-0.8,1.7-1.7
	C38.6,29.1,37.8,28.4,36.9,28.4L36.9,28.4z"/>
<path class="st0" d="M36.9,35.2H23.3c-0.9,0-1.7,0.8-1.7,1.7c0,0.9,0.8,1.7,1.7,1.7l0,0h13.6c0.9,0.1,1.6-0.6,1.7-1.5
	c0-0.1,0-0.1,0-0.2c0.1-0.9-0.6-1.6-1.5-1.7C37.1,35.2,37,35.2,36.9,35.2z"/>
<path class="st0" d="M36.9,72.6H23.3c-0.9,0-1.7,0.8-1.7,1.7c0,0.9,0.8,1.7,1.7,1.7h13.6c0.9,0,1.7-0.8,1.7-1.7
	C38.6,73.4,37.8,72.6,36.9,72.6L36.9,72.6z"/>
</svg>
