<?xml version="1.0" encoding="utf-8"?>
<!-- Generator: Adobe Illustrator 21.0.0, SVG Export Plug-In . SVG Version: 6.00 Build 0)  -->
<svg version="1.1" id="Capa_1" xmlns="http://www.w3.org/2000/svg" xmlns:xlink="http://www.w3.org/1999/xlink" x="0px" y="0px"
	 viewBox="0 0 100 100" style="enable-background:new 0 0 100 100;" xml:space="preserve">
<style type="text/css">
	.st0{fill:#FFFFFF;stroke:#FFFFFF;stroke-width:0.5;stroke-miterlimit:10;}
	.st1{fill:#FFFFFF;stroke:#FFFFFF;stroke-miterlimit:10;}
</style>
<path class="st0" d="M93,68c0,2.5-2,4.4-4.4,4.4c0,0,0,0,0,0H11.6c-2.5,0-4.4-2-4.4-4.4l0,0V17.7c0-2.5,2-4.4,4.4-4.4l0,0h76.9
	c2.5,0,4.4,2,4.4,4.4v0V68z M61.4,81.3H38.9l2-5.9h18.6L61.4,81.3z M70.7,84.3c-1.5,1.1-8.4,3-20.5,3s-19.1-1.8-20.5-3
	c0.6-0.4,2.2-1.2,5.8-1.8l-0.6,1.8h30.8l-0.6-1.8C68.4,83.1,70.1,83.8,70.7,84.3z M88.6,10.3H11.6c-4.1,0-7.4,3.3-7.4,7.4V68
	c0,4.1,3.3,7.4,7.4,7.4c0,0,0,0,0,0h26.1l-1.3,3.9c-8.9,1.4-10,3.5-10,5c0,5.7,21.3,5.9,23.7,5.9c2.4,0,23.7-0.2,23.7-5.9
	c0-1.5-1.1-3.6-10-5l-1.3-3.9h26.1c4.1,0,7.4-3.3,7.4-7.4V17.6C96,13.6,92.7,10.3,88.6,10.3z"/>
<path class="st1" d="M45.7,68c0,0.8-0.7,1.5-1.5,1.5c-0.8,0-1.5-0.7-1.5-1.5c0-0.8,0.7-1.5,1.5-1.5C45,66.5,45.7,67.1,45.7,68"/>
<path class="st1" d="M51.6,68c0,0.8-0.7,1.5-1.5,1.5c-0.8,0-1.5-0.7-1.5-1.5c0-0.8,0.7-1.5,1.5-1.5C50.9,66.5,51.6,67.1,51.6,68"/>
<path class="st1" d="M57.5,68c0,0.8-0.7,1.5-1.5,1.5c-0.8,0-1.5-0.7-1.5-1.5c0-0.8,0.7-1.5,1.5-1.5C56.9,66.5,57.5,67.1,57.5,68"/>
<path class="st1" d="M13.1,60.6V19.1h74v41.4H13.1z M87.1,16.2h-74c-1.6,0-3,1.3-3,3v41.4c0,1.6,1.3,3,3,3h74c1.6,0,3-1.3,3-3
	c0,0,0,0,0,0V19.1C90.1,17.5,88.8,16.2,87.1,16.2C87.1,16.2,87.1,16.2,87.1,16.2z"/>
<path class="st1" d="M19.1,25.1h23.7v17.8h-1.6c-0.8-5.6-6-9.6-11.6-8.8c-0.5,0.1-1,0.2-1.5,0.3l-4.7-7.2l-2.5,1.6l4.5,6.8
	c-2.5,1.6-4.2,4.3-4.6,7.2h-1.6V25.1z M30.9,36.9c3.5,0,6.5,2.5,7.2,5.9H23.6C24.3,39.4,27.4,36.9,30.9,36.9z M16.1,45.8h29.6V22.1
	H16.1V45.8z"/>
<path class="st1" d="M51.6,25.1h29.6v29.6H51.6V25.1z M48.6,57.6h35.5V22.1H48.6V57.6z"/>
<path class="st1" d="M72.3,48.7h-3v-6.8l3-3L72.3,48.7z M57.5,44.9l3-3v6.8h-3L57.5,44.9z M66.4,42v6.8h-3V39L66.4,42z M79.3,32.1
	l-2.1-2.1l-9.3,9.3l-4.4-4.4l-5.9,5.9V28h-3v23.7h23.7v-3h-3V36L79.3,32.1z"/>
<path class="st1" d="M19.1,51.7H25v3h-5.9V51.7z M16.1,57.6h11.8v-8.9H16.1V57.6z"/>
<rect x="30.9" y="48.7" class="st1" width="14.8" height="3"/>
<rect x="30.9" y="54.6" class="st1" width="14.8" height="3"/>
</svg>
