<?xml version="1.0" encoding="utf-8"?>
<!-- Generator: Adobe Illustrator 21.0.0, SVG Export Plug-In . SVG Version: 6.00 Build 0)  -->
<svg version="1.1" id="Capa_1" xmlns="http://www.w3.org/2000/svg" xmlns:xlink="http://www.w3.org/1999/xlink" x="0px" y="0px"
	 viewBox="0 0 100 100" style="enable-background:new 0 0 100 100;" xml:space="preserve">
<style type="text/css">
	.st0{fill:#FFFFFF;stroke:#FFFFFF;stroke-width:0.5733;stroke-miterlimit:10;}
</style>
<path class="st0" d="M92.6,86.3c0,2.4-1.9,4.3-4.3,4.3H14.4c-2.4,0-4.3-1.9-4.3-4.3v-4.3H40v1.4c0,2.4,1.9,4.3,4.3,4.3h14.2
	c2.4,0,4.3-1.9,4.3-4.3v-1.4h29.9V86.3z M42.8,82.1h17.1v1.4c0,0.8-0.6,1.4-1.4,1.4H44.3c-0.8,0-1.4-0.6-1.4-1.4L42.8,82.1z
	 M13,35.2c0-3.9,3.2-7.1,7.1-7.1l0,0h11.6c0.1,1,0.3,1.9,0.6,2.8H20.1c-2.4,0-4.3,1.9-4.3,4.3l0,0V75c0,0.8,0.6,1.4,1.4,1.4
	s1.4-0.6,1.4-1.4V35.2c0-0.8,0.6-1.4,1.4-1.4h13.3c2.6,5.5,7.7,9.6,13.7,10.9V48h-4.3c-0.8,0-1.4,0.6-1.4,1.4c0,0.8,0.6,1.4,1.4,1.4
	h1.4v2.8h-1.4c-0.8,0-1.4,0.6-1.4,1.4c0,0.8,0.6,1.4,1.4,1.4h1.4v12.8c0,3.9,3.2,7.1,7.1,7.1s7.1-3.2,7.1-7.1V56.5h1.4
	c0.8,0,1.4-0.6,1.4-1.4c0-0.8-0.6-1.4-1.4-1.4h-1.4v-2.8h1.4c0.8,0,1.4-0.6,1.4-1.4c0-0.8-0.6-1.4-1.4-1.4h-4.3v-3.3
	c6-1.3,11.1-5.4,13.7-10.9h13.3c0.8,0,1.4,0.6,1.4,1.4V75c0,0.8,0.6,1.4,1.4,1.4c0.8,0,1.4-0.6,1.4-1.4V35.2c0-2.4-1.9-4.3-4.3-4.3
	H70.4C70.7,30,70.9,29,71,28h11.6c3.9,0,7.1,3.2,7.1,7.1v44.1H13V35.2z M50,48V45c0.5,0,1,0.1,1.4,0.1s1,0,1.4-0.1V48L50,48z
	 M47.2,53.6v-2.8h8.5v2.8L47.2,53.6z M47.2,56.5h8.5v12.8c0,2.4-1.9,4.3-4.3,4.3s-4.3-1.9-4.3-4.3V56.5z M51.4,8.1
	c9.4,0,17.1,7.6,17,17.1s-7.6,17.1-17.1,17c-9.4,0-17-7.6-17-17.1C34.3,15.8,42,8.1,51.4,8.1z M94,79.2h-1.4V35.2
	c0-5.5-4.5-10-10-10H71.3c0-11-8.9-19.9-19.9-19.9s-19.9,8.9-19.9,19.9H20.1c-5.5,0-10,4.5-10,10v44.1H8.7c-0.8,0-1.4,0.6-1.4,1.4
	v5.7c0,3.9,3.2,7.1,7.1,7.1l0,0h73.9c3.9,0,7.1-3.2,7.1-7.1l0,0v-5.7C95.5,79.9,94.8,79.2,94,79.2C94,79.2,94,79.2,94,79.2z"/>
<path class="st0" d="M51.4,13.8c6.3,0,11.4,5.1,11.4,11.4c0,6.3-5.1,11.4-11.4,11.4c-6.3,0-11.4-5.1-11.4-11.4c0,0,0,0,0,0
	C40,18.9,45.1,13.8,51.4,13.8z M51.4,39.4c7.9,0,14.2-6.4,14.2-14.2S59.2,11,51.4,11s-14.2,6.4-14.2,14.2
	C37.2,33.1,43.5,39.4,51.4,39.4z"/>
<path class="st0" d="M52.8,69.3c0.1,0.8-0.4,1.5-1.1,1.7c-0.8,0.1-1.5-0.4-1.7-1.1c0-0.2,0-0.4,0-0.5c0-0.8,0.6-1.4,1.4-1.4
	C52.2,67.9,52.8,68.5,52.8,69.3"/>
<path class="st0" d="M31.5,70.7c-3.9,0-7.1-3.2-7.1-7.1c0-3.4,2.4-6.3,5.7-7v7c0,0.5,0.3,1,0.7,1.2l6,3.6
	C35.4,69.9,33.5,70.7,31.5,70.7L31.5,70.7z M38.6,63.6c0,0.8-0.2,1.6-0.4,2.3l-5.3-3.2v-6.2C36.2,57.3,38.6,60.2,38.6,63.6
	L38.6,63.6z M31.5,53.6c-5.5,0-10,4.5-10,10s4.5,10,10,10s10-4.5,10-10C41.4,58.1,37,53.6,31.5,53.6L31.5,53.6z"/>
<path class="st0" d="M62.8,73.6h17.1c0.8,0,1.4-0.6,1.4-1.4c0-0.8-0.6-1.4-1.4-1.4h-1.4V55.1c0-0.8-0.6-1.4-1.4-1.4
	c-0.8,0-1.4,0.6-1.4,1.4c0,0,0,0,0,0v15.6h-2.8V57.9c0-0.8-0.6-1.4-1.4-1.4c-0.8,0-1.4,0.6-1.4,1.4c0,0,0,0,0,0v12.8H67v-10
	c0-0.8-0.6-1.4-1.4-1.4s-1.4,0.6-1.4,1.4v10h-1.4c-0.8,0-1.4,0.6-1.4,1.4C61.3,72.9,62,73.5,62.8,73.6z"/>
</svg>
