<svg xmlns="http://www.w3.org/2000/svg" viewBox="0 0 39.26 39.26"><title>FRK-whatsapp</title><g id="Capa_2" data-name="Capa 2"><g id="Capa_1-2" data-name="Capa 1"><path d="M39.26,19.63A19.63,19.63,0,1,1,19.63,0,19.63,19.63,0,0,1,39.26,19.63" style="fill:#009045"/><path d="M16,14.67l1.6,2.65L17,18a.44.44,0,0,0-.07.53,8.66,8.66,0,0,0,3.91,3.87.44.44,0,0,0,.49-.09l.71-.71,2.58,1.61a2.43,2.43,0,0,1-1.08,1.25,2.64,2.64,0,0,1-1.79.17,9.62,9.62,0,0,1-4.4-2.75,9.79,9.79,0,0,1-2.67-4.44,2.58,2.58,0,0,1,.18-1.74,2.22,2.22,0,0,1,1.21-1m3.6-3.83a8.79,8.79,0,0,0-7.24,13.78.44.44,0,0,1,.06.38l-.89,3,2.93-1a.43.43,0,0,1,.38,0,8.8,8.8,0,1,0,4.77-16.19" style="fill:#fff;fill-rule:evenodd"/></g></g></svg>