<?xml version="1.0" encoding="utf-8"?>
<!-- Generator: Adobe Illustrator 21.0.0, SVG Export Plug-In . SVG Version: 6.00 Build 0)  -->
<svg version="1.1" id="Capa_1" xmlns="http://www.w3.org/2000/svg" xmlns:xlink="http://www.w3.org/1999/xlink" x="0px" y="0px"
	 viewBox="0 0 100 100" style="enable-background:new 0 0 100 100;" xml:space="preserve">
<style type="text/css">
	.st0{fill:#FFFFFF;stroke:#FFFFFF;stroke-width:2;stroke-miterlimit:10;}
</style>
<path class="st0" d="M95,84.1c0,0.2-0.1,0.3-0.3,0.3c-0.1,0-0.3,0-0.4-0.1l-4.5-4.5c-2.4-2.1-6-1.8-8.1,0.6c-1.9,2.2-1.9,5.4,0,7.5
	l4.6,4.6c0.1,0.1,0.2,0.3,0.1,0.4c0,0.1-0.2,0.2-0.3,0.2c-2.4,0.3-6,0.2-8.7-2c-0.8-0.7-1.6-1.5-2.2-2.4c-0.9-1.3-1.5-2.9-1.7-4.4
	c-0.2-1.1-0.2-2.2,0-3.3c0.1-0.3,0.1-0.6,0.2-1c0-0.1,0-0.2,0-0.2c0.8-4,3.9-7,7.8-7.9c0.1,0,0.2,0,0.3,0c0.3-0.1,0.7-0.1,1.1-0.2
	c2.7-0.1,6.6,0.3,9.3,3c0.3,0.3,0.5,0.5,0.7,0.8C95.1,78,95.2,81.5,95,84.1L95,84.1z M94.7,72.4c-3.6-3.5-8.3-4.1-11.8-3.9h-0.1
	h-0.1c-0.5,0-1,0.1-1.4,0.2c-5.4,1-9.6,5.3-10.6,10.7c-0.1,0.5-0.2,1-0.2,1.5l0,0c-0.2,1.3-0.2,2.7,0,4c0.3,2,1,4,2.2,5.7
	c0.8,1.2,1.7,2.3,2.9,3.2c2.5,1.9,5.7,2.9,8.8,2.8c0.8,0,1.5,0,2.3-0.1c1.4-0.1,2.6-1.1,3-2.4c0.5-1.3,0.1-2.8-0.9-3.8l-4.6-4.6
	c-0.9-1-0.9-2.6,0.1-3.5c1-0.9,2.5-0.9,3.4,0l4.5,4.5c1.4,1.4,3.7,1.4,5.2,0c0.6-0.6,1-1.4,1-2.3c0.4-4.5-0.5-8.2-2.6-10.8
	C95.4,73.1,95.1,72.7,94.7,72.4L94.7,72.4z"/>
<path class="st0" d="M7.4,14.5c0-0.2,0.1-0.3,0.3-0.3c0.1,0,0.3,0,0.4,0.1l4.9,4.9c2.2,2.3,5.8,2.5,8.1,0.3s2.5-5.8,0.3-8.1
	c-0.1-0.1-0.2-0.2-0.3-0.3l-4.9-4.9C16.1,6,16,5.8,16.1,5.7c0-0.1,0.2-0.3,0.3-0.3C20,4.8,23.7,6,26.2,8.5c0.9,0.9,1.7,1.9,2.2,3.1
	c0.9,2,1.3,4.2,0.9,6.4c0,0.3-0.1,0.6-0.2,0.9c-0.1,0.6,0.1,1.2,0.5,1.6l39.2,39.2c-1.7,2.9-4.1,5.3-7.1,7.1L22.6,27.6
	c-0.4-0.4-1.1-0.6-1.6-0.4c-0.1,0-0.3,0.1-0.5,0.1h-0.3l0,0c-2.2,0.4-4.6,0.1-6.6-0.9c-1.2-0.5-2.2-1.3-3.1-2.2
	C7.9,21.7,6.8,18,7.4,14.5L7.4,14.5z M12.2,29.4c2.6,1.2,5.4,1.7,8.3,1.2c0.1,0,0.2,0,0.4,0l0,0l37.9,37.9c-0.8,0.3-1.7,0.6-2.6,0.8
	c-1.5,0.4-3.1,0.5-4.6,0.5c-11.2,0-20.3-9.1-20.3-20.3c0-1.6,0.2-3.1,0.5-4.6c0.2-0.9-0.3-1.8-1.2-2c-0.9-0.2-1.8,0.3-2,1.2
	c-0.4,1.8-0.6,3.6-0.6,5.4C28,62.5,38.5,73,51.5,73c1.8,0,3.6-0.2,5.4-0.6c1.9-0.4,3.7-1.1,5.4-2c7.8-4,12.7-12.1,12.7-20.9
	C75,36.5,64.5,26,51.5,26c-1.8,0-3.7,0.2-5.4,0.7c-0.9,0.2-1.4,1.1-1.2,2s1.1,1.4,2,1.2c1.5-0.4,3-0.6,4.6-0.6
	c11.2,0,20.2,9.1,20.3,20.2c0,1.6-0.2,3.1-0.6,4.7c-0.2,0.9-0.5,1.7-0.8,2.6L32.6,18.9c0-0.2,0.1-0.5,0.1-0.7
	c0.4-2.7-0.1-5.4-1.2-7.9c-0.7-1.5-1.7-2.9-2.9-4.1c-3.3-3.3-8-4.8-12.7-4c-1.4,0.2-2.5,1.2-2.9,2.5c-0.4,1.3-0.1,2.7,0.9,3.6
	l4.9,4.9c1,1,1,2.5,0,3.5c-0.5,0.5-1.1,0.7-1.8,0.7c-0.7,0-1.3-0.3-1.8-0.7l-4.9-4.9c-1-1-2.4-1.3-3.7-0.9c-1.3,0.4-2.3,1.5-2.5,2.9
	c-0.8,4.6,0.7,9.4,4,12.7C9.4,27.7,10.7,28.7,12.2,29.4L12.2,29.4z"/>
<path class="st0" d="M72.2,7.3c-1.7-0.8-3.5-1.6-5.3-2.2c-2.5-0.8-5.1,0.4-6.1,2.8c-1.5,3.8-5.2,6.2-9.2,6.2c-4.1,0-7.7-2.5-9.2-6.2
	c-1-2.4-3.7-3.6-6.2-2.8c-1,0.4-2,0.8-3,1.2c-0.8,0.4-1.2,1.3-0.8,2.2c0.4,0.8,1.3,1.2,2.2,0.8c0.9-0.4,1.9-0.8,2.8-1.1
	C38,7.9,39,8.3,39.3,9.1c2,5,6.9,8.3,12.2,8.3c5.4,0,10.2-3.3,12.3-8.2c0.3-0.8,1.2-1.2,2-0.9c1.6,0.6,3.2,1.2,4.9,2
	c0.8,0.4,1.1,1.3,0.8,2.1c-2.9,6.7,0.2,14.5,6.9,17.3c3.3,1.4,7.1,1.4,10.4,0c0.8-0.3,1.7,0,2.1,0.7c0.8,1.8,1.5,3.4,2,4.9
	c0.3,0.8-0.1,1.7-0.9,2.1c-6.8,2.8-10,10.5-7.2,17.3c1.3,3.3,4,5.9,7.2,7.2c0.8,0.3,1.3,1.2,1,2.1c-0.3,1-0.7,1.9-1.1,2.9
	c-0.4,0.8,0,1.8,0.9,2.2c0.2,0.1,0.4,0.1,0.7,0.1c0.7,0,1.3-0.4,1.5-1c0.4-1,0.8-2,1.2-3.1c0.8-2.5-0.4-5.2-2.8-6.2
	c-3.8-1.5-6.2-5.2-6.2-9.2c0-4.1,2.5-7.7,6.2-9.2c2.4-1,3.6-3.7,2.8-6.2c-0.6-1.6-1.3-3.3-2.2-5.3c-1.2-2.3-3.9-3.3-6.3-2.3
	c-5.1,2.1-10.9-0.3-13-5.3c-1-2.5-1-5.2,0-7.7C75.6,11.1,74.5,8.4,72.2,7.3L72.2,7.3z"/>
<path class="st0" d="M68.7,89.8c-0.9,0.4-1.9,0.8-2.8,1.1c-0.8,0.3-1.7-0.1-2-0.9c-2.7-6.8-10.4-10-17.2-7.3c-3.3,1.3-6,4-7.3,7.3
	c-0.3,0.8-1.2,1.2-2.1,0.9c-1.6-0.6-3.2-1.2-4.9-2c-0.8-0.4-1.1-1.3-0.8-2.1c2.9-6.7-0.3-14.5-7-17.3c-3.3-1.4-7-1.4-10.3,0
	c-0.8,0.3-1.7,0-2.1-0.7c-0.7-1.6-1.4-3.2-2-4.9c-0.3-0.9,0.2-1.8,1-2.1c5-2,8.3-6.9,8.3-12.2c0-5.4-3.3-10.3-8.3-12.3
	c-0.8-0.3-1.2-1.3-0.9-2.1c0.3-1,0.7-1.9,1.1-2.8c0.3-0.9-0.2-1.8-1-2.1c-0.8-0.2-1.6,0.1-2,0.8c-0.4,1-0.8,2-1.1,3
	c-0.9,2.5,0.3,5.2,2.7,6.2c3.8,1.5,6.2,5.2,6.2,9.2c0,4.1-2.4,7.7-6.2,9.2c-2.5,0.9-3.8,3.7-2.9,6.2c0.6,1.8,1.4,3.5,2.2,5.3
	c1.2,2.3,3.9,3.3,6.3,2.3c5.1-2.1,10.9,0.3,13,5.3c1,2.4,1,5.2,0,7.7c-1,2.4,0.1,5.2,2.5,6.3c1.7,0.8,3.4,1.5,5.2,2.2
	c0.5,0.2,1,0.3,1.6,0.3c2,0,3.8-1.2,4.6-3.1c2-5.1,7.8-7.6,12.9-5.5c2.5,1,4.5,3,5.5,5.5c1,2.4,3.7,3.7,6.1,2.8
	c1.1-0.3,2.1-0.7,3.1-1.2c0.8-0.4,1.2-1.3,0.8-2.2C70.5,89.8,69.5,89.4,68.7,89.8L68.7,89.8z"/>
</svg>
