<svg xmlns="http://www.w3.org/2000/svg" viewBox="0 0 27.26 26.34"><title>FRK-demo-ecommerce</title><g id="Capa_2" data-name="Capa 2"><g id="Capa_1-2" data-name="Capa 1"><path d="M6.35,2.68h-5A1.34,1.34,0,1,1,1.34,0h5a1.34,1.34,0,0,1,0,2.68" style="fill:#2c74b8"/><path d="M6.35,20.54A1.34,1.34,0,0,1,5,19.2V1.34a1.34,1.34,0,1,1,2.68,0V19.2a1.34,1.34,0,0,1-1.34,1.34" style="fill:#2c74b8"/><path d="M25.92,20.54H6.35a1.34,1.34,0,0,1,0-2.68H25.92a1.34,1.34,0,0,1,0,2.68" style="fill:#2c74b8"/><path d="M10.08,22.4a.64.64,0,1,0,.57.63.6.6,0,0,0-.57-.63m0,3.94A3.31,3.31,0,1,1,13.33,23a3.28,3.28,0,0,1-3.25,3.31" style="fill:#2c74b8"/><path d="M21.85,22.15a.64.64,0,1,0,.57.63.61.61,0,0,0-.57-.63m0,3.94a3.31,3.31,0,1,1,3.25-3.31,3.28,3.28,0,0,1-3.25,3.31" style="fill:#2c74b8"/><path d="M7.8,6.57v7.26l14.39,0,1.6-7.21ZM6.47,16.51a1.34,1.34,0,0,1-1.34-1.34V5.24A1.34,1.34,0,0,1,6.47,3.9h19a1.33,1.33,0,0,1,1,.5,1.35,1.35,0,0,1,.26,1.13l-2.19,9.88a1.34,1.34,0,0,1-1.3,1l-16.8.05h0Z" style="fill:#2c74b8"/><path d="M24.12,11.74H7.26a1.34,1.34,0,1,1,0-2.68H24.12a1.34,1.34,0,0,1,0,2.68" style="fill:#2c74b8"/></g></g></svg>