<?xml version="1.0" encoding="utf-8"?>
<!-- Generator: Adobe Illustrator 21.0.0, SVG Export Plug-In . SVG Version: 6.00 Build 0)  -->
<svg version="1.1" id="Capa_1" xmlns="http://www.w3.org/2000/svg" xmlns:xlink="http://www.w3.org/1999/xlink" x="0px" y="0px"
	 viewBox="0 0 100 100" style="enable-background:new 0 0 100 100;" xml:space="preserve">
<style type="text/css">
	.st0{fill:#FFFFFF;}
</style>
<g>
	<path class="st0" d="M90.9,32.8l-4.5,19.6h11.8c0.5,0,0.8,0.6,0.5,1L81.6,79.8c-0.1,0.3-0.6,0.1-0.5-0.2l4.3-20.5H74
		c-0.5,0-0.8-0.6-0.5-1l17-25.6C90.6,32.3,91,32.4,90.9,32.8L90.9,32.8z"/>
	<g>
		<path class="st0" d="M66.9,61.9c-1.5,0.8-1.9,0.9-3.5,1.5c3.1-3.7,4.8-8.4,4.8-13.2s-1.7-9.5-4.8-13.2c5.2,2.2,10.2,4.9,14.7,8.3
			l2.5-4.1C73,35.6,61.1,29,47.5,29C24.6,29,6.4,47.7,5.6,48.5c-0.9,0.9-0.9,2.4,0,3.3c0.8,0.8,18.9,19.5,41.8,19.5
			c11.3,0,21.5-4.6,29-9.3L66.9,61.9z M10.8,50.2c6.1-5.6,13.1-10.1,20.8-13.2c-3.1,3.7-4.8,8.4-4.8,13.2s1.7,9.5,4.8,13.2
			C23.9,60.2,16.9,55.7,10.8,50.2z M47.5,66.1L47.5,66.1c-4.2,0-8.3-1.7-11.3-4.7c-3-3-4.7-7-4.7-11.3s1.7-8.3,4.7-11.3
			s7-4.7,11.3-4.7s8.3,1.7,11.3,4.7s4.7,7.1,4.7,11.3s-1.7,8.3-4.7,11.3C55.8,64.5,51.7,66.1,47.5,66.1z"/>
		<path class="st0" d="M47.5,40.9L47.5,40.9c-0.4,0-0.8,0-1.2,0.1c1.3,2.1,0.8,4.9-1.1,6.4c-1.9,1.6-4.7,1.5-6.5-0.2
			c-1.3,3.8,0.1,8,3.3,10.4c3.2,2.4,7.7,2.4,10.9,0.1c3.3-2.4,4.6-6.5,3.4-10.4C55.1,43.5,51.5,40.9,47.5,40.9z"/>
	</g>
</g>
</svg>
