<?xml version="1.0" encoding="utf-8"?>
<!-- Generator: Adobe Illustrator 21.0.0, SVG Export Plug-In . SVG Version: 6.00 Build 0)  -->
<svg version="1.1" id="Capa_1" xmlns="http://www.w3.org/2000/svg" xmlns:xlink="http://www.w3.org/1999/xlink" x="0px" y="0px"
	 viewBox="0 0 100 100" style="enable-background:new 0 0 100 100;" xml:space="preserve">
<style type="text/css">
	.st0{fill:#FFFFFF;stroke:#FFFFFF;stroke-miterlimit:10;}
	.st1{fill:#FFFFFF;stroke:#FFFFFF;stroke-width:0.5;stroke-miterlimit:10;}
</style>
<path class="st0" d="M38.3,78.3c-4.1,0-7.4-3.3-7.4-7.4c0-4.1,3.3-7.4,7.4-7.4s7.4,3.3,7.4,7.4l0,0C45.7,75,42.3,78.3,38.3,78.3z
	 M38.3,60.6c-5.7,0-10.4,4.6-10.4,10.3c0,5.7,4.6,10.4,10.3,10.4c5.7,0,10.4-4.6,10.4-10.3c0,0,0,0,0,0C48.6,65.2,44,60.6,38.3,60.6
	z"/>
<path class="st0" d="M54.5,67.6v6.5l-3.6,0.9l-0.7,1.8l1.9,3.2l-4.6,4.6l-3.2-1.9l-1.8,0.7l-0.9,3.6H35L34,83.7l-1.8-0.7L29,84.8
	l-4.6-4.6l1.9-3.2l-0.7-1.8L22,74.2v-6.5l3.6-0.9l0.7-1.8l-1.9-3.2l4.6-4.6l3.2,1.9l1.8-0.7l0.9-3.6h6.6l0.9,3.6l1.8,0.7l3.2-1.9
	l4.6,4.6l-1.9,3.2l0.7,1.8L54.5,67.6z M55.8,61.3l-7.9-7.9l-3.1,1.9l-0.9-3.6H32.7l-0.9,3.6l-3.2-1.9l-7.9,7.9l1.9,3.2L19,65.3v11.2
	l3.6,0.9l-1.9,3.2l7.9,7.9l3.2-1.9l0.9,3.6h11.2l0.9-3.6l3.2,1.9l7.9-7.9L54,77.4l3.6-0.9V65.3L54,64.4L55.8,61.3z"/>
<path class="st1" d="M16,93.2V48.7h77.1v44.4H16z M7.2,33.9c0-4.9,4-8.9,8.9-8.9c4,0,7.5,2.6,8.6,6.4l2.8-0.8
	c-1.3-4.5-5.2-7.8-9.9-8.4c0,0,0-0.1,0-0.1c0-8.2,6.6-14.8,14.8-14.8c8.2,0,14.8,6.6,14.8,14.8h3c0-2.7-0.7-5.4-1.9-7.9
	c6-2.7,12.9,0,15.6,5.9c0.3,0.7,0.5,1.4,0.7,2.1c-4.5,0.7-8.2,3.9-9.5,8.2l2.8,0.9c1.5-4.7,6.4-7.3,11.1-5.9
	c3.7,1.2,6.3,4.6,6.3,8.5H13.1v8.3C9.6,40.9,7.2,37.6,7.2,33.9z M93.1,45.7H16v-8.9h77.1V45.7z M78.3,33.9c0-6.1-4.6-11.2-10.7-11.8
	c-1.6-8-9.3-13.2-17.3-11.6c-1.2,0.2-2.4,0.6-3.5,1.2C41.1,3.7,30,1.9,22,7.6c-4.7,3.3-7.4,8.7-7.4,14.5v0.1
	C8.1,23,3.5,28.9,4.4,35.4c0.6,4.8,4,8.7,8.7,10v50.8H96V33.9H78.3z"/>
<rect x="19" y="39.8" class="st0" width="3" height="3"/>
<rect x="24.9" y="39.8" class="st0" width="3" height="3"/>
<rect x="30.8" y="39.8" class="st0" width="3" height="3"/>
<path class="st0" d="M87.2,63.5H63.4v-3h23.7V63.5z M82.7,69.4H67.9v-3h14.8V69.4z M87.2,75.4H63.5v-3h23.7V75.4z M82.7,81.3H67.9
	v-3h14.8V81.3z M87.2,87.2H63.5v-3h23.7V87.2z M87.2,57.6H63.5c-1.6,0-3,1.3-3,3v3c0,1.6,1.3,3,3,3l0,0h1.5v3h-1.5c-1.6,0-3,1.3-3,3
	l0,0v3c0,1.6,1.3,3,3,3h1.5v3h-1.5c-1.6,0-3,1.3-3,3l0,0v3c0,1.6,1.3,3,3,3l0,0h23.7c1.6,0,3-1.3,3-3v0v-3c0-1.6-1.3-3-3-3h0h-1.5
	v-3h1.5c1.6,0,3-1.3,3-3v-3c0-1.6-1.3-2.9-3-2.9h-1.5v-3h1.5c1.6,0,3-1.3,3-3v0v-3C90.1,58.9,88.8,57.6,87.2,57.6L87.2,57.6
	L87.2,57.6z"/>
<rect x="87.2" y="51.7" class="st0" width="3" height="3"/>
<rect x="81.2" y="51.7" class="st0" width="3" height="3"/>
<rect x="75.3" y="51.7" class="st0" width="3" height="3"/>
<path class="st0" d="M38.3,72.4c-0.8,0-1.5-0.7-1.5-1.5c0-0.8,0.7-1.5,1.5-1.5v-3c-2.5,0-4.4,2-4.4,4.4c0,2.5,2,4.4,4.4,4.4
	c2.5,0,4.4-2,4.4-4.4h-3C39.7,71.8,39.1,72.4,38.3,72.4z"/>
</svg>
