<svg xmlns="http://www.w3.org/2000/svg" viewBox="0 0 24.24 27.7"><title>FRK-demo-cerveza</title><g id="Capa_2" data-name="Capa 2"><g id="Capa_1-2" data-name="Capa 1"><path d="M16.45,24.67a.43.43,0,1,0,0-.86H4.33a.43.43,0,1,0,0,.86Z" style="fill:#2c74b8"/><path d="M3.9,12.77a1.51,1.51,0,0,0,.44,1.07,1.57,1.57,0,0,0,1.74.29,1.72,1.72,0,0,0,2.76,1.08,1.85,1.85,0,0,0,.68-1.43V11a1.71,1.71,0,0,0,1,.23,1.67,1.67,0,0,0,1.17-.59,1.87,1.87,0,0,0,.45-1.21.36.36,0,0,1,.36-.36h4a.43.43,0,0,0,0-.86h-4a1.23,1.23,0,0,0-1.23,1.22,1,1,0,0,1-.24.64.81.81,0,0,1-.57.29.86.86,0,0,1-.93-.86.43.43,0,1,0-.87,0v4.25a.92.92,0,0,1-.8.94.85.85,0,0,1-.67-.25.86.86,0,0,1-.26-.61v-2.6a.43.43,0,0,0-.86,0v1.52a.65.65,0,0,1-1.3,0V9.45A1.23,1.23,0,0,0,3.54,8.22H2.92a2.06,2.06,0,0,1-2.05-2,2,2,0,0,1,1.95-1.9H3.91a.44.44,0,0,0,.43-.48,1.66,1.66,0,0,1,0-.17A2.79,2.79,0,0,1,4.7,2.3.43.43,0,0,0,4,1.87a3.64,3.64,0,0,0-.48,1.59H2.81A2.86,2.86,0,0,0,0,6.21,2.94,2.94,0,0,0,2.92,9.09h.62a.36.36,0,0,1,.36.36Z" style="fill:#2c74b8"/><path d="M3,26.82H2.81a1.08,1.08,0,0,1-1.08-1.08,1.11,1.11,0,0,1,.93-1.07A.46.46,0,0,0,3,24.24V10.39a.43.43,0,0,0-.87,0V23.91a1.94,1.94,0,0,0,.65,3.78H3a.43.43,0,1,0,0-.87" style="fill:#2c74b8"/><path d="M9.09,16.45a.43.43,0,0,0-.43.43v3.89a1.73,1.73,0,0,0,3.46,0V13.85a.43.43,0,0,0-.87,0v6.93a.86.86,0,1,1-1.73,0V16.88a.43.43,0,0,0-.43-.43" style="fill:#2c74b8"/><path d="M15.58,12.12v8.66a.87.87,0,0,1-1.73,0V12.12a.87.87,0,1,1,1.73,0m-2.6,0v8.66a1.73,1.73,0,1,0,3.46,0V12.12a1.73,1.73,0,0,0-3.46,0" style="fill:#2c74b8"/><path d="M4.76,15.15a.43.43,0,0,0-.43.43v5.19a1.73,1.73,0,0,0,3.46,0v-3.9a.43.43,0,0,0-.86,0v3.9a.87.87,0,0,1-1.73,0V15.58a.43.43,0,0,0-.43-.43" style="fill:#2c74b8"/><path d="M23.45,11.41a3.21,3.21,0,0,0-2.36-1H18.61V8.87a2.78,2.78,0,0,0,.93-4.51,3.07,3.07,0,0,0-2.24-.9,3.68,3.68,0,0,0-6.92-1.52A3.68,3.68,0,0,0,6.51.05,3.48,3.48,0,0,0,5.32.48a.43.43,0,1,0,.43.75,2.66,2.66,0,0,1,.9-.32A2.82,2.82,0,0,1,10,3.68a.43.43,0,0,0,.86,0,2.81,2.81,0,0,1,1-2.15A2.87,2.87,0,0,1,16,2.24a2.68,2.68,0,0,1,.39,1.6.44.44,0,0,0,.11.34.44.44,0,0,0,.32.15h.56a2.11,2.11,0,0,1,1.5.64,1.92,1.92,0,0,1-.86,3.18.48.48,0,0,0-.32.51v2.16a.44.44,0,0,0,.13.31.43.43,0,0,0,.31.13h2.91a2.33,2.33,0,0,1,1.72.74,2.08,2.08,0,0,1,.55,1.6l-.45,5.19a2.25,2.25,0,0,1-2.27,2H18.18a.43.43,0,0,0-.43.43v3a.46.46,0,0,0,.37.43A1.08,1.08,0,0,1,18,26.83H6.49a.43.43,0,1,0,0,.87H18a1.95,1.95,0,0,0,.65-3.78V21.64h2a3.12,3.12,0,0,0,3.14-2.77l.45-5.19h0a2.94,2.94,0,0,0-.78-2.26" style="fill:#2c74b8"/><path d="M21.44,13.13a.4.4,0,0,1,.12.32l-.45,5.19a.47.47,0,0,1-.47.4h-2V13h2.48a.48.48,0,0,1,.35.15m-3.26,6.78h2.46A1.33,1.33,0,0,0,22,18.72l.45-5.19h0a1.27,1.27,0,0,0-.35-1,1.34,1.34,0,0,0-1-.41H18.18a.43.43,0,0,0-.43.43v6.92a.43.43,0,0,0,.43.43" style="fill:#2c74b8"/><path d="M5.19,27.27a.43.43,0,0,1-.87,0,.43.43,0,0,1,.87,0" style="fill:#2c74b8"/></g></g></svg>