<?xml version="1.0" encoding="utf-8"?>
<!-- Generator: Adobe Illustrator 21.0.0, SVG Export Plug-In . SVG Version: 6.00 Build 0)  -->
<svg version="1.1" id="Capa_1" xmlns="http://www.w3.org/2000/svg" xmlns:xlink="http://www.w3.org/1999/xlink" x="0px" y="0px"
	 viewBox="0 0 100 100" style="enable-background:new 0 0 100 100;" xml:space="preserve">
<style type="text/css">
	.st0{fill:#FFFFFF;}
</style>
<g>
	<path class="st0" d="M92.6,88c0,2.6-2,4.6-4.6,4.6H12.1c-2.6,0-4.6-2-4.6-4.6v-4.6h33.4V85c0,2.6,2,4.6,4.6,4.6h9.1
		c2.6,0,4.6-2,4.6-4.6v-1.5h33.4V88L92.6,88z M44,83.5h12.1V85c0,0.9-0.6,1.5-1.5,1.5h-9.1c-0.9,0-1.5-0.6-1.5-1.5V83.5z M15.1,36.4
		c0-0.9,0.6-1.5,1.5-1.5h7.6v3h-6.1v39.5h63.8V37.9h-6.1v-3h7.6c0.9,0,1.5,0.6,1.5,1.5v44H15.1V36.4z M27.3,7.5h34.9v10.6h10.6v50.1
		H27.3V7.5z M65.3,9.7l5.5,5.5h-5.5C65.3,15.2,65.3,9.7,65.3,9.7z M75.9,71.3V41h3v33.4H21.2V41h3v30.4L75.9,71.3L75.9,71.3z
		 M88,80.4v-44c0-2.6-2-4.6-4.6-4.6h-7.6V16L64.3,4.5H24.2v27.3h-7.6c-2.6,0-4.6,2-4.6,4.6v44H4.5V88c0,4.3,3.3,7.6,7.6,7.6H88
		c4.3,0,7.6-3.3,7.6-7.6v-7.6H88L88,80.4z"/>
	<path class="st0" d="M66.8,41H54.6v-6.1h12.1C66.8,34.9,66.8,41,66.8,41z M45.5,41H33.4v-6.1h12.1V41z M50.1,16.7
		c0.9,0,1.5,0.6,1.5,1.5c0,0.9-0.6,1.5-1.5,1.5s-1.5-0.6-1.5-1.5C48.5,17.3,49.2,16.7,50.1,16.7z M62.2,30.3c0-2.6-2-4.6-4.6-4.6
		h-6.1v-3.3c1.8-0.6,3-2.3,3-4.3c0-2.6-2-4.6-4.6-4.6s-4.6,2-4.6,4.6c0,2,1.2,3.6,3,4.3v3.3h-6.1c-2.6,0-4.6,2-4.6,4.6v1.5H30V44
		h18.2V31.8h-7.6v-1.5c0-0.9,0.6-1.5,1.5-1.5h15.2c0.9,0,1.5,0.6,1.5,1.5v1.5h-7.6V44h18.2V31.8h-7.6L62.2,30.3L62.2,30.3z"/>
	<path class="st0" d="M66.8,53H33.2c-1.1,0-2-0.9-2-2s0.9-2,2-2h33.5c1.1,0,2,0.9,2,2S67.9,53,66.8,53z"/>
	<path class="st0" d="M66.8,60.5H33.2c-1.1,0-2-0.9-2-2s0.9-2,2-2h33.5c1.1,0,2,0.9,2,2S67.9,60.5,66.8,60.5z"/>
</g>
</svg>
