<?xml version="1.0" encoding="utf-8"?>
<!-- Generator: Adobe Illustrator 21.0.0, SVG Export Plug-In . SVG Version: 6.00 Build 0)  -->
<svg version="1.1" id="Capa_1" xmlns="http://www.w3.org/2000/svg" xmlns:xlink="http://www.w3.org/1999/xlink" x="0px" y="0px"
	 viewBox="0 0 100 100" style="enable-background:new 0 0 100 100;" xml:space="preserve">
<style type="text/css">
	.st0{fill:#FFFFFF;stroke:#FFFFFF;stroke-miterlimit:10;}
	.st1{fill:#FFFFFF;stroke:#FFFFFF;stroke-width:0.5;stroke-miterlimit:10;}
</style>
<path class="st0" d="M72.5,38.5h4.8c0.6,0,1.1-0.5,1.1-1.1c0-0.6-0.5-1.1-1.1-1.1h-4.8c-0.6,0-1.1,0.5-1.1,1.1
	C71.5,38.1,71.9,38.5,72.5,38.5z"/>
<path class="st0" d="M77,89.5c0,1.1-0.9,2.1-2.1,2.1c-1.1,0-2.1-0.9-2.1-2.1l0,0c0-1.1,0.9-2.1,2.1-2.1C76.1,87.4,77,88.3,77,89.5"
	/>
<path class="st0" d="M37.6,10.9H29c-0.8,0-1.4,0.6-1.4,1.4s0.6,1.4,1.4,1.4h8.6c0.8,0,1.4-0.6,1.4-1.4S38.4,10.9,37.6,10.9
	L37.6,10.9z"/>
<path class="st1" d="M89,35c1.7,0,3.1,1.4,3.1,3.1v2H57.8v-2c0-1.7,1.4-3.1,3.1-3.1c0,0,0,0,0,0H89z M92.1,90.4
	c0,1.7-1.4,3.1-3.1,3.1H61c-1.7,0-3.2-1.3-3.2-3.1c0,0,0,0,0-0.1c0-0.3,0-4.9,0-4.7h34.3L92.1,90.4z M57.8,43h34.3v39.9H57.8V43z
	 M55,38.1v34.2H8.1V18.7h54.5v13.5h-1.6C57.6,32.2,54.9,34.8,55,38.1L55,38.1z M55,86.4H12.7c-2.5,0-4.6-2.1-4.6-4.6v-6.7H55V86.4z
	 M8.1,12.7c0-2.5,2.1-4.6,4.6-4.6H58c2.5,0,4.6,2.1,4.6,4.6v3.1H8.1V12.7z M65.4,12.7c0-4.1-3.3-7.4-7.4-7.4H12.7
	c-4.1,0-7.4,3.3-7.4,7.4v4.5l0,0v64.6c0,4.1,3.3,7.4,7.5,7.4H55v1.1c0,3.3,2.7,6,6,6h28c3.3,0,6-2.7,6-6v-6.1l0,0V38.1
	c0-3.3-2.7-6-6-6H65.4V12.7z"/>
<path class="st0" d="M33.3,79.2c0.8,0,1.4,0.6,1.4,1.4S34.1,82,33.3,82c-0.8,0-1.4-0.6-1.4-1.4l0,0C31.9,79.8,32.5,79.2,33.3,79.2z
	 M33.3,84.9c2.4,0,4.3-1.9,4.3-4.3c0-2.4-1.9-4.3-4.3-4.3c-2.4,0-4.3,1.9-4.3,4.3l0,0C29,83,30.9,84.9,33.3,84.9z"/>
<path class="st1" d="M45.2,47.1h-6.9V42c0-0.8-0.6-1.4-1.4-1.4h-7.3c-0.8,0-1.4,0.6-1.4,1.4v5.1h-6.9c-2.2,0-3.9-1.7-4.2-3.8
	c-0.2-2.3,1.7-3.9,5-4.5c0.4-0.1,0.8-0.4,1-0.8c0.2-0.4,0.2-0.9,0-1.3c-1.5-3.2,3-5.7,5-3c0.5,0.6,1.4,0.8,2,0.3
	c0.2-0.2,0.4-0.4,0.5-0.6c1.5-3.4,5.4-5,8.8-3.5c2.8,1.2,4.5,4.2,4,7.2c-0.1,0.8,0.4,1.5,1.1,1.6c0.1,0,0.2,0,0.3,0h0.4
	c2.3,0,4.2,1.8,4.2,4.1c0,0,0,0,0,0C49.4,45.3,47.5,47.1,45.2,47.1L45.2,47.1z M33.2,60.7l-3.8-5.3h0.2c0.8,0,1.4-0.7,1.4-1.4V43.4
	h4.4V54c0,0.8,0.6,1.4,1.4,1.4h0.2L33.2,60.7z M46.4,36.1c0-5.3-4.3-9.6-9.6-9.5c-3.1,0-6,1.5-7.8,4.1c-3.9-2.6-9.6,0.9-8.9,5.7
	c-4.6,1.3-6.1,4.5-5.8,7.2c0.3,3.6,3.4,6.4,7,6.4h6.9v2.6h-1.6c-0.5,0-1,0.3-1.3,0.8c-0.2,0.5-0.2,1.1,0.1,1.5l6.7,9.1
	c0.5,0.6,1.4,0.8,2,0.3c0.1-0.1,0.2-0.2,0.3-0.3l6.7-9.1c0.5-0.6,0.3-1.5-0.3-2c-0.2-0.2-0.5-0.3-0.8-0.3h-1.6V50h6.9
	c3.9,0.1,7.1-2.9,7.2-6.8C52.5,39.6,49.9,36.6,46.4,36.1z"/>
<path class="st1" d="M67,60.8c0.4-0.1,0.8-0.4,1-0.8c0.2-0.4,0.2-0.9,0-1.3c-0.3-0.5-0.3-1.1,0-1.6c0.4-0.6,1-0.9,1.6-0.9
	c0.5,0,1,0.3,1.3,0.7c0.3,0.4,0.8,0.6,1.3,0.6c0.5-0.1,0.9-0.4,1.1-0.9c0.9-2.3,3.5-3.4,5.8-2.5c0.7,0.3,1.3,0.7,1.8,1.3
	c0.9,1,1.2,2.3,1,3.6c-0.1,0.7,0.2,1.3,0.8,1.6c0.2,0.1,0.4,0.1,0.6,0.1c2.6,0.2,2.9,1.5,2.9,2.6c0,1.4-1.2,2.6-2.6,2.6H66.2
	c-1.4,0-2.6-1.2-2.6-2.6c0,0,0,0,0,0C63.6,61.9,64.1,61.3,67,60.8L67,60.8z M66.3,69h17.4c3,0,5.5-2.4,5.5-5.5
	c0.1-2.6-1.7-4.8-4.2-5.3c-0.1-4-3.5-7.2-7.5-7.1c-2.2,0.1-4.3,1.1-5.6,2.9c-0.6-0.3-1.3-0.5-2-0.5c-1.6,0-3.1,0.9-4,2.2
	c-0.5,0.8-0.7,1.7-0.7,2.6c-1.9,0.5-4.2,1.7-4.2,5.1C60.8,66.5,63.2,69,66.3,69z"/>
</svg>
