<svg xmlns="http://www.w3.org/2000/svg" viewBox="0 0 29.08 30.83"><title>FRK-demo-azucar</title><g id="Capa_2" data-name="Capa 2"><g id="Capa_1-2" data-name="Capa 1"><path d="M25.59,16.63h2v4.31h-2ZM15.48,23.82V19.47h6.34V18H15.48V13.23h6.34V11.76H15.48V8.24h8.64V23.83ZM19.8,4.61l3.26,2.16H16.55Zm7.82,6.25v4.3h-2v-4.3Zm-7.56,18.5h-.52L17.39,25.3h4.83Zm-9.95-5.54H1.47V19.47H7.81V18H1.47V13.23H7.81V11.76H1.47V8.24h8.64ZM9,6.77H2.53L5.79,4.61ZM6,29.37H5.53L3.38,25.3H8.21ZM25,0H19.91V1.47H25a2.62,2.62,0,0,1,2.62,2.62v5.3h-2V6.7L19.8,2.86,14,6.7H11.58L5.79,2.86,0,6.7V30.83H1.47V25.3h.24l2.94,5.54H6.93L9.87,25.3h.24v5.54h1.47V8.24H14V30.83h1.47V25.29h.24l2.94,5.54h2.29l2.94-5.54h.24v5.54h1.47V22.41h2v8.42h1.47V4.09A4.08,4.08,0,0,0,25,0Z" style="fill:#2c74b8"/></g></g></svg>