<?xml version="1.0" encoding="utf-8"?>
<!-- Generator: Adobe Illustrator 21.0.0, SVG Export Plug-In . SVG Version: 6.00 Build 0)  -->
<svg version="1.1" id="Capa_1" xmlns="http://www.w3.org/2000/svg" xmlns:xlink="http://www.w3.org/1999/xlink" x="0px" y="0px"
	 viewBox="0 0 100 100" style="enable-background:new 0 0 100 100;" xml:space="preserve">
<style type="text/css">
	.st0{fill:#FFFFFF;}
</style>
<path class="st0" d="M32,84.2c-4.1,0-7.3-3.2-7.3-7.3c0-4.1,3.2-7.3,7.3-7.3s7.3,3.2,7.3,7.3C39.3,81,35.9,84.2,32,84.2z M32,66.5
	c-5.6,0-10.2,4.6-10.2,10.2S26.3,87,32,87s10.2-4.6,10.2-10.2l0,0C42.2,71.1,37.6,66.5,32,66.5z"/>
<path class="st0" d="M32,78.2c-0.8,0-1.5-0.6-1.5-1.5c0-0.8,0.6-1.5,1.5-1.5c0.8,0,1.5,0.6,1.5,1.5C33.4,77.6,32.7,78.2,32,78.2
	L32,78.2z M32,72.4c-2.4,0-4.4,2-4.4,4.4s2,4.4,4.4,4.4s4.4-2,4.4-4.4l0,0C36.3,74.4,34.4,72.4,32,72.4L32,72.4z"/>
<path class="st0" d="M50.9,78.2c0-0.2,0.1-0.5,0.1-0.7v-1.4c0-2-1.3-3.7-3.1-4.3c-0.4-0.1-0.7-0.4-0.9-0.9c-0.1-0.2-0.1-0.4-0.2-0.6
	c-0.1-0.3-0.1-0.6,0-0.8h2.8c5.1,0,9.4-3.8,10.1-8.8h32.4v17.6H50.9z M48.1,77.5c0,0.6-0.4,1.3-1,1.5c-1.3,0.4-2.3,1.4-2.8,2.6
	c-0.1,0.2-0.1,0.3-0.2,0.4c-0.5,1.3-0.4,2.6,0.1,3.8c0.3,0.6,0.2,1.4-0.3,1.9l-1,1c-0.5,0.5-1.3,0.6-1.9,0.3
	c-1.1-0.6-2.5-0.6-3.8-0.1l-0.5,0.2c-1.3,0.5-2.2,1.5-2.6,2.7c-0.2,0.6-0.8,1-1.5,1h-1.3c-0.6,0-1.3-0.4-1.5-1
	c-0.4-1.3-1.5-2.3-2.7-2.7l-0.5-0.2c-0.5-0.2-1.1-0.3-1.8-0.3c-0.7,0-1.4,0.2-2,0.5s-1.4,0.1-1.8-0.3l-1-1c-0.4-0.5-0.5-1.1-0.3-1.8
	c0.6-1.1,0.6-2.5,0.1-3.8l-0.2-0.4c-0.5-1.3-1.5-2.2-2.7-2.6c-0.6-0.2-1-0.8-1-1.5v-1.5c0-0.6,0.4-1.3,1-1.5
	c1.3-0.4,2.3-1.4,2.7-2.6c0.1-0.2,0.1-0.3,0.2-0.4c0.5-1.3,0.5-2.6-0.1-3.8c-0.3-0.6-0.2-1.4,0.3-1.9l1-1c0.5-0.4,1.1-0.6,1.8-0.3
	c1.1,0.6,2.5,0.6,3.8,0.1l0.5-0.2c1.3-0.5,2.2-1.5,2.6-2.8c0.2-0.6,0.8-1,1.5-1h1.5c0.6,0,1.3,0.4,1.5,1c0.4,1.3,1.4,2.3,2.6,2.8
	l0.5,0.2c1.3,0.5,2.6,0.4,3.8-0.1c0.6-0.3,1.4-0.2,1.9,0.3l1,1c0.5,0.5,0.6,1.3,0.3,1.9c-0.6,1.1-0.6,2.5-0.1,3.8l0.2,0.4
	c0.5,1.3,1.5,2.2,2.8,2.6c0.6,0.2,1,0.8,1,1.5L48.1,77.5z M7,59.2c0-4,3.2-7.3,7.2-7.3h1.5l0.1-1.4c0.1-8,6.8-14.5,14.8-14.4
	s14.6,6.8,14.5,14.9l0.1,2l1.9-0.6c3.8-1.4,7.9,0.6,9.3,4.5c1.4,3.8-0.6,7.9-4.5,9.3c-0.7,0.3-1.6,0.4-2.4,0.4h-2.4
	c-0.1-1-0.5-2-1.3-2.7l-1-1c-1.4-1.4-3.4-1.7-5.2-0.8c-0.4,0.2-0.8,0.2-1.3,0l-0.5-0.2c-0.4-0.2-0.7-0.5-0.8-0.9
	c-0.6-1.9-2.3-3.1-4.3-3.1h-1.5c-2,0-3.7,1.3-4.3,3.1c-0.1,0.4-0.4,0.7-0.8,0.9L25.6,62c-0.4,0.2-0.8,0.1-1.3,0
	c-1.8-0.8-3.9-0.5-5.2,0.8l-1,1c-0.7,0.7-1.3,1.7-1.4,2.7h-2.4C10.3,66.5,7,63.3,7,59.2L7,59.2z M89.7,7.9l1.5,2.9H49l1.5-2.9H89.7z
	 M48.1,22.5v-8.8h44v8.8H48.1L48.1,22.5z M48.1,34.2v-8.8h44v8.8H48.1z M48.1,45.9v-8.8h44v8.8H48.1z M59.7,57.7
	c-0.7-5-5-8.8-10.1-8.8c-0.5,0-0.9,0-1.5,0.1V49h44v8.8H59.7z M95,12l-3.4-7H48.7l-3.4,7v30.3c-5.3-8.2-16.2-10.5-24.4-5.1
	c-4.1,2.7-6.9,7-7.7,11.8c-5.6,0.6-9.7,5.6-9.1,11.3c0.6,5.2,5,9.2,10.3,9.1h2.9c0.1,0.3,0.1,0.6,0,0.8c-0.1,0.2-0.1,0.4-0.2,0.6
	c-0.2,0.4-0.5,0.7-0.9,0.8c-1.9,0.6-3.1,2.3-3.1,4.3v1.5c0,2,1.3,3.7,3.1,4.3c0.4,0.1,0.7,0.4,0.9,0.8c0.1,0.2,0.1,0.4,0.2,0.6
	c0.1,0.4,0.1,0.9-0.1,1.3c-0.8,1.8-0.5,3.9,0.8,5.2l1,1c1.4,1.4,3.4,1.7,5.2,0.8c0.4-0.2,0.8-0.2,1.3-0.1l0.4,0.4
	c0.4,0.2,0.7,0.5,0.8,0.9c0.6,1.9,2.3,3.1,4.3,3.1h1.5c2,0,3.7-1.3,4.3-3.1c0.1-0.4,0.4-0.7,0.8-0.9l0.5-0.2
	c0.4-0.2,0.8-0.1,1.3,0.1c1.8,0.8,3.9,0.5,5.2-0.8l1-1c1.4-1.4,1.7-3.4,0.8-5.2c-0.2-0.4-0.2-0.8,0-1.3c0.1-0.2,0.2-0.4,0.2-0.6
	c0.2-0.4,0.5-0.7,0.9-0.8c0.4-0.1,0.8-0.3,1.3-0.6h46V12z"/>
<path class="st0" d="M53.9,18.1c0,0.8-0.6,1.5-1.5,1.5c-0.8,0-1.5-0.6-1.5-1.5c0-0.8,0.6-1.5,1.5-1.5C53.3,16.7,53.9,17.3,53.9,18.1
	L53.9,18.1"/>
<path class="st0" d="M59.8,18.1c0,0.8-0.6,1.5-1.5,1.5c-0.8,0-1.5-0.6-1.5-1.5c0-0.8,0.6-1.5,1.5-1.5C59.1,16.7,59.8,17.3,59.8,18.1
	L59.8,18.1"/>
<path class="st0" d="M65.6,18.1c0,0.8-0.6,1.5-1.5,1.5c-0.8,0-1.5-0.6-1.5-1.5c0-0.8,0.6-1.5,1.5-1.5C65,16.7,65.6,17.3,65.6,18.1
	L65.6,18.1"/>
<path class="st0" d="M89.1,29.8c0,0.8-0.6,1.5-1.5,1.5c-0.8,0-1.5-0.6-1.5-1.5c0-0.8,0.6-1.5,1.5-1.5C88.5,28.4,89.1,29.1,89.1,29.8
	"/>
<path class="st0" d="M83.3,29.8c0,0.8-0.6,1.5-1.5,1.5c-0.8,0-1.5-0.6-1.5-1.5c0-0.8,0.6-1.5,1.5-1.5C82.7,28.4,83.3,29.1,83.3,29.8
	"/>
<path class="st0" d="M77.4,29.8c0,0.8-0.6,1.5-1.5,1.5c-0.8,0-1.5-0.6-1.5-1.5c0-0.8,0.6-1.5,1.5-1.5C76.8,28.4,77.4,29.1,77.4,29.8
	"/>
<path class="st0" d="M53.9,41.7c0,0.8-0.6,1.5-1.5,1.5c-0.8,0-1.5-0.6-1.5-1.5c0-0.8,0.6-1.5,1.5-1.5C53.3,40.2,53.9,40.8,53.9,41.7
	L53.9,41.7"/>
<path class="st0" d="M59.8,41.7c0,0.8-0.6,1.5-1.5,1.5c-0.8,0-1.5-0.6-1.5-1.5c0-0.8,0.6-1.5,1.5-1.5C59.1,40.2,59.8,40.8,59.8,41.7
	L59.8,41.7"/>
<path class="st0" d="M65.6,41.7c0,0.8-0.6,1.5-1.5,1.5c-0.8,0-1.5-0.6-1.5-1.5c0-0.8,0.6-1.5,1.5-1.5C65,40.2,65.6,40.8,65.6,41.7
	L65.6,41.7"/>
<path class="st0" d="M89.1,53.4c0,0.8-0.6,1.5-1.5,1.5c-0.8,0-1.5-0.6-1.5-1.5c0-0.8,0.6-1.5,1.5-1.5C88.5,51.9,89.1,52.5,89.1,53.4
	L89.1,53.4"/>
<path class="st0" d="M83.3,53.4c0,0.8-0.6,1.5-1.5,1.5c-0.8,0-1.5-0.6-1.5-1.5c0-0.8,0.6-1.5,1.5-1.5C82.7,51.9,83.3,52.5,83.3,53.4
	L83.3,53.4"/>
<path class="st0" d="M77.4,53.4c0,0.8-0.6,1.5-1.5,1.5c-0.8,0-1.5-0.6-1.5-1.5c0-0.8,0.6-1.5,1.5-1.5C76.8,51.9,77.4,52.5,77.4,53.4
	L77.4,53.4"/>
<path class="st0" d="M80.4,66.5h5.9v5.9h-5.9V66.5z M77.4,75.3h11.7V63.6H77.4V75.3z"/>
<path class="st0" d="M65.6,66.5h5.9v5.9h-5.9V66.5z M62.7,75.3h11.7V63.6H62.7V75.3z"/>
<polygon class="st0" points="11.4,12.7 11.4,31.3 14.3,31.3 14.3,12.7 17.5,17.5 20,15.8 12.8,5.3 5.7,15.8 8.2,17.5 "/>
<polygon class="st0" points="20,21.7 17.5,23.4 24.6,34 31.7,23.4 29.3,21.7 26,26.5 26,7.9 23.1,7.9 23.1,26.5 "/>
<polygon class="st0" points="34.9,12.7 34.9,31.3 37.8,31.3 37.8,12.7 41,17.5 43.5,15.8 36.4,5.3 29.3,15.8 31.7,17.5 "/>
<path class="st0" d="M30.5,43.1v-2.9c-6.5,0-11.7,5.2-11.8,11.7l0,0h2.9C21.6,47,25.6,43.1,30.5,43.1C30.4,43.1,30.4,43.1,30.5,43.1
	z"/>
</svg>
