<?xml version="1.0" encoding="utf-8"?>
<!-- Generator: Adobe Illustrator 21.0.0, SVG Export Plug-In . SVG Version: 6.00 Build 0)  -->
<svg version="1.1" id="Capa_1" xmlns="http://www.w3.org/2000/svg" xmlns:xlink="http://www.w3.org/1999/xlink" x="0px" y="0px"
	 viewBox="0 0 100 100" style="enable-background:new 0 0 100 100;" xml:space="preserve">
<style type="text/css">
	.st0{fill:#FFFFFF;}
</style>
<g>
	<path class="st0" d="M7.4,13.3l5,3.3V9.9L7.4,13.3z M15.5,14.8v4.7c0,0.6-0.3,1.1-0.8,1.4c-0.5,0.3-1.1,0.2-1.6-0.1l-9.3-6.2
		C3.3,14.3,3,13.8,3,13.3c0-0.5,0.3-1,0.7-1.3L13,5.7c0.5-0.3,1.1-0.3,1.6-0.1c0.5,0.3,0.8,0.8,0.8,1.4v4.7h7.8
		c0.5,0,0.9,0.2,1.2,0.5l0,0l0,0l0,0c0.2,0.2,0.3,0.5,0.3,0.9v9.4c0,0.9-0.7,1.6-1.6,1.6c-0.9,0-1.6-0.7-1.6-1.6v-7.8
		C21.7,14.8,15.5,14.8,15.5,14.8z"/>
	<path class="st0" d="M46.9,33l3.3,5l3.3-5H46.9z M48.4,8c0-0.9,0.7-1.6,1.6-1.6h32c0.9,0,1.6,0.7,1.6,1.6v15.6
		c0,0.9-0.7,1.6-1.6,1.6s-1.6-0.7-1.6-1.6v-14H51.5v20.3h4.9c0.6,0,1.1,0.3,1.4,0.8c0.3,0.5,0.2,1.1-0.1,1.6l-6.2,9.3
		c-0.3,0.4-0.8,0.7-1.3,0.7c-0.5,0-1-0.3-1.3-0.7l-6.2-9.3c-0.3-0.5-0.4-1.1-0.1-1.6c0.3-0.5,0.8-0.8,1.4-0.8h4.4V8z"/>
	<path class="st0" d="M24.7,37c1.8,0.8,2.6,2.9,1.8,4.7c-0.8,1.8-2.9,2.6-4.7,1.8c-1.8-0.8-2.6-2.9-1.8-4.7
		C20.9,37,22.9,36.2,24.7,37z M26,34.1c-3.3-1.5-7.3,0-8.8,3.3c-1.5,3.3,0,7.3,3.3,8.8s7.3,0,8.8-3.3C30.8,39.6,29.4,35.6,26,34.1z"
		/>
	<path class="st0" d="M81.6,39.2c2,1.1,2.8,3.6,1.7,5.7c-1.1,2-3.6,2.8-5.6,1.7c-2-1.1-2.8-3.6-1.7-5.6C77,38.9,79.5,38.1,81.6,39.2
		z M83.1,36.5c-3.5-1.9-8-0.6-9.9,2.9c-1.9,3.5-0.6,8,2.9,9.9c3.5,1.9,8,0.6,9.9-2.9C87.9,42.9,86.6,38.4,83.1,36.5z"/>
	<path class="st0" d="M20,29.8c-0.4,0.1-0.7,0.3-1.1,0.4l0.1,1.1c0.1,0.6-0.2,1.1-0.7,1.4c-0.8,0.6-1.5,1.2-2.2,2
		c-0.4,0.5-0.9,0.7-1.5,0.6l-1.1-0.2c-0.2,0.3-0.3,0.7-0.5,1.1l0.8,0.7c0.4,0.4,0.6,0.9,0.5,1.5c-0.2,1-0.2,2-0.1,2.9
		c0.1,0.6-0.2,1.1-0.6,1.5l-0.9,0.6c0.1,0.4,0.3,0.7,0.4,1.1l1.1-0.1c0.6-0.1,1.1,0.2,1.4,0.7c0.6,0.8,1.2,1.5,2,2.2
		c0.5,0.4,0.7,0.9,0.6,1.5l-0.2,1.1c0.3,0.2,0.7,0.3,1.1,0.5l0.7-0.8c0.4-0.4,0.9-0.6,1.5-0.5c1,0.2,2,0.2,2.9,0.1
		c0.6-0.1,1.1,0.2,1.5,0.6l0.6,0.9c0.4-0.1,0.7-0.3,1.1-0.4l-0.1-1.1c-0.1-0.6,0.2-1.1,0.7-1.4c0.8-0.6,1.5-1.2,2.2-2
		c0.4-0.5,0.9-0.7,1.5-0.6l1.1,0.2c0.2-0.3,0.3-0.7,0.5-1.1l-0.8-0.7c-0.4-0.4-0.6-0.9-0.5-1.5c0.2-1,0.2-2,0.1-2.9
		c-0.1-0.6,0.2-1.1,0.6-1.5l0.9-0.6c-0.1-0.4-0.3-0.7-0.4-1.1l-1.1,0.1c-0.6,0.1-1.1-0.2-1.4-0.7c-0.6-0.8-1.2-1.5-2-2.2
		c-0.5-0.4-0.7-0.9-0.6-1.5l0.2-1.1c-0.3-0.2-0.7-0.3-1.1-0.5l-0.7,0.8c-0.4,0.4-0.9,0.6-1.5,0.5c-1-0.2-2-0.2-2.9-0.1
		c-0.6,0.1-1.1-0.2-1.5-0.6L20,29.8z M15.8,30.7l-0.1-1.3c-0.1-0.6,0.3-1.2,0.8-1.5c1.2-0.7,2.5-1.1,3.8-1.4
		c0.6-0.1,1.2,0.1,1.6,0.6l0.8,1c0.7,0,1.4,0,2.1,0.1l0.8-1c0.4-0.5,1-0.7,1.6-0.5c1.3,0.4,2.6,0.9,3.7,1.7c0.5,0.3,0.8,0.9,0.7,1.5
		l-0.2,1.3c0.5,0.5,1,1,1.4,1.5l1.3-0.1c0.6-0.1,1.2,0.3,1.5,0.8c0.7,1.2,1.1,2.5,1.4,3.8c0.1,0.6-0.1,1.2-0.6,1.6l-1,0.8
		c0,0.7,0,1.4-0.1,2.1l1,0.8c0.5,0.4,0.7,1,0.5,1.6c-0.4,1.3-0.9,2.6-1.7,3.7c-0.3,0.5-0.9,0.8-1.5,0.7l-1.3-0.2
		c-0.5,0.5-1,1-1.5,1.4l0.1,1.3c0.1,0.6-0.3,1.2-0.8,1.5c-1.2,0.7-2.5,1.1-3.8,1.4c-0.6,0.1-1.2-0.1-1.6-0.6l-0.8-1
		c-0.7,0-1.4,0-2.1-0.1l-0.8,1c-0.4,0.5-1,0.7-1.6,0.5c-1.3-0.4-2.6-0.9-3.7-1.7c-0.5-0.3-0.8-0.9-0.7-1.5l0.2-1.3
		c-0.5-0.5-1-1-1.4-1.5l-1.3,0.1c-0.6,0.1-1.2-0.3-1.5-0.8c-0.7-1.2-1.1-2.5-1.4-3.8c-0.1-0.6,0.1-1.2,0.6-1.6l1-0.8
		c0-0.7,0-1.4,0.1-2.1l-1-0.8c-0.5-0.4-0.7-1-0.5-1.6c0.4-1.3,0.9-2.6,1.7-3.7c0.3-0.5,0.9-0.8,1.5-0.7l1.3,0.2
		C14.7,31.6,15.3,31.1,15.8,30.7z"/>
	<path class="st0" d="M76.8,30.7c-0.5,0.1-1,0.3-1.6,0.5l0,1.4c0,0.6-0.3,1.1-0.8,1.4c-1,0.6-1.9,1.3-2.6,2.1
		c-0.4,0.4-1,0.6-1.5,0.5L69,36.2c-0.3,0.5-0.6,0.9-0.8,1.4l1,1c0.4,0.4,0.6,1,0.4,1.5c-0.3,1.1-0.4,2.2-0.4,3.4
		c0,0.6-0.3,1.1-0.7,1.4l-1.2,0.7c0.1,0.5,0.3,1,0.5,1.6l1.4,0c0.6,0,1.1,0.3,1.4,0.8c0.6,1,1.3,1.9,2.1,2.6c0.4,0.4,0.6,1,0.5,1.5
		l-0.3,1.3c0.5,0.3,0.9,0.6,1.4,0.8l1-1c0.4-0.4,1-0.6,1.5-0.4c1.1,0.3,2.2,0.4,3.4,0.4c0.6,0,1.1,0.3,1.4,0.7l0.7,1.2
		c0.5-0.1,1-0.3,1.6-0.5l0-1.4c0-0.6,0.3-1.1,0.8-1.4c1-0.6,1.9-1.3,2.6-2.1c0.4-0.4,1-0.6,1.5-0.5l1.3,0.3c0.3-0.5,0.6-0.9,0.8-1.4
		l-1-1c-0.4-0.4-0.6-1-0.4-1.5c0.3-1.1,0.4-2.2,0.4-3.4c0-0.6,0.3-1.1,0.7-1.4l1.2-0.7c-0.1-0.5-0.3-1-0.5-1.6l-1.4,0
		c-0.6,0-1.1-0.3-1.4-0.8c-0.6-1-1.3-1.9-2.1-2.6c-0.4-0.4-0.6-1-0.5-1.5l0.3-1.3c-0.5-0.3-0.9-0.6-1.4-0.8l-1,1
		c-0.4,0.4-1,0.6-1.5,0.4c-1.1-0.3-2.2-0.4-3.4-0.4c-0.6,0-1.1-0.3-1.4-0.7L76.8,30.7z M72.2,31.7l0-1.5c0-0.6,0.3-1.2,0.9-1.4
		c1.4-0.6,2.8-1.1,4.3-1.3c0.6-0.1,1.2,0.2,1.5,0.7l0.8,1.3c0.8,0,1.7,0.1,2.5,0.3l1.1-1.1c0.4-0.4,1.1-0.6,1.7-0.4
		c1.4,0.5,2.8,1.3,4,2.2c0.5,0.4,0.7,1,0.6,1.6l-0.4,1.5c0.6,0.6,1.1,1.3,1.6,2l1.5,0c0.6,0,1.2,0.3,1.4,0.9
		c0.6,1.4,1.1,2.8,1.3,4.3c0.1,0.6-0.2,1.2-0.7,1.5L93,43.1c0,0.8-0.1,1.7-0.3,2.5l1.1,1.1c0.4,0.4,0.6,1.1,0.4,1.7
		c-0.5,1.4-1.2,2.8-2.2,4c-0.4,0.5-1,0.7-1.6,0.6l-1.5-0.4c-0.6,0.6-1.3,1.1-2,1.6l0,1.5c0,0.6-0.3,1.2-0.9,1.4
		c-1.4,0.6-2.8,1.1-4.3,1.3c-0.6,0.1-1.2-0.2-1.5-0.7l-0.8-1.3c-0.8,0-1.7-0.1-2.5-0.3l-1.1,1.1c-0.4,0.4-1.1,0.6-1.7,0.4
		c-1.4-0.5-2.8-1.3-4-2.2c-0.5-0.4-0.7-1-0.6-1.6l0.4-1.5c-0.6-0.6-1.1-1.3-1.6-2l-1.5,0c-0.6,0-1.2-0.3-1.4-0.9
		c-0.6-1.4-1.1-2.8-1.3-4.3c-0.1-0.6,0.2-1.2,0.7-1.5l1.3-0.8c0-0.8,0.1-1.7,0.3-2.5l-1.1-1.1c-0.4-0.4-0.6-1.1-0.4-1.7
		c0.5-1.4,1.2-2.8,2.2-4c0.4-0.5,1-0.7,1.6-0.6l1.5,0.4C70.8,32.7,71.5,32.2,72.2,31.7L72.2,31.7z"/>
	<path class="st0" d="M49.1,58.3c2.3,0,4.2,1.9,4.2,4.2c0,2.3-1.9,4.2-4.2,4.2c-2.3,0-4.2-1.9-4.2-4.2
		C44.9,60.1,46.8,58.3,49.1,58.3z M49.1,55.2c-4,0-7.3,3.3-7.3,7.3s3.3,7.3,7.3,7.3c4,0,7.3-3.3,7.3-7.3S53.1,55.2,49.1,55.2z"/>
	<path class="st0" d="M79.6,64v8.3c0,0.9,0.7,1.6,1.6,1.6s1.6-0.7,1.6-1.6V64c0-0.9-0.7-1.6-1.6-1.6S79.6,63.1,79.6,64z"/>
	<path class="st0" d="M49.9,50c-0.5,0-1.1,0-1.6,0l-0.4,1.3c-0.2,0.6-0.6,1-1.1,1.1c-1.1,0.3-2.2,0.7-3.1,1.3
		c-0.5,0.3-1.1,0.3-1.6,0l-1.2-0.7c-0.4,0.4-0.8,0.7-1.1,1.1l0.7,1.2c0.3,0.5,0.3,1.1,0,1.6c-0.6,1-1,2-1.3,3.1
		c-0.1,0.6-0.6,1-1.1,1.1l-1.3,0.4c0,0.5,0,1.1,0,1.6l1.3,0.4c0.6,0.2,1,0.6,1.1,1.1c0.3,1.1,0.7,2.2,1.3,3.1c0.3,0.5,0.3,1.1,0,1.6
		l-0.7,1.2c0.4,0.4,0.7,0.8,1.1,1.1l1.2-0.7c0.5-0.3,1.1-0.3,1.6,0c1,0.6,2,1,3.1,1.3c0.6,0.1,1,0.6,1.1,1.1l0.4,1.3
		c0.5,0,1.1,0,1.6,0l0.4-1.3c0.2-0.6,0.6-1,1.1-1.1c1.1-0.3,2.2-0.7,3.1-1.3c0.5-0.3,1.1-0.3,1.6,0l1.2,0.7c0.4-0.4,0.8-0.7,1.1-1.1
		l-0.7-1.2c-0.3-0.5-0.3-1.1,0-1.6c0.6-1,1-2,1.3-3.1c0.1-0.6,0.6-1,1.1-1.1l1.3-0.4c0-0.5,0-1.1,0-1.6l-1.3-0.4
		c-0.6-0.2-1-0.6-1.1-1.1C58.9,59,58.4,58,57.8,57c-0.3-0.5-0.3-1.1,0-1.6l0.7-1.2c-0.4-0.4-0.7-0.8-1.1-1.1l-1.2,0.7
		c-0.5,0.3-1.1,0.3-1.6,0c-1-0.6-2-1-3.1-1.3c-0.6-0.1-1-0.6-1.1-1.1L49.9,50z M45.1,49.6l0.4-1.5c0.2-0.6,0.7-1,1.3-1.1
		c1.5-0.2,3-0.2,4.5,0c0.6,0.1,1.1,0.5,1.3,1.1l0.4,1.5c0.8,0.2,1.6,0.6,2.3,1l1.3-0.8c0.5-0.3,1.2-0.3,1.7,0.1
		c1.2,0.9,2.3,2,3.2,3.2c0.4,0.5,0.4,1.2,0.1,1.7l-0.8,1.3c0.4,0.7,0.7,1.5,1,2.3l1.5,0.4c0.6,0.2,1,0.7,1.1,1.3
		c0.2,1.5,0.2,3,0,4.5c-0.1,0.6-0.5,1.1-1.1,1.3l-1.5,0.4c-0.2,0.8-0.6,1.6-1,2.3l0.8,1.3c0.3,0.5,0.3,1.2-0.1,1.7
		c-0.9,1.2-2,2.3-3.2,3.2c-0.5,0.4-1.2,0.4-1.7,0.1l-1.3-0.8c-0.7,0.4-1.5,0.7-2.3,1l-0.4,1.5c-0.2,0.6-0.7,1-1.3,1.1
		c-1.5,0.2-3,0.2-4.5,0c-0.6-0.1-1.1-0.5-1.3-1.1l-0.4-1.5c-0.8-0.2-1.6-0.6-2.3-1l-1.3,0.8c-0.5,0.3-1.2,0.3-1.7-0.1
		c-1.2-0.9-2.3-2-3.2-3.2c-0.4-0.5-0.4-1.2-0.1-1.7l0.8-1.3c-0.4-0.7-0.7-1.5-1-2.3L34.8,66c-0.6-0.2-1-0.7-1.1-1.3
		c-0.2-1.5-0.2-3,0-4.5c0.1-0.6,0.5-1.1,1.1-1.3l1.5-0.4c0.2-0.8,0.6-1.6,1-2.3l-0.8-1.3c-0.3-0.5-0.3-1.2,0.1-1.7
		c0.9-1.2,2-2.3,3.2-3.2c0.5-0.4,1.2-0.4,1.7-0.1l1.3,0.8C43.5,50.2,44.3,49.9,45.1,49.6z"/>
	<path class="st0" d="M81.1,80c3.4,0,6.2,2.8,6.2,6.2s-2.8,6.2-6.2,6.2s-6.2-2.8-6.2-6.2S77.7,80,81.1,80z M81.1,76.9
		c-5.2,0-9.3,4.2-9.3,9.3c0,5.2,4.2,9.3,9.3,9.3s9.3-4.2,9.3-9.3C90.5,81.1,86.3,76.9,81.1,76.9z"/>
	<path class="st0" d="M19.2,67.6h6.6l-3.3-5L19.2,67.6z M21,70.7h-4.7c-0.6,0-1.1-0.3-1.4-0.8c-0.3-0.5-0.2-1.1,0.1-1.6l6.2-9.3
		c0.3-0.4,0.8-0.7,1.3-0.7c0.5,0,1,0.3,1.3,0.7l6.2,9.3c0.3,0.5,0.3,1.1,0.1,1.6c-0.3,0.5-0.8,0.8-1.4,0.8h-4.7v21.8h24.3v-7.5
		c0-0.9,0.7-1.6,1.6-1.6s1.6,0.7,1.6,1.6v8.3c0,0.1,0,0.3-0.1,0.4c0,0.1,0.1,0.3,0.1,0.4c0,0.9-0.7,1.6-1.6,1.6H22.6
		c-0.9,0-1.6-0.7-1.6-1.6c0-0.3,0.1-0.6,0.2-0.8H21L21,70.7z"/>
</g>
</svg>
