<?xml version="1.0" encoding="utf-8"?>
<!-- Generator: Adobe Illustrator 21.0.0, SVG Export Plug-In . SVG Version: 6.00 Build 0)  -->
<svg version="1.1" id="Capa_1" xmlns="http://www.w3.org/2000/svg" xmlns:xlink="http://www.w3.org/1999/xlink" x="0px" y="0px"
	 viewBox="0 0 100 100" style="enable-background:new 0 0 100 100;" xml:space="preserve">
<style type="text/css">
	.st0{fill:#D37522;}
</style>
<path class="st0" d="M5.4,60.9C5.4,60,6.1,59.3,7,59.2c0.1,0,0.1,0,0.2,0H14v31H5.4V60.9z M17.5,17.9h24.1v72.3H17.5V17.9z
	 M67.4,59.2h25.8c0.9-0.1,1.7,0.6,1.7,1.5c0,0.1,0,0.1,0,0.2v29.3H45v-31H67.4z M70.2,38.5h11.7l0.9,17.2H69.2L70.2,38.5z
	 M81.2,28.2l0.3,6.9H70.2l0.5-6.9L81.2,28.2z M3.7,93.7h93c0.9,0.1,1.7-0.6,1.7-1.5c0-0.1,0-0.1,0-0.2v-31c0.1-2.8-2.2-5.1-5-5.2
	c-0.1,0-0.1,0-0.2,0h-6.9l-1.7-29.5c-0.1-0.9-0.8-1.6-1.7-1.5H69.2c-0.9,0-1.6,0.7-1.7,1.5l-1.7,29.5H45V16.2
	c0.1-0.9-0.6-1.7-1.5-1.7c-0.1,0-0.1,0-0.2,0H15.8c-0.9-0.1-1.7,0.6-1.7,1.5c0,0.1,0,0.1,0,0.2v39.6H7.2c-2.8-0.1-5.1,2.2-5.2,5
	c0,0.1,0,0.1,0,0.2v31c-0.1,0.9,0.6,1.7,1.5,1.7C3.6,93.7,3.7,93.7,3.7,93.7z"/>
<path class="st0" d="M74.3,12.7v8.6c0,0.9,0.8,1.7,1.7,1.7s1.7-0.8,1.7-1.7v-8.6c0-0.9-0.8-1.7-1.7-1.7S74.3,11.8,74.3,12.7
	L74.3,12.7z"/>
<path class="st0" d="M51.9,66.1h10.3V73H51.9V66.1z M50.2,76.4H64c0.9,0.1,1.7-0.6,1.7-1.5c0-0.1,0-0.1,0-0.2V64.4
	c0.1-0.9-0.6-1.7-1.5-1.7c-0.1,0-0.1,0-0.2,0H50.2c-0.9-0.1-1.7,0.6-1.7,1.5c0,0.1,0,0.1,0,0.2v10.3c-0.1,0.9,0.6,1.7,1.5,1.7
	C50.1,76.4,50.2,76.4,50.2,76.4z"/>
<path class="st0" d="M77.8,66.1h10.3V73H77.8V66.1z M76.1,76.4h13.8c0.9,0.1,1.7-0.6,1.7-1.5c0-0.1,0-0.1,0-0.2V64.4
	c0.1-0.9-0.6-1.7-1.5-1.7c-0.1,0-0.1,0-0.2,0H76.1c-0.9-0.1-1.7,0.6-1.7,1.5c0,0.1,0,0.1,0,0.2v10.3c-0.1,0.9,0.6,1.7,1.5,1.7
	C75.9,76.4,76,76.4,76.1,76.4z"/>
<path class="st0" d="M36.4,24.8H22.7c-0.9,0-1.7,0.8-1.7,1.7c0,0.9,0.8,1.7,1.7,1.7h13.8c0.9,0,1.7-0.8,1.7-1.7
	C38.2,25.5,37.4,24.8,36.4,24.8L36.4,24.8z"/>
<path class="st0" d="M36.4,31.7H22.7c-0.9,0-1.7,0.8-1.7,1.7c0,0.9,0.8,1.7,1.7,1.7c0,0,0,0,0,0h13.8c0.9,0,1.7-0.8,1.7-1.7
	C38.2,32.4,37.4,31.7,36.4,31.7C36.4,31.7,36.4,31.7,36.4,31.7z"/>
<path class="st0" d="M36.4,38.5H22.7c-0.9,0-1.7,0.8-1.7,1.7c0,0.9,0.8,1.7,1.7,1.7c0,0,0,0,0,0h13.8c0.9,0,1.7-0.8,1.7-1.7
	C38.2,39.3,37.4,38.6,36.4,38.5C36.4,38.5,36.4,38.5,36.4,38.5z"/>
<path class="st0" d="M36.4,76.4H22.7c-0.9,0-1.7,0.8-1.7,1.7s0.8,1.7,1.7,1.7l0,0h13.8c0.9,0,1.7-0.8,1.7-1.7S37.4,76.4,36.4,76.4z"
	/>
</svg>
