<?xml version="1.0" encoding="utf-8"?>
<!-- Generator: Adobe Illustrator 21.0.0, SVG Export Plug-In . SVG Version: 6.00 Build 0)  -->
<svg version="1.1" id="Capa_1" xmlns="http://www.w3.org/2000/svg" xmlns:xlink="http://www.w3.org/1999/xlink" x="0px" y="0px"
	 viewBox="0 0 100 100" style="enable-background:new 0 0 100 100;" xml:space="preserve">
<style type="text/css">
	.st0{fill:#FFFFFF;}
</style>
<path class="st0" d="M49.9,65c11.9,0,22.2,8.5,24.3,20.3H55.6c0.9-3.1-1-6.3-4.1-7.1c-3.1-0.7-6.3,1-7.1,4.1c-0.2,1-0.2,2,0,3H25.8
	C27.8,73.6,38.1,65,49.9,65z M25.7,43.1c4-0.4,7.7-2.1,10.5-5l8.7,18.6l0,0c-3.8,0.6-7.7,1.9-11,3.8L25.7,43.1z M23.8,17.1
	c4.8,0,8.7,3.8,8.7,8.7s-3.8,8.7-8.7,8.7s-8.7-3.8-8.7-8.7C15.2,21,19,17.1,23.8,17.1C23.8,17.1,23.8,17,23.8,17.1L23.8,17.1z
	 M25.3,94H95v-8.7H83.1c-2-15-13.6-26.7-28.6-28.7L42,30.1h27.4c2.1,10.2,11,17.5,21.3,17.5H95v-8.7h-4.3c-7.2,0-13-5.8-13-13.1
	c0-7.2,5.8-13,13-13H95V4h-4.3c-10.4,0-19.3,7.3-21.3,17.5H40.8C38.4,12,28.9,6.5,19.6,8.8S4.6,20.6,7,30c1.1,4.5,4,8.3,7.9,10.6
	l11.9,25.1c-5.4,5.2-8.9,12.1-9.9,19.6H5V94H25.3z"/>
</svg>
