<?xml version="1.0" encoding="utf-8"?>
<!-- Generator: Adobe Illustrator 21.0.0, SVG Export Plug-In . SVG Version: 6.00 Build 0)  -->
<svg version="1.1" id="Capa_1" xmlns="http://www.w3.org/2000/svg" xmlns:xlink="http://www.w3.org/1999/xlink" x="0px" y="0px"
	 viewBox="0 0 93.9 94.9" style="enable-background:new 0 0 93.9 94.9;" xml:space="preserve">
<style type="text/css">
	.st0{fill:#FFFFFF;}
</style>
<title>FRK-servicios-servicioysoportedeautomatizacion</title>
<path class="st0" d="M91,24.9L91,24.9c0-1.1-0.5-2.2-1.3-3c-0.9-0.9-2.1-1.4-3.3-1.3c-4.2,0.2-7.5,3.7-7.4,7.9l0.2,6.5l-1,4
	c-1.4,0.1-2.7,0.7-3.7,1.7l-7.2,7.2l-2.4,0.4c-1.7,0.3-3.4,1.1-4.6,2.4l-5,5c-1.6,1.6-2.5,3.7-2.5,5.9l-0.2,8
	c-2.4,1-4.1,3.3-4.1,5.9l-0.1,10.9c0,3.6,2.8,6.5,6.4,6.5L72.9,93c3.5,0,6.4-2.8,6.4-6.4l0.1-10.9c0-2.6-1.5-5-3.8-6
	c0.3-1.7,1.1-3.2,2.3-4.4l8.5-8.5c2.3-2.3,3.7-5.2,4-8.4l0.9-8.5c0.1-0.3,0.1-0.7,0.1-1v-0.3L91,24.9z M75.5,75.7l-0.1,10.9
	c0,0.6-0.3,1.3-0.7,1.7c-0.5,0.5-1.1,0.7-1.7,0.7l-18.1-0.2c-0.6,0-1.3-0.3-1.7-0.7c-0.5-0.5-0.7-1.1-0.7-1.7l0.1-10.9
	c0-1.4,1.1-2.4,2.5-2.4c0,0,0,0,0,0l18.1,0.2c0.6,0,1.3,0.3,1.7,0.7C75.3,74.4,75.5,75,75.5,75.7z M71.7,69.2L56.6,69l0.2-7.5
	c0-1.2,0.5-2.3,1.3-3.1l5-5c0.7-0.7,1.5-1.1,2.5-1.3l3-0.5c0.1,0,0.3-0.1,0.4-0.1c0.2-0.1,0.3-0.2,0.5-0.3l7.8-7.8
	c0.3-0.3,0.7-0.5,1.2-0.5l0,0c0.9,0,1.7,0.8,1.7,1.7c0,0.5-0.2,0.9-0.5,1.2l-8.8,8.8c-0.8,0.8-0.8,2,0,2.8c0.8,0.8,2,0.8,2.8,0
	c0,0,0,0,0,0l8.8-8.8c2.2-2.2,2.2-5.8,0-8.1c-0.2-0.2-0.4-0.3-0.6-0.5l1.1-4.6c0,0,0-0.1,0-0.2v-0.1c0,0,0-0.1,0-0.1V35l-0.2-6.8
	c-0.1-2,1.5-3.7,3.5-3.8c0.1,0,0.3,0,0.4,0.1c0.1,0.1,0.2,0.2,0.2,0.4l0.4,13.6l-1,9.4c-0.2,2.3-1.2,4.4-2.9,6l-8.5,8.5
	C73.3,64.3,72.1,66.7,71.7,69.2z"/>
<path class="st0" d="M69.3,77.1c0,0.9,0.3,1.7,1,2.3c0.6,0.5,1.3,0.8,2.1,0.8c1.7,0,3-1.3,3.1-2.9c0,0,0-0.1,0-0.1
	C75.4,73,69.3,73,69.3,77.1z"/>
<path class="st0" d="M41.8,69.5l-0.2-8c0-2.2-0.9-4.3-2.5-5.9l-5-5c-1.3-1.3-2.9-2.1-4.6-2.4l-2.4-0.4L20,40.6c-1-1-2.3-1.6-3.7-1.7
	l-1-4l0.2-6.5c0.1-4.2-3.2-7.7-7.4-7.9c-1.2,0-2.4,0.5-3.3,1.3c-0.8,0.8-1.3,1.9-1.3,3L3,38.7v0.2c0,0.3,0,0.7,0.1,1L4,48.5
	c0.3,3.2,1.7,6.1,4,8.4l8.5,8.5c1.2,1.2,2,2.8,2.3,4.4c-2.4,1-3.9,3.4-3.8,6l0.1,10.9c0.1,3.6,3,6.4,6.5,6.3l18.1-0.2
	c3.5-0.1,6.4-3,6.3-6.5l-0.1-10.9C45.9,72.8,44.3,70.4,41.8,69.5z M11.3,35.3c0,0.1,0,0.2,0,0.3l1.1,4.5c-0.2,0.2-0.4,0.3-0.6,0.5
	c-2.2,2.2-2.2,5.8,0,8.1l8.8,8.8c0.8,0.8,2,0.8,2.8,0c0.8-0.8,0.8-2,0-2.8c0,0,0,0,0,0l-8.8-8.8c-0.3-0.3-0.5-0.8-0.5-1.2
	c0-0.5,0.2-0.9,0.5-1.2c0.3-0.3,0.7-0.5,1.2-0.5l0,0c0.5,0,0.9,0.2,1.2,0.5l7.7,7.6l0.1,0.2l0,0c0.1,0.1,0.3,0.2,0.4,0.3l0.1,0.1
	l0,0c0.1,0,0.2,0.1,0.3,0.1l3,0.5c0.9,0.2,1.8,0.6,2.5,1.3l5,5c0.8,0.8,1.3,2,1.3,3.1l0.3,7.5l-15.1,0.2c-0.4-2.5-1.6-4.9-3.4-6.7
	L10.9,54c-1.6-1.6-2.6-3.7-2.9-6l-0.9-8.3c0,0,0-0.1,0-0.2L7,38.6L7.4,25c0-0.1,0.1-0.3,0.1-0.4c0.1-0.1,0.3-0.2,0.4-0.1
	c2,0.1,3.6,1.7,3.5,3.8l-0.2,6.8C11.3,35.2,11.3,35.2,11.3,35.3z M42,86.3c0,0.6-0.2,1.3-0.7,1.7l0,0c-0.4,0.5-1.1,0.7-1.7,0.7
	l-18,0.2c-1.3,0-2.5-1.1-2.5-2.4l-0.1-10.9c0-0.6,0.2-1.3,0.7-1.7c0.4-0.5,1.1-0.7,1.7-0.7L39.5,73c1.3,0,2.4,1.1,2.4,2.4L42,86.3z"
	/>
<path class="st0" d="M19,77.1c0,0.9,0.3,1.7,1,2.3c0.6,0.5,1.3,0.8,2.1,0.8c1.7,0,3-1.3,3.1-2.9c0,0,0-0.1,0-0.1
	C25.1,73,19,73,19,77.1z"/>
<path class="st0" d="M27,31.5h2.5c0.3,1,0.7,2,1.2,2.9L29,36.1c-1.4,1.4-1.4,3.7,0,5.2c0,0,0,0,0,0l2.8,2.8c1.5,1.4,3.7,1.4,5.2,0
	l1.7-1.7c0.9,0.5,1.9,0.9,2.9,1.2V46c0,2,1.6,3.7,3.7,3.7h4c2-0.1,3.6-1.7,3.6-3.7v-2.4c1-0.3,2-0.7,2.9-1.2l1.7,1.7
	c1.5,1.4,3.7,1.4,5.2,0l2.8-2.8c1.4-1.4,1.4-3.7,0-5.2c0,0,0,0,0,0l-1.7-1.7c0.5-0.9,0.9-1.9,1.2-2.9h2.4c2,0,3.6-1.7,3.6-3.7v-4
	c0-2-1.6-3.7-3.7-3.7l0,0h-2.4c-0.3-1-0.7-2-1.2-2.9l1.7-1.7c1.4-1.4,1.4-3.7,0-5.2l-2.8-2.8c-1.5-1.4-3.7-1.4-5.2,0l-1.7,1.7
	c-0.9-0.5-1.9-0.9-2.9-1.2V5.6c0-2-1.6-3.7-3.7-3.6h-4c-2,0-3.7,1.6-3.7,3.7v2.4c-1,0.3-2,0.7-2.9,1.2l-1.7-1.7
	c-1.4-1.4-3.7-1.4-5.2,0l-2.8,2.8c-1.4,1.4-1.4,3.7,0,5.2c0,0,0,0,0,0l1.7,1.7c-0.5,0.9-0.9,1.9-1.2,2.9H27c-2,0-3.7,1.6-3.7,3.7v4
	c0,1,0.4,1.9,1.1,2.6C25.1,31.1,26,31.5,27,31.5z M44.9,11.1L45,11l0.1-0.2l0.2-0.3c0,0,0.1-0.1,0.1-0.1c0-0.1,0.1-0.2,0.1-0.2V10
	c0-0.1,0-0.2,0-0.2c0-0.1,0-0.1,0-0.2V6h3.3v3.8c0,0.1,0,0.2,0,0.3c0,0.1,0,0.2,0.1,0.2c0,0.1,0,0.1,0,0.2c0,0.1,0.1,0.1,0.1,0.2
	l0.1,0.1l0.2,0.2l0.1,0.1l0.2,0.1l0.1,0.1c0,0,0.1,0.1,0.2,0.1l0.2,0.1l0.2,0.1h0.1c1.7,0.4,3.3,1,4.8,1.9c0.1,0,0.2,0.1,0.2,0.1
	l0.2,0.1c0.4,0.2,0.9,0.2,1.3,0l0.2-0.1c0.2-0.1,0.4-0.2,0.5-0.3l2.7-2.6l2.3,2.4L60,15.4l-0.2,0.1l0,0l0,0
	c-0.2,0.2-0.3,0.4-0.4,0.6c-0.1,0.2-0.1,0.5-0.1,0.8c0,0.2,0,0.5,0.1,0.7v0.1l0.1,0.3c0.9,1.4,1.5,2.9,1.9,4.6v0.1
	c0,0.2,0.1,0.3,0.2,0.5v0.1c0.1,0.2,0.2,0.3,0.4,0.4l0.1,0.1c0.2,0.1,0.4,0.2,0.6,0.3c0.1,0,0.3,0.1,0.4,0.1H67v3.3h-3.7h-0.2
	c-0.1,0-0.2,0-0.3,0.1h-0.2l-0.2,0.1h-0.1c-0.1,0-0.1,0.1-0.2,0.2L62,28l-0.1,0.1l0.3,0.4l0,0l-0.4-0.3l-0.1,0.1
	c0,0.1-0.1,0.1-0.1,0.2l-0.1,0.1c0,0.1-0.1,0.2-0.1,0.3V29c-0.4,1.6-1,3.2-1.9,4.6c-0.1,0.1-0.1,0.2-0.1,0.3v0.1
	c-0.1,0.2-0.1,0.4-0.1,0.7v0.1c0,0.3,0.1,0.5,0.2,0.8c0.1,0.2,0.2,0.4,0.4,0.6l0.1,0.2h0l2.4,2.4L60.1,41l-2.7-2.7l0,0
	c-0.2-0.1-0.3-0.2-0.5-0.3c-0.2-0.1-0.5-0.1-0.8-0.1c-0.3,0-0.5,0.1-0.7,0.2c-0.1,0-0.2,0.1-0.3,0.2c-1.4,0.9-3,1.5-4.6,1.9h-0.1
	l-0.2,0.1l-0.2,0.1c-0.1,0-0.1,0.1-0.2,0.1c0,0-0.1,0.1-0.1,0.1l-0.2,0.1l-0.1,0.2c0,0-0.1,0.1-0.1,0.1l-0.1,0.2L49,41.2
	c0,0.1,0,0.1-0.1,0.2c0,0.1,0,0.1,0,0.2c0,0.1,0,0.2,0,0.2v3.8h-3.4V42c0,0,0-0.1,0-0.1c0-0.1,0-0.2,0-0.2c0-0.1,0-0.2-0.1-0.2v-0.1
	l-0.1-0.2c0,0,0-0.1-0.1-0.2l-0.1-0.2L45,40.6l-0.1-0.1l-0.2-0.1l-0.2-0.1l-0.1-0.1l-0.3-0.1H44c-1.6-0.4-3.2-1-4.6-1.9L39.1,38
	c-0.2-0.1-0.4-0.1-0.7-0.1h-0.1c-0.5,0-0.9,0.2-1.3,0.5L34.3,41L32,38.7l2.4-2.4l0.2-0.2l0,0l0,0c0.2-0.2,0.3-0.4,0.4-0.6
	c0.1-0.2,0.1-0.5,0.1-0.8c0-0.2,0-0.5-0.1-0.7v-0.1l-0.1-0.3c-0.9-1.4-1.5-3-1.9-4.6v-0.1c0-0.1,0-0.1-0.1-0.2
	c0-0.1-0.1-0.1-0.1-0.2l-0.1-0.1l-0.1-0.2c0-0.1-0.1-0.1-0.1-0.1l-0.2-0.2l-0.1-0.1L32,27.7l-0.2-0.1l-0.2-0.1h-0.2
	c-0.1,0-0.2,0-0.2,0h-3.9v-3.3h3.9c0.1,0,0.2,0,0.4-0.1h0.1c0.4-0.2,0.8-0.5,1-0.9c0.1-0.2,0.2-0.3,0.2-0.5v-0.1
	c0.4-1.7,1-3.2,2-4.7c0.1-0.1,0.1-0.2,0.1-0.3v-0.1c0.1-0.2,0.1-0.4,0.1-0.6v-0.1c0-0.3-0.1-0.5-0.2-0.8c-0.1-0.2-0.2-0.4-0.4-0.6
	l-0.1-0.2h-0.1L32,13l2.3-2.3l2.6,2.6l0.1,0.1c0.2,0.1,0.3,0.3,0.5,0.3l0.1,0.1c0.4,0.2,0.9,0.2,1.3,0l0.2-0.1
	c0.1,0,0.1-0.1,0.2-0.1c1.4-0.9,3-1.6,4.6-1.9h0.1c0.1,0,0.2,0,0.3-0.1l0.2-0.1l0.1-0.1C44.8,11.3,44.8,11.2,44.9,11.1z"/>
<path class="st0" d="M38.4,25.8c0,4.9,4,8.8,8.8,8.8s8.8-4,8.8-8.8c0-4.9-4-8.8-8.8-8.8C42.3,17,38.4,21,38.4,25.8
	C38.4,25.8,38.4,25.8,38.4,25.8z M42.4,25.8c0-2.7,2.2-4.8,4.8-4.8c2.7,0,4.8,2.2,4.8,4.8s-2.2,4.8-4.8,4.8
	C44.6,30.6,42.4,28.5,42.4,25.8z"/>
</svg>
