<?xml version="1.0" encoding="utf-8"?>
<!-- Generator: Adobe Illustrator 21.0.0, SVG Export Plug-In . SVG Version: 6.00 Build 0)  -->
<svg version="1.1" id="Capa_1" xmlns="http://www.w3.org/2000/svg" xmlns:xlink="http://www.w3.org/1999/xlink" x="0px" y="0px"
	 viewBox="0 0 100 100" style="enable-background:new 0 0 100 100;" xml:space="preserve">
<style type="text/css">
	.st0{fill:#D37522;}
</style>
<path class="st0" d="M8.7,92.1h85.4V6.7H8.7V92.1z M96.4,96.7H6.3c-1.3,0-2.3-1-2.3-2.3l0,0V4.3C4,3,5,2,6.3,2h90.1
	c1.3,0,2.3,1,2.3,2.3c0,0,0,0,0,0v90.1C98.7,95.7,97.7,96.7,96.4,96.7z"/>
<path class="st0" d="M16.4,19.4h49.9v-5H16.4V19.4z M68.6,24H14.1c-1.3,0-2.3-1-2.3-2.3v-9.6c0-1.3,1-2.3,2.3-2.3h54.5
	c1.3,0,2.3,1,2.4,2.3c0,0,0,0,0,0v9.6C71,23,69.9,24,68.6,24C68.6,24,68.6,24,68.6,24z"/>
<path class="st0" d="M79.4,13.6c-0.8,0-1.5,0.5-1.8,1.2c-0.4,1,0,2.2,1.1,2.6c1,0.4,2.2,0,2.6-1c0.4-1,0-2.2-1.1-2.6
	C79.9,13.7,79.7,13.6,79.4,13.6z M79.4,22.3c-3.7,0-6.6-3-6.6-6.7s3-6.6,6.7-6.6c3.7,0,6.6,3,6.6,6.7c0,0.9-0.2,1.8-0.6,2.6
	C84.5,20.7,82.1,22.3,79.4,22.3z"/>
<path class="st0" d="M89.4,22.2c-0.3,0-0.6-0.1-0.9-0.2l-5.7-2.4c-1.2-0.5-1.7-1.9-1.2-3.1c0.5-1.2,1.9-1.7,3.1-1.2l0,0l5.7,2.4
	c1.2,0.5,1.7,1.9,1.3,3C91.2,21.7,90.3,22.2,89.4,22.2z"/>
<path class="st0" d="M96.4,31.7H6.3c-1.3,0-2.3-1-2.3-2.3S5,27,6.3,27c0,0,0,0,0,0h90.1c1.3,0,2.3,1,2.3,2.3S97.7,31.7,96.4,31.7
	C96.4,31.7,96.4,31.7,96.4,31.7L96.4,31.7z"/>
<path class="st0" d="M70.5,45.2c-2.3,0.1-4,2-3.9,4.3c0.1,2.1,1.8,3.8,3.9,3.9H82c2.3-0.1,4-2,3.9-4.3c-0.1-2.1-1.8-3.8-3.9-3.9
	H70.5z M82,58.1H70.5c-4.8,0-8.8-3.9-8.8-8.8c0-4.8,3.9-8.8,8.8-8.8H82c4.8,0,8.8,3.9,8.8,8.8S86.8,58.1,82,58.1
	C82,58.1,82,58.1,82,58.1z"/>
<path class="st0" d="M81.8,51.7c-1.3,0-2.3-1-2.3-2.3c0-1.3,1-2.3,2.3-2.3s2.3,1,2.3,2.3c0,0.6-0.2,1.2-0.7,1.6
	C83,51.4,82.4,51.7,81.8,51.7L81.8,51.7z"/>
<path class="st0" d="M71.5,69.9c-2.3,0.1-4,2-3.9,4.3c0.1,2.1,1.8,3.8,3.9,3.9H83c2.3-0.1,4-2,3.9-4.3c-0.1-2.1-1.8-3.8-3.9-3.9
	H71.5z M83,82.8H71.5c-4.8,0-8.8-3.9-8.8-8.8c0-4.8,3.9-8.8,8.8-8.8H83c4.8,0,8.8,3.9,8.8,8.8C91.8,78.8,87.8,82.7,83,82.8z"/>
<path class="st0" d="M71.7,76.3c-0.6,0-1.2-0.2-1.7-0.7c-0.4-0.4-0.6-1-0.6-1.6c0-1.3,1.1-2.3,2.4-2.3c1.3,0,2.3,1.1,2.3,2.4
	c0,0.6-0.2,1.2-0.7,1.6C72.9,76.1,72.3,76.3,71.7,76.3L71.7,76.3z"/>
<path class="st0" d="M51.4,47.3H14.1c-1.3,0-2.3-1-2.3-2.3c0-1.3,1-2.3,2.3-2.3h37.3c1.3,0,2.3,1,2.3,2.3
	C53.7,46.2,52.6,47.3,51.4,47.3z"/>
<path class="st0" d="M56.8,56.6H14.1c-1.3,0-2.3-1-2.3-2.3c0-1.3,1-2.3,2.3-2.3h42.7c1.3,0,2.3,1,2.3,2.3
	C59.1,55.6,58.1,56.6,56.8,56.6C56.8,56.6,56.8,56.6,56.8,56.6z"/>
<path class="st0" d="M51.4,72.1H14.1c-1.3,0-2.3-1-2.3-2.3s1-2.3,2.3-2.3h37.3c1.3,0,2.3,1,2.3,2.3S52.6,72.1,51.4,72.1z"/>
<path class="st0" d="M56.8,81.4H14.1c-1.3,0-2.3-1-2.3-2.3s1-2.3,2.3-2.3h42.7c1.3,0,2.3,1,2.3,2.3S58.1,81.4,56.8,81.4L56.8,81.4z"
	/>
</svg>