<?xml version="1.0" encoding="utf-8"?>
<!-- Generator: Adobe Illustrator 21.0.0, SVG Export Plug-In . SVG Version: 6.00 Build 0)  -->
<svg version="1.1" id="Capa_1" xmlns="http://www.w3.org/2000/svg" xmlns:xlink="http://www.w3.org/1999/xlink" x="0px" y="0px"
	 viewBox="0 0 100 100" style="enable-background:new 0 0 100 100;" xml:space="preserve">
<style type="text/css">
	.st0{fill:#FFFFFF;}
</style>
<path class="st0" d="M82.4,12.8c0.8,0,1.4,0.5,1.5,1.3c0,0,0,0.1,0,0.1v78.2c0,0.8-0.5,1.4-1.3,1.5c-0.1,0-0.1,0-0.2,0H21.5
	c-0.8,0.1-1.4-0.5-1.5-1.3c0-0.1,0-0.1,0-0.2V14.3c0-0.8,0.6-1.4,1.3-1.5c0.1,0,0.1,0,0.2,0h17.9v4.8H26.3c-0.8,0-1.4,0.5-1.5,1.3
	c0,0.1,0,0.1,0,0.2v68.8c0,0.8,0.5,1.4,1.3,1.5c0.1,0,0.1,0,0.2,0h51.4c0.8,0,1.4-0.5,1.5-1.3c0-0.1,0-0.1,0-0.2v-69
	c0-0.8-0.5-1.4-1.3-1.5c-0.1,0-0.1,0-0.2,0H64.4v-4.6H82.4z M76.1,20.4v65.9H27.8V20.4H76.1z M42.4,6.6c0-0.9,0.7-1.6,1.6-1.6H60
	c0.9,0,1.6,0.7,1.6,1.6v11H42.4V6.6z M59.8,2H44.1c-2.5,0-4.6,2.1-4.6,4.6v3.2H21.5c-2.4-0.1-4.4,1.9-4.5,4.3c0,0.1,0,0.1,0,0.2
	v78.2c-0.1,2.4,1.9,4.4,4.3,4.5c0.1,0,0.1,0,0.2,0h60.8c2.4,0.1,4.4-1.9,4.5-4.3c0-0.1,0-0.1,0-0.2V14.3c0.1-2.4-1.9-4.4-4.3-4.5
	c-0.1,0-0.1,0-0.2,0h-18V6.6C64.4,4.1,62.3,2,59.8,2z"/>
<path class="st0" d="M33.7,33h5.2c0.8,0,1.5-0.7,1.5-1.5c0-0.8-0.7-1.5-1.5-1.5h-5.2c-0.8,0-1.5,0.7-1.5,1.5
	C32.2,32.4,32.9,33,33.7,33z"/>
<path class="st0" d="M70.2,30.1H44.7c-0.8,0-1.5,0.7-1.5,1.5c0,0.8,0.7,1.5,1.5,1.5h25.5c0.8,0,1.5-0.7,1.5-1.5
	C71.7,30.7,71,30.1,70.2,30.1z"/>
<path class="st0" d="M33.7,41.2h17.4c0.8,0,1.5-0.7,1.5-1.5c0-0.8-0.7-1.5-1.5-1.5H33.7c-0.8,0-1.5,0.7-1.5,1.5
	C32.2,40.5,32.9,41.2,33.7,41.2z"/>
<path class="st0" d="M35.2,70.7h10.7v5.2H35.2V70.7z M46.6,55.7v-5.2h10.7v5.2H46.6z M68.7,70.7v5.2H58v-5.2H68.7z M33.7,78.9h13.7
	c0.8,0,1.4-0.5,1.5-1.3c0-0.1,0-0.1,0-0.2v-8.2c0-0.8-0.5-1.4-1.3-1.5c-0.1,0-0.1,0-0.2,0H42v-3h19.9v3h-5.3
	c-0.8-0.1-1.4,0.5-1.5,1.3c0,0.1,0,0.1,0,0.2v8.2c0,0.8,0.5,1.4,1.3,1.5c0.1,0,0.1,0,0.2,0h13.7c0.8,0,1.4-0.5,1.5-1.3
	c0-0.1,0-0.1,0-0.2v-8.2c0-0.8-0.5-1.4-1.3-1.5c-0.1,0-0.1,0-0.2,0h-5.3v-4.5c0-0.8-0.5-1.4-1.3-1.5c-0.1,0-0.1,0-0.2,0h-10v-3.1
	h5.3c0.8,0,1.4-0.5,1.5-1.3c0-0.1,0-0.1,0-0.2v-8.2c0-0.8-0.5-1.4-1.3-1.5c-0.1,0-0.1,0-0.2,0H45.1c-0.8,0-1.4,0.5-1.5,1.3
	c0,0.1,0,0.1,0,0.2v8.2c0,0.8,0.5,1.4,1.3,1.5c0.1,0,0.1,0,0.2,0h5.4v3.1h-9.9c-0.8,0-1.4,0.5-1.5,1.3c0,0.1,0,0.1,0,0.2v4.5h-5.4
	c-0.8,0-1.4,0.5-1.5,1.3c0,0.1,0,0.1,0,0.2v8.2c-0.1,0.8,0.5,1.4,1.3,1.5C33.6,78.9,33.6,78.9,33.7,78.9L33.7,78.9z"/>
</svg>
