<?xml version="1.0" encoding="utf-8"?>
<!-- Generator: Adobe Illustrator 21.0.0, SVG Export Plug-In . SVG Version: 6.00 Build 0)  -->
<svg version="1.1" id="Capa_1" xmlns="http://www.w3.org/2000/svg" xmlns:xlink="http://www.w3.org/1999/xlink" x="0px" y="0px"
	 viewBox="0 0 100 100" style="enable-background:new 0 0 100 100;" xml:space="preserve">
<style type="text/css">
	.st0{fill:#FFFFFF;}
</style>
<path class="st0" d="M68.8,95.3H3.7c-0.9,0-1.7-0.8-1.7-1.7V18.8c0-0.9,0.8-1.7,1.7-1.7l0,0h18.2c0.9,0,1.7,0.8,1.7,1.7v31.8
	L43,32.4c0.5-0.5,1.2-0.6,1.8-0.3c0.6,0.2,1,0.9,1,1.5v17.4l21.6-16.7c0.8-0.6,1.8-0.5,2.4,0.3c0.2,0.3,0.3,0.7,0.3,1v14.2
	c0,0.9-0.8,1.7-1.7,1.7c-0.9,0-1.7-0.8-1.7-1.7l0,0V38.9L45.2,55.8c-0.8,0.6-1.8,0.5-2.4-0.3c-0.2-0.3-0.3-0.7-0.3-1V37.4L23,55.6
	c-0.5,0.5-1.2,0.6-1.8,0.3s-1-0.9-1-1.5V20.6H5.3V92h63.5c0.9,0,1.7,0.8,1.7,1.7C70.5,94.6,69.7,95.3,68.8,95.3L68.8,95.3z"/>
<path class="st0" d="M13.3,76.5h6.4v-6.4h-6.4C13.3,70.1,13.3,76.5,13.3,76.5z M21.4,79.9h-9.8c-0.9,0-1.7-0.8-1.7-1.7v-9.8
	c0-0.9,0.8-1.7,1.7-1.7h9.8c0.9,0,1.7,0.8,1.7,1.7v9.8C23.1,79.3,22.3,79.9,21.4,79.9z"/>
<path class="st0" d="M32.8,76.5h6.4v-6.4h-6.4V76.5z M41,79.9h-9.8c-0.9,0-1.7-0.8-1.7-1.7v-9.8c0-0.9,0.8-1.7,1.7-1.7H41
	c0.9,0,1.7,0.8,1.7,1.7v9.8C42.7,79.3,41.9,79.9,41,79.9z"/>
<path class="st0" d="M21.4,33.7H3.7C2.8,33.7,2,32.9,2,32c0-0.9,0.8-1.7,1.7-1.7h17.7c0.9,0,1.7,0.8,1.7,1.7
	C23.1,33,22.3,33.7,21.4,33.7z"/>
<path class="st0" d="M70.1,92h7.5v-3.4c0-0.7,0.5-1.4,1.1-1.6c0.8-0.2,1.6-0.6,2.4-1c0.7-0.3,1.5-0.2,1.9,0.3l2.4,2.4l5.3-5.3
	l-2.4-2.4c-0.6-0.6-0.7-1.4-0.3-1.9c0.5-0.8,0.8-1.6,1-2.5c0.2-0.7,0.9-1.1,1.6-1.1H94v-7.5h-3.4c-0.7,0-1.4-0.5-1.6-1.2
	c-0.2-0.8-0.6-1.6-1-2.4c-0.3-0.7-0.2-1.5,0.3-1.9l2.4-2.4l-5.3-5.3L83,57.2c-0.6,0.6-1.2,0.7-1.9,0.3c-0.8-0.5-1.6-0.7-2.4-1
	c-0.7-0.2-1.1-0.9-1.1-1.6v-3.4h-7.5V55c0,0.8-0.6,1.5-1.2,1.6c-0.8,0.2-1.6,0.6-2.4,1c-0.7,0.3-1.4,0.2-1.9-0.3l-2.4-2.4L56.9,60
	l2.4,2.4c0.6,0.6,0.7,1.4,0.3,1.9c-0.5,0.8-0.7,1.6-1,2.4c-0.2,0.7-0.9,1.1-1.6,1.1h-3.4v7.5H57c0.7,0,1.4,0.5,1.6,1.1
	c0.2,0.8,0.6,1.6,1,2.4c0.3,0.7,0.2,1.6-0.3,2l-2.4,2.6l5.3,5.3l2.4-2.5c0.6-0.6,1.2-0.7,1.9-0.3c0.8,0.5,1.6,0.7,2.4,1
	c0.7,0.2,1.1,0.9,1.1,1.6L70.1,92z M79.3,95.3H68.4c-0.9,0-1.7-0.7-1.7-1.7l0,0v-3.8l-0.6-0.2l-2.7,2.7c-0.7,0.7-1.7,0.7-2.4,0
	l-7.7-7.7c-0.7-0.7-0.7-1.7,0-2.4l2.7-2.8c-0.1-0.2-0.2-0.5-0.2-0.6h-3.8c-0.9,0-1.7-0.8-1.7-1.7V66.3c0-0.9,0.8-1.7,1.7-1.7h3.8
	l0.2-0.7l-2.7-2.7c-0.7-0.7-0.7-1.7,0-2.4l7.7-7.7c0.7-0.7,1.7-0.7,2.4,0l2.7,2.7l0.6-0.2v-3.8c0-0.9,0.8-1.7,1.7-1.7h10.8
	c0.9,0,1.7,0.8,1.7,1.7v3.8l0.6,0.2l2.7-2.8c0.7-0.7,1.7-0.7,2.4,0l7.7,7.7c0.7,0.7,0.7,1.7,0,2.4l-2.7,2.7l0.2,0.6h3.8
	c0.9,0,1.7,0.8,1.7,1.7v10.8c0,0.9-0.7,1.7-1.6,1.7c0,0,0,0-0.1,0h-4c-0.1,0.2-0.2,0.5-0.2,0.6l2.8,2.7c0.7,0.7,0.7,1.7,0,2.4
	l-7.7,7.7c-0.7,0.7-1.7,0.7-2.4,0l-2.8-2.7l-0.6,0.2v3.8C80.9,94.6,80.2,95.3,79.3,95.3L79.3,95.3z"/>
<path class="st0" d="M73.9,64.3c-4.1,0-7.3,3.4-7.3,7.5c0,4.1,3.4,7.3,7.5,7.3s7.3-3.4,7.3-7.5C81.2,67.6,77.9,64.3,73.9,64.3
	L73.9,64.3z M73.9,82.4c-5.9,0-10.7-4.7-10.7-10.7c0-5.9,4.7-10.7,10.7-10.7c5.9,0,10.7,4.7,10.7,10.7c0,0,0,0,0,0.1
	C84.5,77.7,79.7,82.5,73.9,82.4C73.9,82.5,73.9,82.5,73.9,82.4L73.9,82.4z"/>
<path class="st0" d="M48.7,4c4.2,0.1,8.1,1.8,11.1,4.7c0.8,0.8,0.8,2,0,2.7c-0.8,0.8-2,0.8-2.7,0l0,0c-4.9-4.9-12.7-4.9-17.5,0
	c-0.7,0.8-1.9,0.9-2.7,0.2C36,11,35.9,9.8,36.6,9c0.1-0.1,0.1-0.1,0.2-0.2c2-2,4.5-3.5,7.3-4.3C45.6,4.2,47.2,4,48.7,4z"/>
<path class="st0" d="M48.3,11c2.5,0,4.9,1,6.7,2.7c0.8,0.7,0.9,1.9,0.2,2.7c-0.7,0.8-1.9,0.9-2.7,0.2c-0.1-0.1-0.2-0.2-0.2-0.2
	c-2.1-2.1-5.5-2.1-7.7,0c-0.3,0.3-0.8,0.6-1.4,0.6c-0.8,0-1.5-0.5-1.8-1.1c-0.3-0.7-0.1-1.6,0.5-2.1C43.5,12,45.8,11,48.3,11
	L48.3,11z"/>
<path class="st0" d="M48.3,17.9c1.4,0,2.6,1.1,2.6,2.5c0,1.4-1.1,2.6-2.5,2.6s-2.6-1.1-2.6-2.5c0-0.7,0.2-1.4,0.8-1.8
	C47,18.1,47.6,17.9,48.3,17.9z"/>
</svg>
