<?xml version="1.0" encoding="utf-8"?>
<!-- Generator: Adobe Illustrator 21.0.0, SVG Export Plug-In . SVG Version: 6.00 Build 0)  -->
<svg version="1.1" id="Capa_1" xmlns="http://www.w3.org/2000/svg" xmlns:xlink="http://www.w3.org/1999/xlink" x="0px" y="0px"
	 viewBox="0 0 100 100" style="enable-background:new 0 0 100 100;" xml:space="preserve">
<style type="text/css">
	.st0{fill:#FFFFFF;}
</style>
<path class="st0" d="M7.1,37.9L49.9,24l43,13.7l-9.1,3.1v15.9l1,0.5c1.9,0.8,2.8,3.1,1.9,5c-0.4,0.8-1.1,1.6-1.9,1.9l-1.2,0.5
	l2.9,18.7h-6.1l2.4-18.7l-1.1-0.5c-1.9-0.8-2.8-3.1-1.9-5c0.4-0.8,1.1-1.6,1.9-1.9l1-0.5V41.1L49.9,52.4L7.1,37.9z M25.4,48.2
	l23,7.8c1,0.4,2,0.4,3,0l22.3-7.7V66c0,3.1-9.2,7.4-24.2,7.4S25.3,69.1,25.3,66V48.2H25.4z M79.2,54.7c-0.8,0.5-1.4,1.2-2,2v-9.9
	l2-0.7V54.7z M2.6,35.7c-1,0.4-1.6,1.2-1.6,2.2s0.6,1.8,1.6,2.2l19.5,6.6v19.5c0,7.1,14.3,10.8,27.5,10.8s27.5-3.8,27.5-10.8v-1.3
	c0.5,0.7,1.2,1.4,1.9,1.9l-2.6,20.1h14l-3.1-20.2c3.2-2.3,4.1-6.8,1.8-10.1c-0.5-0.7-1.2-1.4-1.9-1.9V43.3l10.3-3.5
	c1.2-0.4,1.8-1.7,1.3-2.9c-0.2-0.6-0.7-1.2-1.3-1.3l-47.1-15c-0.5-0.1-1-0.1-1.3,0L2.6,35.7L2.6,35.7z"/>
</svg>
