<?xml version="1.0" encoding="utf-8"?>
<!-- Generator: Adobe Illustrator 21.0.0, SVG Export Plug-In . SVG Version: 6.00 Build 0)  -->
<svg version="1.1" id="Capa_1" xmlns="http://www.w3.org/2000/svg" xmlns:xlink="http://www.w3.org/1999/xlink" x="0px" y="0px"
	 viewBox="0 0 100 100" style="enable-background:new 0 0 100 100;" xml:space="preserve">
<style type="text/css">
	.st0{fill:#FFFFFF;}
</style>
<path class="st0" d="M94.6,56.1H61.8v3.1h29.7v34.4H10.3V59.2H40v-3.1H7.1V53h29.7v-3.1h-9.7l-1.3-5.1c-0.2-0.7-0.8-1.2-1.5-1.2
	h-1.6V26.4c0-1.7,1.4-3.1,3.1-3.1l0,0H29c0,0.4,0.2,0.8,0.5,1.1c0.3,0.3,0.7,0.5,1.1,0.5h6c3.5,7.9,12.7,11.5,20.6,8.1
	c3.6-1.6,6.5-4.5,8.1-8.1h6c0.4,0,0.8-0.2,1.1-0.5c0.3-0.3,0.5-0.7,0.5-1.1h3.1c1.7,0,3.1,1.4,3.1,3.1v17.2h-1.6
	c-0.7,0-1.3,0.5-1.5,1.2l-1.3,5.1h-9.7V53h29.7V56.1z M13,46.8h10.1l0.8,3.1H12.3L13,46.8z M16.5,26.4c0-5.2,4.2-9.4,9.4-9.4H29v3.1
	h-3.1c-3.5,0-6.3,2.8-6.3,6.3v17.2h-3.1L16.5,26.4L16.5,26.4z M32.1,15.5h3.4c-0.4,2.1-0.4,4.2,0,6.3h-3.4V15.5z M50.9,6.1
	c6.9,0,12.5,5.6,12.5,12.5c0,6.9-5.6,12.5-12.5,12.5c-6.9,0-12.5-5.6-12.5-12.5C38.4,11.7,44,6.1,50.9,6.1z M69.6,15.5v6.3h-3.4
	c0.4-2.1,0.4-4.2,0-6.3H69.6z M75.9,17.1c5.2,0,9.4,4.2,9.4,9.4v17.2h-3.1V26.4c0-3.5-2.8-6.3-6.3-6.3h-3.1v-3.1H75.9z M89.5,49.9
	H77.9l0.8-3.1h10.1L89.5,49.9z M96.2,49.9h-3.5l-1.3-5.1c-0.2-0.7-0.8-1.2-1.5-1.2h-1.6V26.4c0-6.9-5.6-12.4-12.5-12.5h-3.1
	c0-0.9-0.7-1.6-1.6-1.6h-6C61.7,4.5,52.5,0.9,44.6,4.4c-3.6,1.6-6.5,4.5-8.1,8.1h-6c-0.8,0-1.5,0.7-1.6,1.5h-3.1
	c-6.9,0-12.5,5.6-12.5,12.5v17.2h-1.6c-0.7,0-1.3,0.5-1.5,1.2L9,49.9H5.6c-0.9,0-1.6,0.7-1.6,1.5c0,0,0,0,0,0v6.3
	c0,0.9,0.7,1.6,1.6,1.6h1.6v35.9c0,0.4,0.2,0.8,0.5,1.1c0.3,0.3,0.7,0.5,1.1,0.5h84.4c0.4,0,0.8-0.2,1.1-0.5
	c0.3-0.3,0.5-0.7,0.5-1.1V59.3h1.6c0.4,0,0.8-0.2,1.1-0.5c0.3-0.3,0.5-0.7,0.5-1.1v-6.3C97.8,50.6,97.1,49.9,96.2,49.9
	C96.2,49.9,96.2,49.9,96.2,49.9z"/>
<path class="st0" d="M47.8,20.2h3.9l-2.3,5.7l2.9,1.1l3.1-7.8l0,0c0.2-0.5,0.1-1-0.2-1.5c-0.3-0.4-0.8-0.7-1.3-0.7h-3.9l2.3-5.7
	l-2.9-1.2L46.3,18l0,0c-0.3,0.8,0.1,1.7,0.9,2C47.4,20.1,47.6,20.1,47.8,20.2L47.8,20.2z"/>
<path class="st0" d="M46.2,71.8h9.4v9.4h-9.4V71.8z M44.6,84.3h12.5c0.4,0,0.8-0.2,1.1-0.5c0.3-0.3,0.5-0.7,0.5-1.1V70.2
	c0-0.9-0.7-1.6-1.6-1.6H44.6c-0.9,0-1.6,0.7-1.6,1.6v12.5c0,0.4,0.2,0.8,0.5,1.1C43.8,84.1,44.2,84.3,44.6,84.3z"/>
<rect x="49.3" y="74.9" class="st0" width="3.1" height="3.1"/>
<rect x="72.8" y="74.9" class="st0" width="3.1" height="3.1"/>
<rect x="25.9" y="74.9" class="st0" width="3.1" height="3.1"/>
<rect x="49.3" y="40.5" class="st0" width="3.1" height="3.1"/>
<path class="st0" d="M61.8,67.7v17.5l-2.2,2.2H42.2l-2.2-2.2V67.7l2.2-2.2h17.5L61.8,67.7z M58.7,52.4L56,55
	c-0.3,0.3-0.5,0.7-0.5,1.1v6.3h-3.1V46.8h-3.1v15.6h-3.1v-6.3c0-0.4-0.2-0.8-0.5-1.1l-2.7-2.7v-7.1H40V53c0,0.4,0.2,0.8,0.5,1.1
	l2.7,2.7v5.6h-1.6c-0.4,0-0.8,0.2-1.1,0.5L37.3,66c-0.3,0.3-0.5,0.7-0.5,1.1v1.6h-5.6L28.6,66c-0.3-0.3-0.7-0.5-1.1-0.5h-4.7v3.1h4
	l2.7,2.7c0.3,0.3,0.7,0.5,1.1,0.5h6.3v3.1h-4.7V78h4.7v3.1h-6.2c-0.4,0-0.8,0.2-1.1,0.5l-2.7,2.7h-4v3.1h4.7c0.4,0,0.8-0.2,1.1-0.5
	l2.7-2.7h5.6v1.6c0,0.4,0.2,0.8,0.5,1.1l3.1,3.1c0.3,0.3,0.7,0.5,1.1,0.5h18.8c0.4,0,0.8-0.2,1.1-0.5l3.1-3.1
	c0.3-0.3,0.5-0.7,0.5-1.1v-1.6h5.6l2.7,2.7c0.3,0.3,0.7,0.5,1.1,0.5H79v-3.1h-4l-2.7-2.7c-0.3-0.3-0.7-0.5-1.1-0.5H65V78h4.7v-3.1
	H65v-3.1h6.3c0.4,0,0.8-0.2,1.1-0.5l2.6-2.7h4v-3.1h-4.7c-0.4,0-0.8,0.2-1.1,0.5l-2.7,2.7H65v-1.6c0-0.4-0.2-0.8-0.5-1.1l-3.1-3.1
	c-0.3-0.3-0.7-0.5-1.1-0.5h-1.6v-5.6l2.7-2.7c0.3-0.3,0.5-0.7,0.5-1.2v-7.8h-3.1L58.7,52.4L58.7,52.4z"/>
</svg>
