<?xml version="1.0" encoding="utf-8"?>
<!-- Generator: Adobe Illustrator 21.0.0, SVG Export Plug-In . SVG Version: 6.00 Build 0)  -->
<svg version="1.1" id="Capa_1" xmlns="http://www.w3.org/2000/svg" xmlns:xlink="http://www.w3.org/1999/xlink" x="0px" y="0px"
	 viewBox="0 0 100 100" style="enable-background:new 0 0 100 100;" xml:space="preserve">
<style type="text/css">
	.st0{fill:#FFFFFF;stroke:#FFFFFF;stroke-width:0.5;stroke-miterlimit:10;}
</style>
<path class="st0" d="M92.6,43L92.6,43c-1.4,0-2.6-1.2-2.6-2.6c0-1.4,1.2-2.6,2.6-2.6c1.4,0,2.6,1.2,2.6,2.6C95.2,41.9,94,43,92.6,43
	C92.6,43,92.6,43,92.6,43L92.6,43z M70.3,60.7H29.1c-4.4,0-8-3.6-8.1-8l0,0c0-6.8,5.7-7.9,9.1-8c0.8,0.1,1.6-0.5,1.6-1.4
	c0-0.3,0-0.5-0.1-0.8l0,0c-3-6.5,6-11.8,10.2-6.2c0.5,0.7,1.5,0.8,2.1,0.3c0.2-0.2,0.4-0.4,0.5-0.6c1.8-4.6,6.3-7.7,11.2-7.6
	c7.6,0,14,6,12.6,14.5c-0.1,0.8,0.4,1.6,1.3,1.8c0.1,0,0.2,0,0.3,0c3.2,0.2,8.6,1.5,8.6,8.1c0,4.5-3.6,8.1-8.1,8.1L70.3,60.7z
	 M50.8,77.3c0,1.4-1.2,2.6-2.6,2.6s-2.6-1.2-2.6-2.6s1.2-2.6,2.6-2.6l0,0C49.6,74.7,50.8,75.9,50.8,77.3z M40.4,11.9
	c0-1.4,1.2-2.6,2.6-2.6c1.4,0,2.6,1.2,2.6,2.6s-1.2,2.6-2.6,2.6l0,0C41.6,14.4,40.4,13.3,40.4,11.9L40.4,11.9z M57.3,14.7
	c0-1.4,1.2-2.6,2.6-2.6c1.4,0,2.6,1.2,2.6,2.6c0,1.4-1.1,2.6-2.5,2.6l0,0C58.4,17.3,57.3,16.2,57.3,14.7L57.3,14.7z M88.7,84.3
	c0,1.4-1.2,2.6-2.6,2.6s-2.6-1.2-2.6-2.6s1.2-2.6,2.6-2.6l0,0C87.6,81.8,88.7,82.9,88.7,84.3z M62.4,91.2c0,1.4-1.2,2.6-2.6,2.6
	s-2.6-1.2-2.6-2.6s1.2-2.6,2.6-2.6l0,0C61.3,88.6,62.4,89.8,62.4,91.2z M39.7,91.2c0,1.4-1.2,2.6-2.6,2.6s-2.6-1.2-2.6-2.6
	s1.2-2.6,2.6-2.6l0,0C38.5,88.6,39.7,89.8,39.7,91.2z M15.9,84.3c0,1.4-1.2,2.6-2.6,2.6s-2.6-1.2-2.6-2.6c0-1.4,1.2-2.6,2.6-2.6
	c0,0,0,0,0,0C14.7,81.8,15.9,82.9,15.9,84.3z M6.8,43L6.8,43c-1.4,0-2.6-1.2-2.6-2.6c0-1.4,1.2-2.6,2.6-2.6c1.4,0,2.6,1.2,2.6,2.6
	C9.4,41.8,8.3,43,6.8,43C6.9,43,6.9,43,6.8,43z M21.8,21.3L21.8,21.3c-1.4,0-2.6-1.2-2.5-2.6c0-1.4,1.2-2.6,2.6-2.5
	c1.4,0,2.5,1.2,2.5,2.6C24.3,20.1,23.2,21.3,21.8,21.3C21.8,21.3,21.8,21.3,21.8,21.3L21.8,21.3z M77.4,17.3c0-1.4,1.2-2.6,2.6-2.6
	s2.6,1.2,2.6,2.6c0,1.4-1.1,2.6-2.6,2.6l0,0C78.5,19.8,77.4,18.7,77.4,17.3L77.4,17.3z M92.6,34.9c-3.1-0.1-5.6,2.4-5.7,5.5
	c-0.1,2.6,1.7,4.9,4.2,5.5v5.3h-9.8c-0.3-4.1-3.2-7.6-7.2-8.8l6.5-3.6c0.5-0.3,0.8-0.8,0.8-1.3V22.6c3-0.8,4.7-3.9,3.9-6.9
	s-3.9-4.7-6.9-3.9s-4.7,3.9-3.9,6.9c0.5,1.9,2,3.4,3.9,3.9v13.9l-7,3.8c0-6.4-4-12-10.1-14v-6.3c3-0.8,4.7-3.9,3.9-6.9
	s-3.9-4.7-6.9-3.9c-3,0.8-4.7,3.9-3.9,6.9c0.5,1.9,2,3.4,3.9,3.9v5.5c-0.9-0.2-1.8-0.2-2.7-0.3c-4.2-0.1-8.3,1.7-11.1,4.9v-13
	c3-0.8,4.7-3.9,3.9-6.9c-0.8-3-3.9-4.7-6.9-3.9s-4.7,3.9-3.9,6.9c0.5,1.9,2,3.4,3.9,3.9V32c-5.4-3.1-12.7,0.6-13.4,6.7L23.3,34v-9.9
	c3-0.8,4.7-3.9,3.9-6.9c-0.8-3-3.9-4.7-6.9-3.9c-3,0.8-4.7,3.9-3.9,6.9c0.5,1.9,2,3.4,3.9,3.9v10.5c0,0.4,0.2,0.8,0.5,1.1l6.3,6.3
	c-5.1,1-8.3,4.3-8.8,9.2H8.4v-5.3c3-0.8,4.7-3.9,3.9-6.9c-0.8-3-3.9-4.7-6.9-3.9s-4.7,3.9-3.9,6.9c0.5,1.9,2,3.4,3.9,3.9v6.9
	c0,0.8,0.7,1.5,1.5,1.5h0h11.3c0.3,2.6,1.6,4.9,3.5,6.7l-9.4,10.3c-0.2,0.3-0.4,0.6-0.4,1V79c-3,0.8-4.7,3.9-3.9,6.9
	c0.8,3,3.9,4.7,6.9,3.9c3-0.8,4.7-3.9,3.9-6.9c-0.5-1.9-2-3.4-3.9-3.9v-6.2l9.3-10.2c1.1,0.6,2.4,0.9,3.7,1.1v7.9
	c0,0.4,0.2,0.8,0.5,1.1l7.3,7.3v5.9c-3,0.8-4.7,3.9-3.9,6.9c0.8,3,3.9,4.7,6.9,3.9c3-0.8,4.7-3.9,3.9-6.9c-0.5-1.9-2-3.4-3.9-3.9
	v-6.5c0-0.4-0.2-0.8-0.5-1.1l-7.3-7.3v-7.2h15.9v8.1c-3,0.8-4.7,3.9-3.9,6.9s3.9,4.7,6.9,3.9c3-0.8,4.7-3.9,3.9-6.9
	c-0.5-1.9-2-3.4-3.9-3.9v-8.1h16.4v7.2l-7.3,7.3c-0.3,0.3-0.4,0.7-0.5,1.1v6.5c-3,0.8-4.7,3.9-3.9,6.9c0.8,3,3.9,4.7,6.9,3.9
	c3-0.8,4.7-3.9,3.9-6.9c-0.5-1.9-2-3.4-3.9-3.9v-5.9l7.3-7.3c0.3-0.3,0.4-0.7,0.4-1.1v-7.8h1.3c1.7,0,3.4-0.4,4.9-1.2l9.4,10.2V79
	c-3,0.8-4.7,3.9-3.9,6.9s3.9,4.7,6.9,3.9c3-0.8,4.7-3.9,3.9-6.9c-0.5-1.9-2-3.4-3.9-3.9v-6.8c0-0.4-0.1-0.7-0.4-1l-9.4-10.3
	c1.9-1.7,3.2-4.1,3.5-6.7h11.3c0.8,0,1.5-0.7,1.5-1.5v-6.9c3-0.7,4.8-3.7,4.1-6.7C97.6,36.5,95.3,34.7,92.6,34.9L92.6,34.9z"/>
</svg>
