<?xml version="1.0" encoding="utf-8"?>
<!-- Generator: Adobe Illustrator 21.0.0, SVG Export Plug-In . SVG Version: 6.00 Build 0)  -->
<svg version="1.1" id="Capa_1" xmlns="http://www.w3.org/2000/svg" xmlns:xlink="http://www.w3.org/1999/xlink" x="0px" y="0px"
	 viewBox="0 0 100 100" style="enable-background:new 0 0 100 100;" xml:space="preserve">
<style type="text/css">
	.st0{fill:#FFFFFF;}
</style>
<path class="st0" d="M84.9,74.7H65.3v-3.2h19.7V74.7z M84.9,81.3H65.3v-3.2h19.7V81.3z M77.9,50.1h-8.9l4.2-13.6l3.1,1l-2.9,9.4h9.2
	l-7,19.3l-3-1.1L77.9,50.1z M58.7,51.8v-6.6h3.2v6.6H58.7z M21,48.4h13.1v13.2H21V48.4z M17.8,64.9h19.7V45.2H17.8V64.9z M42.3,30.4
	c0,1.8-1.5,3.2-3.4,3.2s-3.2-1.5-3.2-3.4c0-1.8,1.5-3.2,3.4-3.2c0.9,0,1.7,0.3,2.3,0.9C42,28.7,42.3,29.5,42.3,30.4L42.3,30.4z
	 M24.3,30.4c0-1.8,1.5-3.2,3.2-3.2c1.8,0,3.2,1.5,3.2,3.2c0,1.8-1.5,3.2-3.2,3.2C25.8,33.8,24.3,32.3,24.3,30.4L24.3,30.4L24.3,30.4
	z M16.1,33.8c-1.8,0-3.4-1.5-3.4-3.2c0-1.8,1.5-3.4,3.2-3.4s3.4,1.5,3.4,3.2c0,0.9-0.3,1.7-1,2.3C17.9,33.3,17,33.7,16.1,33.8z
	 M94.8,19H6.2v-3.2h88.4V19H94.8z M91.4,84.5h-36V22.3h36.1L91.4,84.5L91.4,84.5z M48.8,84.5V22.3h3.4v62.3H48.8z M9.6,84.5V22.3
	h36.1v62.3H9.6z M98,12.4H3v9.8h3.2v3.2H3v19.7h3.2v23.5L3,70v14.5h3.2v3.2h88.4V22.3H98V12.4z"/>
</svg>
