<?xml version="1.0" encoding="utf-8"?>
<!-- Generator: Adobe Illustrator 21.0.0, SVG Export Plug-In . SVG Version: 6.00 Build 0)  -->
<svg version="1.1" id="Capa_1" xmlns="http://www.w3.org/2000/svg" xmlns:xlink="http://www.w3.org/1999/xlink" x="0px" y="0px"
	 viewBox="0 0 100 100" style="enable-background:new 0 0 100 100;" xml:space="preserve">
<style type="text/css">
	.st0{fill:#FFFFFF;}
</style>
<g>
	<g>
		<path class="st0" d="M57.4,15.2c-0.5,0-1.1-0.3-1.4-0.6c-2.3-2.3-5-3.9-8.1-4.9c-7-2.2-14.7-0.3-19.9,4.9
			c-0.4,0.4-0.9,0.6-1.4,0.6s-1-0.2-1.4-0.6c-0.4-0.4-0.6-0.9-0.6-1.4s0.2-1.1,0.6-1.4c3.6-3.6,7.9-5.9,13-6.6
			c7.9-1.2,14.8,1,20.6,6.5c0.5,0.5,0.8,1.2,0.6,2s-0.8,1.3-1.5,1.4C57.7,15.2,57.6,15.2,57.4,15.2L57.4,15.2z"/>
		<path class="st0" d="M42.4,12c4.1,0.1,8,1.6,11.3,4.8c0.5,0.5,0.7,1.2,0.5,1.9s-0.7,1.2-1.4,1.4c-0.7,0.2-1.4,0-1.9-0.5
			c-2.8-2.7-6.1-3.9-10-3.6c-3,0.2-5.8,1.5-7.9,3.6c-0.5,0.5-1.2,0.8-1.9,0.6c-0.7-0.2-1.3-0.7-1.4-1.4c-0.2-0.7,0-1.4,0.5-2
			c2.1-2.1,4.6-3.6,7.5-4.3C39.2,12.2,40.8,12,42.4,12L42.4,12z"/>
		<path class="st0" d="M41.9,19.1c2.5,0,5,1,6.8,2.8c0.6,0.5,0.9,1.3,0.7,2s-0.7,1.3-1.5,1.5c-0.7,0.2-1.5-0.1-2-0.7
			c-2.2-2.1-5.7-2.2-7.9,0c-0.4,0.4-0.8,0.6-1.4,0.6c-0.8,0-1.6-0.4-1.9-1.2c-0.3-0.8-0.2-1.6,0.4-2.2C37,20.1,39.4,19.1,41.9,19.1
			L41.9,19.1z"/>
		<path class="st0" d="M42,26.1c1.4,0,2.6,1.1,2.6,2.6s-1.1,2.6-2.6,2.6c-1.4,0-2.6-1.1-2.6-2.6c0-0.7,0.3-1.4,0.8-1.9
			S41.3,26.1,42,26.1L42,26.1z"/>
	</g>
	<g>
		<path class="st0" d="M91.7,94.8H7.5c-1.1,0-2-0.9-2-2V39.2c0-1.1,0.9-2,2-2h0.3c0.3,0,0.6,0.1,0.9,0.2l25.1,13V39.2
			c0-1.1,0.9-2,2-2h0.3c0.3,0,0.6,0.1,0.9,0.2l24,12.5V39.2c0-1.1,0.9-2,2-2h0.3c0.3,0,0.6,0.1,0.9,0.2l28.3,14.7
			c0.7,0.3,1.1,1,1.1,1.8v39C93.7,93.9,92.8,94.8,91.7,94.8z M9.5,90.8h80.2V55.1L65.1,42.3v10.9c0,0.7-0.4,1.3-1,1.7
			s-1.3,0.4-2,0.1L37.8,42.3v11.4c0,0.7-0.4,1.3-1,1.7s-1.3,0.4-2,0.1L9.5,42.3V90.8z"/>
		<path class="st0" d="M33.4,94.8H16.1c-1.1,0-2-0.9-2-2V66c0-1.1,0.9-2,2-2h17.3c1.1,0,2,0.9,2,2v26.8
			C35.4,93.9,34.5,94.8,33.4,94.8z M18,90.8h13.3V68H18V90.8z"/>
		<path class="st0" d="M58.1,80.1H43.3c-1.1,0-2-0.9-2-2V66c0-1.1,0.9-2,2-2h14.8c1.1,0,2,0.9,2,2v12.1
			C60.1,79.2,59.2,80.1,58.1,80.1z M45.3,76.1h10.8V68H45.3V76.1z"/>
		<path class="st0" d="M82.1,80.1H67.2c-1.1,0-2-0.9-2-2V66c0-1.1,0.9-2,2-2H82c1.1,0,2,0.9,2,2v12.1C84.1,79.2,83.2,80.1,82.1,80.1
			z M69.2,76.1H80V68H69.2V76.1z"/>
		<path class="st0" d="M86.1,52.1c-0.3,0-0.6-0.1-0.9-0.2l-14.6-7.6c-0.7-0.4-1.2-1.2-1.1-2l2.6-23.9c0.1-1,1-1.8,2-1.8h8.7
			c1,0,1.9,0.8,2,1.8l3.4,31.5c0.1,0.7-0.3,1.5-0.9,1.9C86.9,52,86.5,52.1,86.1,52.1z M73.7,41.4l10.1,5.2l-2.8-26h-5.1L73.7,41.4z"
			/>
		<path class="st0" d="M87.3,25.9h-18c-1.1,0-2-0.9-2-2s0.9-2,2-2h18c1.1,0,2,0.9,2,2S88.4,25.9,87.3,25.9z"/>
	</g>
</g>
</svg>
