<?xml version="1.0" encoding="utf-8"?>
<!-- Generator: Adobe Illustrator 21.0.0, SVG Export Plug-In . SVG Version: 6.00 Build 0)  -->
<svg version="1.1" id="Capa_1" xmlns="http://www.w3.org/2000/svg" xmlns:xlink="http://www.w3.org/1999/xlink" x="0px" y="0px"
	 viewBox="0 0 100 100" style="enable-background:new 0 0 100 100;" xml:space="preserve">
<style type="text/css">
	.st0{fill:#FFFFFF;stroke:#FFFFFF;stroke-width:0.5;stroke-miterlimit:10;}
</style>
<g>
	<path class="st0" d="M52,4.3c-5.2,0-10,3.1-12,7.9c-0.2,0.4-0.5,0.7-0.9,0.8s-0.8,0.1-1.2-0.1C31.3,9.8,24.3,16.4,27,23.1
		c0.2,0.5,0.1,1-0.1,1.4s-0.8,0.7-1.3,0.7h-0.2c-2.9,0-5.3,2.4-5.3,5.3s2.4,5.3,5.3,5.3c0.8,0,1.5,0.7,1.5,1.5s-0.7,1.5-1.5,1.5
		c-4.6,0-8.3-3.7-8.3-8.3c0-4,2.8-7.3,6.5-8.1c-1.8-8.1,6-15.4,14.1-12.8C40.6,4.5,46,1.3,52,1.3s11.4,3.3,14.2,8.4
		c8.1-2.6,15.9,4.7,14.1,12.8c3.7,0.8,6.5,4.2,6.5,8.1c0,4.6-3.7,8.3-8.3,8.3c-0.8,0-1.5-0.7-1.5-1.5s0.7-1.5,1.5-1.5
		c2.9,0,5.3-2.4,5.3-5.3s-2.4-5.3-5.3-5.3h-0.2c-0.5,0-1-0.3-1.3-0.7c-0.3-0.4-0.3-1-0.1-1.4C79.6,16.4,72.6,9.8,66,13
		c-0.4,0.2-0.8,0.2-1.2,0.1c-0.4-0.1-0.7-0.4-0.9-0.8C61.9,7.4,57.2,4.3,52,4.3z"/>
	<path class="st0" d="M64.1,41.5c6.7-6.7,6.7-17.6,0-24.3c-0.6-0.6-1.5-0.6-2.1,0s-0.6,1.5,0,2.1c5.5,5.5,5.5,14.5,0,20
		c-0.6,0.6-0.6,1.5,0,2.1C62.5,42.1,63.5,42.1,64.1,41.5L64.1,41.5z"/>
	<path class="st0" d="M41.9,19.3c0.6-0.6,0.6-1.5,0-2.1s-1.5-0.6-2.1,0c-6.7,6.7-6.7,17.6,0,24.3c0.6,0.6,1.5,0.6,2.1,0
		s0.6-1.5,0-2.1C36.4,33.8,36.4,24.8,41.9,19.3L41.9,19.3z"/>
	<path class="st0" d="M57.7,37.2c0.6,0.6,1.5,0.6,2.1,0c4.4-4.4,4.4-11.5,0-15.9c-0.6-0.6-1.5-0.6-2.1,0s-0.6,1.5,0,2.1
		c3.2,3.2,3.2,8.4,0,11.6C57.1,35.7,57.1,36.7,57.7,37.2L57.7,37.2z"/>
	<path class="st0" d="M46.1,21.4c-0.6-0.6-1.5-0.6-2.1,0c-4.4,4.4-4.4,11.5,0,15.9c0.6,0.6,1.5,0.6,2.1,0s0.6-1.5,0-2.1
		c-3.2-3.2-3.2-8.4,0-11.6C46.7,22.9,46.7,22,46.1,21.4L46.1,21.4z"/>
	<path class="st0" d="M29.2,67.8c0-1.2,1-2.2,2.2-2.2s2.2,1,2.2,2.2s-1,2.2-2.2,2.2S29.2,69,29.2,67.8z M18.5,70.9h-6.2v-6.2h6.2
		V70.9z M18.5,51.6h-6.2v-6.2h6.2V51.6z M44.3,67.8L44.3,67.8L44.3,67.8V54.4c0-1.5,1.2-2.6,2.6-2.6h5l0,0l0,0h5
		c1.5,0,2.6,1.2,2.6,2.6v24.1c0,1.4-1.2,2.6-2.6,2.6H47c-1.5,0-2.6-1.2-2.6-2.6L44.3,67.8z M49.7,29.3c0-1.2,1-2.2,2.2-2.2
		s2.2,1,2.2,2.2s-1,2.2-2.2,2.2l0,0l0,0C50.7,31.5,49.7,30.5,49.7,29.3L49.7,29.3z M54.8,92.4c0,1.6-1.3,2.8-2.9,2.8
		c-1.6,0-2.8-1.2-2.9-2.9c0-1.6,1.3-2.9,2.9-2.9S54.8,90.7,54.8,92.4z M72.4,65.6c1.2,0,2.2,1,2.2,2.2s-1,2.2-2.2,2.2
		s-2.2-1-2.2-2.2S71.2,65.6,72.4,65.6z M85.4,45.4h6.2v6.2h-6.2V45.4z M85.4,64.7h6.2v6.2h-6.2V64.7z M85.4,83.9h6.2v6.2h-6.2V83.9z
		 M18.5,90.2h-6.2V84h6.2V90.2z M20,80.9h-9.2c-0.8,0-1.5,0.7-1.5,1.5v9.3c0,0.8,0.7,1.5,1.5,1.5H20c0.8,0,1.5-0.7,1.5-1.5v-3.1H28
		c2.8,0,5-2.2,5-5V72.8c1.7-0.5,3-1.8,3.5-3.5h4.8v9.1c0,3.1,2.5,5.7,5.7,5.7h3.5v2.5c-2,0.6-3.6,2.2-4.2,4.3h-5
		c-0.8,0-1.5,0.7-1.5,1.5s0.7,1.5,1.5,1.5h5c0.7,2.5,3,4.3,5.7,4.3c2.6,0,4.9-1.8,5.6-4.3h5c0.8,0,1.5-0.7,1.5-1.5s-0.7-1.5-1.5-1.5
		h-5c-0.5-2.1-2.1-3.7-4.2-4.3v-2.5h3.5c3.1,0,5.7-2.5,5.7-5.7v-9.1h4.9c0.5,1.7,1.8,3,3.5,3.5v10.8c0,2.8,2.2,5,5,5h6.4v3.1
		c0,0.8,0.7,1.5,1.5,1.5h9.3c0.8,0,1.5-0.7,1.5-1.5v-9.3c0-0.8-0.7-1.5-1.5-1.5h-9.3c-0.8,0-1.5,0.7-1.5,1.5v3.1H76
		c-1.1,0-1.9-0.9-1.9-1.9V72.8c1.7-0.5,3-1.8,3.5-3.5h4.9v3.1c0,0.8,0.7,1.5,1.5,1.5h9.3c0.8,0,1.5-0.7,1.5-1.5v-9.3
		c0-0.8-0.7-1.5-1.5-1.5H84c-0.8,0-1.5,0.7-1.5,1.5v3.1h-4.9c-0.5-1.7-1.8-3-3.5-3.5V52c0-1.1,0.9-2,1.9-2h6.4v3.1
		c0,0.8,0.7,1.5,1.5,1.5h9.3c0.8,0,1.5-0.7,1.5-1.5v-9.3c0-0.8-0.7-1.5-1.5-1.5h-9.3c-0.8,0-1.5,0.7-1.5,1.5V47H76c-2.8,0-5,2.2-5,5
		v10.8c-1.7,0.5-3,1.8-3.5,3.5h-4.9V54.4c0-3.1-2.5-5.7-5.7-5.7h-3.5V34.3c2.2-0.7,3.7-2.6,3.7-5c0-2.9-2.4-5.3-5.3-5.3
		s-5.3,2.4-5.3,5.3c0,2.4,1.6,4.3,3.7,5v14.4H47c-3.1,0-5.7,2.5-5.7,5.7v11.9h-4.8c-0.5-1.7-1.8-3-3.5-3.5V52c0-2.8-2.2-5-5-5h-6.4
		v-3.1c0-0.8-0.7-1.5-1.5-1.5h-9.3c-0.8,0-1.5,0.7-1.5,1.5v9.3c0,0.8,0.7,1.5,1.5,1.5H20c0.8,0,1.5-0.7,1.5-1.5V50H28
		c1.1,0,2,0.9,2,2v10.8c-1.7,0.5-3,1.8-3.5,3.5h-4.9v-3.1c0-0.8-0.7-1.5-1.5-1.5h-9.3c-0.8,0-1.5,0.7-1.5,1.5v9.3
		c0,0.8,0.7,1.5,1.5,1.5H20c0.8,0,1.5-0.7,1.5-1.5v-3.1h4.9c0.5,1.7,1.8,3,3.5,3.5v10.8c0,1.1-0.9,1.9-2,1.9h-6.4v-3.1
		C21.6,81.6,20.9,80.9,20,80.9L20,80.9z"/>
	<path class="st0" d="M48.5,57.5h7c0.8,0,1.5-0.7,1.5-1.5s-0.7-1.5-1.5-1.5h-7c-0.8,0-1.5,0.7-1.5,1.5S47.6,57.5,48.5,57.5z"/>
	<path class="st0" d="M48.5,62.8h7c0.8,0,1.5-0.7,1.5-1.5s-0.7-1.5-1.5-1.5h-7c-0.8,0-1.5,0.7-1.5,1.5S47.6,62.8,48.5,62.8z"/>
	<path class="st0" d="M54.3,75.3c0,3.1-4.7,3.1-4.7,0C49.6,72.2,54.3,72.2,54.3,75.3"/>
</g>
</svg>
