<?xml version="1.0" encoding="utf-8"?>
<!-- Generator: Adobe Illustrator 21.0.0, SVG Export Plug-In . SVG Version: 6.00 Build 0)  -->
<svg version="1.1" id="Capa_1" xmlns="http://www.w3.org/2000/svg" xmlns:xlink="http://www.w3.org/1999/xlink" x="0px" y="0px"
	 viewBox="0 0 100 100" style="enable-background:new 0 0 100 100;" xml:space="preserve">
<style type="text/css">
	.st0{fill:#FFFFFF;}
</style>
<g>
	<path class="st0" d="M51.3,70.9v1.4H49v-1.4c0-0.5-0.4-1-0.9-1.1c-0.7-0.2-1.4-0.5-2.1-0.8c-0.4-0.3-1-0.2-1.4,0.2l-1,1l-1.6-1.6
		l1-1c0.4-0.4,0.4-0.9,0.2-1.4c-0.4-0.6-0.7-1.3-0.8-2.1c-0.1-0.5-0.6-0.9-1.1-0.9h-1.4V61h1.4c0.5,0,1-0.4,1.1-0.9
		c0.2-0.7,0.5-1.4,0.8-2.1c0.3-0.4,0.2-1-0.2-1.4l-1-1l1.6-1.6l1,1c0.4,0.4,0.9,0.4,1.4,0.2c0.6-0.4,1.3-0.7,2.1-0.8
		c0.5-0.1,0.9-0.6,0.9-1.1v-1.4h2.3v1.4c0,0.5,0.4,1,0.9,1.1c0.7,0.2,1.4,0.5,2.1,0.8c0.4,0.3,1,0.2,1.4-0.2l1-1l1.6,1.6l-1,1
		c-0.4,0.4-0.4,0.9-0.2,1.4c0.4,0.6,0.7,1.3,0.8,2.1C58,60.6,58.4,61,59,61h1.4v2.3H59c-0.5,0-1,0.4-1.1,0.9
		c-0.2,0.7-0.5,1.4-0.8,2.1c-0.3,0.4-0.2,1,0.2,1.4l1,1l-1.6,1.6l-1-1c-0.4-0.4-0.9-0.4-1.4-0.2c-0.6,0.4-1.3,0.7-2.1,0.8
		C51.6,69.9,51.3,70.4,51.3,70.9z M53.6,73.5v-1.7c0.3-0.1,0.7-0.3,1-0.4l1.2,1.2c0.4,0.4,1.2,0.4,1.6,0l3.2-3.2
		c0.4-0.4,0.4-1.2,0-1.6l-1.2-1.2c0.2-0.3,0.3-0.7,0.4-1h1.7c0.6,0,1.1-0.5,1.1-1.1v-4.6c0-0.6-0.5-1.1-1.1-1.1h-1.7
		c-0.1-0.3-0.3-0.7-0.4-1l1.2-1.2c0.4-0.4,0.4-1.2,0-1.6l-3.2-3.2c-0.4-0.4-1.2-0.4-1.6,0l-1.2,1.2c-0.3-0.2-0.7-0.3-1-0.4v-1.7
		c0-0.6-0.5-1.1-1.1-1.1h-4.6c-0.6,0-1.1,0.5-1.1,1.1v1.7c-0.3,0.1-0.7,0.3-1,0.4l-1.2-1.2c-0.4-0.4-1.2-0.4-1.6,0l-3.2,3.2
		c-0.4,0.4-0.4,1.2,0,1.6l1.2,1.2c-0.2,0.3-0.3,0.7-0.4,1h-1.7c-0.6,0-1.1,0.5-1.1,1.1v4.6c0,0.6,0.5,1.1,1.1,1.1h1.7
		c0.1,0.3,0.3,0.7,0.4,1l-1.2,1.2c-0.4,0.4-0.4,1.2,0,1.6l3.2,3.2c0.4,0.4,1.2,0.4,1.6,0l1.2-1.2c0.3,0.2,0.7,0.3,1,0.4v1.7
		c0,0.6,0.5,1.1,1.1,1.1h4.6C53.1,74.6,53.6,74.1,53.6,73.5z"/>
	<path class="st0" d="M50.1,65.5c-1.9,0-3.4-1.5-3.4-3.4c0-1.9,1.5-3.4,3.4-3.4c1.9,0,3.4,1.5,3.4,3.4C53.6,64,52,65.5,50.1,65.5z
		 M50.1,56.4c-3.1,0-5.7,2.6-5.7,5.7s2.6,5.7,5.7,5.7s5.7-2.6,5.7-5.7S53.3,56.4,50.1,56.4z"/>
	<path class="st0" d="M32.1,62.1c0-10,8.1-18.1,18.1-18.1s18.1,8.1,18.1,18.1s-8.1,18.1-18.1,18.1S32.1,72.1,32.1,62.1z M71,62.1
		c0-11.5-9.4-20.9-20.9-20.9s-20.9,9.4-20.9,20.9S38.6,83,50.1,83S71,73.6,71,62.1z"/>
	<path class="st0" d="M50.1,88.5c2.4,0,4.7-0.4,7-1v2.4H43.2v-2.4C45.4,88.2,47.7,88.5,50.1,88.5z M26.5,62.1
		c0-13,10.6-23.7,23.7-23.7s23.7,10.6,23.7,23.7S63.2,85.7,50.1,85.7S26.5,75.1,26.5,62.1z M57.1,95.5v-2.8h1.4
		c0.8,0,1.4-0.6,1.4-1.4v-4.7c9.8-3.9,16.7-13.4,16.7-24.6c0-14.6-11.9-26.4-26.4-26.4S23.7,47.5,23.7,62.1
		c0,11.1,6.9,20.7,16.7,24.6v4.7c0,0.8,0.6,1.4,1.4,1.4h1.4v2.8H46v-2.8h8.3v2.8L57.1,95.5L57.1,95.5z"/>
	<path class="st0" d="M92.5,24.8c-0.8-1.9-2.3-3.5-4.1-4.5c1.1-1.1,1.8-2.7,1.8-4.4c0-3.5-2.8-6.3-6.3-6.3s-6.3,2.8-6.3,6.3
		c0,1.7,0.7,3.2,1.8,4.4c-0.8,0.4-1.5,1-2.1,1.6c-0.9,0.9-1.5,1.9-2,3c-1.5-1.9-2.5-4.3-2.5-6.9c0-6.1,5-11.1,11.1-11.1
		c6.1,0,11.1,5,11.1,11.1C94.8,20.6,94,22.9,92.5,24.8L92.5,24.8z M80.7,16c0-1.7,1.4-3.2,3.2-3.2c1.7,0,3.2,1.4,3.2,3.2
		s-1.4,3.2-3.2,3.2C82.1,19.1,80.7,17.7,80.7,16z M77.7,27.3c0.2-1.2,0.8-2.3,1.7-3.1c1.2-1.2,2.8-1.8,4.5-1.8
		c2.9,0,5.5,2.1,6.1,4.9c-1.8,1.2-3.9,1.9-6.2,1.9C81.5,29.1,79.4,28.4,77.7,27.3z M83.8,3.8c-7.9,0-14.2,6.4-14.2,14.2
		s6.4,14.2,14.2,14.2S98,25.9,98,18S91.6,3.8,83.8,3.8z"/>
	<path class="st0" d="M16.5,6.7c6.2,0,11.3,5.1,11.3,11.3s-5.1,11.3-11.3,11.3S5.2,24.2,5.2,18S10.3,6.7,16.5,6.7z M16.5,32.5
		c8,0,14.5-6.5,14.5-14.5S24.6,3.5,16.5,3.5S2,10,2,18S8.5,32.5,16.5,32.5z"/>
	<path class="st0" d="M61.2,18c0,6.1-5,11.1-11.1,11.1s-11.1-5-11.1-11.1S44,6.9,50.1,6.9S61.2,11.9,61.2,18z M35.9,18
		c0,7.9,6.4,14.2,14.2,14.2S64.4,25.9,64.4,18S58,3.8,50.1,3.8S35.9,10.1,35.9,18z"/>
	<path class="st0" d="M48.8,9.7v1.6c-1.6,0.6-2.8,2.1-2.8,3.9c0,2.3,1.9,4.2,4.2,4.2c0.8,0,1.4,0.6,1.4,1.4c0,0.8-0.6,1.4-1.4,1.4
		c-0.8,0-1.4-0.6-1.4-1.4H46c0,1.8,1.2,3.3,2.8,3.9v1.6h2.8v-1.6c1.6-0.6,2.8-2.1,2.8-3.9c0-2.3-1.9-4.2-4.2-4.2
		c-0.8,0-1.4-0.6-1.4-1.4s0.6-1.4,1.4-1.4c0.8,0,1.4,0.6,1.4,1.4h2.8c0-1.8-1.2-3.3-2.8-3.9V9.7C51.5,9.7,48.8,9.7,48.8,9.7z"/>
	<rect x="11" y="16.6" class="st0" width="2.8" height="5.6"/>
	<rect x="15.2" y="13.8" class="st0" width="2.8" height="8.3"/>
	<rect x="19.3" y="12.4" class="st0" width="2.8" height="9.7"/>
	<path class="st0" d="M16.5,41.9L16.5,41.9c1.3,0,2.4-1.1,2.4-2.4l0,0c0-1.3-1.1-2.4-2.4-2.4l0,0c-1.3,0-2.4,1.1-2.4,2.4l0,0
		C14.1,40.8,15.2,41.9,16.5,41.9z"/>
	<path class="st0" d="M16.5,51.5L16.5,51.5c1.3,0,2.4-1.1,2.4-2.4l0,0c0-1.3-1.1-2.4-2.4-2.4l0,0c-1.3,0-2.4,1.1-2.4,2.4l0,0
		C14.1,50.4,15.2,51.5,16.5,51.5z"/>
	<path class="st0" d="M16.5,61.1L16.5,61.1c1.3,0,2.4-1.1,2.4-2.4l0,0c0-1.3-1.1-2.4-2.4-2.4l0,0c-1.3,0-2.4,1.1-2.4,2.4l0,0
		C14.1,60.1,15.2,61.1,16.5,61.1z"/>
	<path class="st0" d="M83.8,41.9L83.8,41.9c1.3,0,2.4-1.1,2.4-2.4l0,0c0-1.3-1.1-2.4-2.4-2.4l0,0c-1.3,0-2.4,1.1-2.4,2.4l0,0
		C81.3,40.8,82.4,41.9,83.8,41.9z"/>
	<path class="st0" d="M83.8,51.5L83.8,51.5c1.3,0,2.4-1.1,2.4-2.4l0,0c0-1.3-1.1-2.4-2.4-2.4l0,0c-1.3,0-2.4,1.1-2.4,2.4l0,0
		C81.3,50.4,82.4,51.5,83.8,51.5z"/>
	<path class="st0" d="M83.8,61.1L83.8,61.1c1.3,0,2.4-1.1,2.4-2.4l0,0c0-1.3-1.1-2.4-2.4-2.4l0,0c-1.3,0-2.4,1.1-2.4,2.4l0,0
		C81.3,60.1,82.4,61.1,83.8,61.1z"/>
</g>
</svg>
