<?xml version="1.0" encoding="utf-8"?>
<!-- Generator: Adobe Illustrator 21.0.0, SVG Export Plug-In . SVG Version: 6.00 Build 0)  -->
<svg version="1.1" id="Capa_1" xmlns="http://www.w3.org/2000/svg" xmlns:xlink="http://www.w3.org/1999/xlink" x="0px" y="0px"
	 viewBox="0 0 224.3 152.4" style="enable-background:new 0 0 224.3 152.4;" xml:space="preserve">
<style type="text/css">
	.st0{fill:#D37522;}
</style>
<g>
	<path class="st0" d="M171.9,44.6h22.4l0,0c1,0,1.9-0.4,2.6-1.1c0.7-0.7,1.1-1.6,1.1-2.6V18.6c0-2.1-1.7-3.7-3.7-3.7h-22.4
		c0,0,0,0,0,0c-2.1,0-3.7,1.7-3.7,3.7v22.3C168.2,43,169.9,44.6,171.9,44.6z M175.7,22.3h15v14.9h-15l0,0V22.3z"/>
	<path class="st0" d="M224,133c-1.2-4.1-5-6.8-9.2-6.6h-1.7V11.1C213,5,208,0,201.9,0H22.4c-6.2,0-11.2,5-11.2,11.2v115.3H9.1
		c-4.1-0.1-7.7,2.6-8.8,6.5c-0.9,3.7,0.9,7.5,4.3,9.2l16.7,9.1c1.6,0.8,3.3,1.3,5,1.3h72.8H125h0h72.3l0,0c2.1,0,4.2-0.5,6-1.5
		l16.5-8.9C223.1,140.4,224.9,136.6,224,133z M124.4,145H99.7c-0.1-0.1-0.2-0.3-0.2-0.4l-4.3-10.7h33.8l-4.3,10.7
		C124.6,144.7,124.5,144.9,124.4,145z M18.7,11.1c0-2.1,1.7-3.7,3.7-3.7h179.4c2.1,0,3.7,1.7,3.7,3.7v115.3H140l0,0H84.1l0,0H18.7
		V11.1z M26.3,145c-0.5,0-1-0.1-1.5-0.3l-16.7-9.1l0,0c-0.4-0.1-0.7-0.5-0.7-0.9c0.1-0.4,0.7-0.9,1.8-0.9h77.8l4.5,11.2H26.3z
		 M216.2,135.5l-16.5,8.9c-0.8,0.4-1.6,0.6-2.4,0.6h-64.8l4.5-11.2h77.8c1.3,0,1.9,0.6,2,1C216.7,135.1,216.5,135.4,216.2,135.5z"/>
	<path class="st0" d="M92.8,110.6c0.7,0.6,1.6,0.9,2.5,0.9h1.9c0,0,0,0,0,0H129c0.9,0,1.8-0.3,2.5-0.9l16.8-14.9
		c0,0,0.1-0.1,0.1-0.1c0,0,0.1-0.1,0.1-0.1c0.1-0.1,0.3-0.3,0.4-0.5c0,0,0,0,0,0c0.1-0.2,0.2-0.4,0.3-0.6c0,0,0,0,0-0.1
		c0.2-0.4,0.3-0.9,0.3-1.4c0,0,0,0,0,0V40.9c0,0,0-0.1,0-0.1c0-0.2,0-0.3-0.1-0.5c0-0.1,0-0.2,0-0.2c0-0.2-0.1-0.3-0.1-0.5
		c0-0.1-0.1-0.2-0.1-0.2c-0.1-0.1-0.1-0.2-0.2-0.4c-0.1-0.1-0.1-0.2-0.2-0.3c-0.1-0.1-0.1-0.2-0.2-0.2c-0.1-0.1-0.2-0.2-0.3-0.3
		c0,0,0,0,0,0l-16.8-14.9c-0.7-0.6-1.6-0.9-2.5-0.9H95.3c-0.9,0-1.8,0.3-2.5,0.9L76,38.1c0,0,0,0,0,0c-0.1,0.1-0.1,0.1-0.2,0.2
		c0,0-0.1,0.1-0.1,0.1c0,0-0.1,0.1-0.1,0.1c-0.1,0.1-0.2,0.3-0.3,0.4c-0.1,0.1-0.1,0.2-0.1,0.3c-0.1,0.1-0.1,0.2-0.2,0.4
		c0,0.1-0.1,0.2-0.1,0.4c0,0.1-0.1,0.2-0.1,0.3c0,0.1,0,0.3,0,0.4c0,0.1,0,0.1,0,0.2v52.1c0,0,0,0,0,0c0,0,0,0,0,0.1
		c0,0.2,0,0.3,0.1,0.5c0,0.1,0,0.1,0,0.2c0,0.2,0.1,0.3,0.1,0.5c0,0.1,0.1,0.2,0.1,0.2c0.1,0.1,0.1,0.3,0.2,0.4
		c0.1,0.1,0.1,0.2,0.2,0.3c0.1,0.1,0.2,0.2,0.2,0.3c0.1,0.1,0.2,0.2,0.3,0.3c0,0,0,0,0.1,0.1L92.8,110.6z M82.2,91.3V49.2l10.6,9.4
		c0.2,0.2,0.4,0.3,0.6,0.4v42.2L82.2,91.3z M123.3,59.5v44.6h-22.4V59.5H123.3z M130.8,101.2V59c0.2-0.1,0.4-0.3,0.6-0.4l10.6-9.4
		v42.1L130.8,101.2z M96.7,29.7h30.8l12.6,11.2l-12.6,11.2h-0.2c-0.1,0-0.2,0-0.2,0c-0.1,0-0.2,0-0.3,0H97.4c-0.1,0-0.2,0-0.2,0
		c-0.1,0-0.2,0-0.3,0h-0.2L84.1,40.9L96.7,29.7z"/>
	<path class="st0" d="M52.3,14.9H29.9c0,0,0,0,0,0c-2.1,0-3.7,1.7-3.7,3.7v96.7c0,2.1,1.7,3.7,3.7,3.7h22.4l0,0
		c2.1,0,3.7-1.7,3.7-3.7V18.6c0,0,0,0,0,0C56,16.5,54.4,14.9,52.3,14.9z M48.6,111.5h-15l0,0V22.3h15V111.5z"/>
	<path class="st0" d="M171.9,119h22.4l0,0c2.1,0,3.7-1.7,3.7-3.7V92.9c0-2.1-1.7-3.7-3.7-3.7h-22.4c0,0,0,0,0,0
		c-2.1,0-3.7,1.7-3.7,3.7v22.3c0,0,0,0,0,0C168.2,117.3,169.9,119,171.9,119z M175.7,96.7h15v14.9h-15l0,0V96.7z"/>
	<path class="st0" d="M171.9,81.8h22.4l0,0c2.1,0,3.7-1.7,3.7-3.7V55.8c0-1-0.4-1.9-1.1-2.6c-0.7-0.7-1.6-1.1-2.6-1.1h-22.4
		c-2.1,0-3.7,1.7-3.7,3.7v22.3c0,0,0,0,0,0C168.2,80.1,169.9,81.8,171.9,81.8z M175.7,59.5h15v14.9h-15l0,0V59.5z"/>
</g>
</svg>
