<?xml version="1.0" standalone="no"?>
<!DOCTYPE svg PUBLIC "-//W3C//DTD SVG 20010904//EN"
 "http://www.w3.org/TR/2001/REC-SVG-20010904/DTD/svg10.dtd">
<svg version="1.0" xmlns="http://www.w3.org/2000/svg"
 width="260.000000pt" height="260.000000pt" viewBox="0 0 260.000000 260.000000"
 preserveAspectRatio="xMidYMid meet">
<metadata>
Created by potrace 1.14, written by Peter Selinger 2001-2017
</metadata>
<g transform="translate(0.000000,260.000000) scale(0.100000,-0.100000)"
fill="#000000" stroke="none">
<path d="M1989 2572 c-8 -4 -155 -148 -325 -321 -170 -173 -472 -479 -671
-680 l-362 -366 -1 653 0 654 -29 29 c-38 38 -85 39 -124 4 l-27 -26 0 -793 0
-793 22 -20 c32 -29 73 -36 106 -19 15 8 144 133 287 279 143 146 481 489 750
762 270 273 495 508 501 522 24 55 -20 124 -78 122 -18 0 -40 -3 -49 -7z"/>
<path d="M1404 1567 c-17 -10 -136 -130 -280 -283 -33 -35 -315 -330 -424
-444 -19 -20 -83 -87 -142 -149 l-108 -113 0 -255 0 -254 25 -24 c40 -41 121
-29 144 22 7 15 11 100 11 226 l0 202 68 72 c37 39 110 116 162 170 194 202
459 480 508 532 l50 54 20 -44 c11 -24 51 -114 90 -199 38 -85 81 -180 95
-210 14 -30 64 -143 112 -250 48 -107 102 -226 119 -265 18 -38 54 -119 81
-178 27 -61 59 -116 73 -127 30 -24 70 -25 102 -3 68 46 67 49 -143 513 -14
30 -107 237 -207 460 -247 549 -235 526 -261 544 -28 19 -66 20 -95 3z"/>
</g>
</svg>
