<svg xmlns="http://www.w3.org/2000/svg" xmlns:xlink="http://www.w3.org/1999/xlink" viewBox="0 0 112.92 19.63"><defs><clipPath id="clip-path"><rect width="112.92" height="19.63" style="fill:none"/></clipPath></defs><title>frenkel-logo</title><g id="Capa_2" data-name="Capa 2"><g id="Capa_1-2" data-name="Capa 1"><g style="clip-path:url(#clip-path)"><path d="M.71,19.45A.71.71,0,0,1,0,18.74V11.55a.71.71,0,0,1,.71-.71H6.82a.71.71,0,0,1,0,1.42H1.42v6.49a.71.71,0,0,1-.71.71" style="fill:#2c74b8"/><path d="M6.82,9.86H.71A.71.71,0,0,1,0,9.15V.78A.71.71,0,0,1,.71.07H12.35a.71.71,0,1,1,0,1.42H1.42v7h5.4a.71.71,0,1,1,0,1.42" style="fill:#2c74b8"/><path d="M17.31,19.56a.71.71,0,0,1-.71-.71v-7.3a.71.71,0,0,1,.71-.71h6.85a.71.71,0,0,1,.59.31l4.91,7.19a.71.71,0,0,1-1.17.8l-4.7-6.89H18v6.59a.71.71,0,0,1-.71.71" style="fill:#2c74b8"/><path d="M25.39,9.86H17.31a.71.71,0,0,1-.71-.72L16.67.78a.71.71,0,0,1,.71-.7h2.51c1.65,0,3.36,0,5,0A5,5,0,0,1,29.77,5a6.3,6.3,0,0,1-.52,2.33,4.14,4.14,0,0,1-3.84,2.57h0M18,8.44h7.35A2.73,2.73,0,0,0,28,6.71,4.92,4.92,0,0,0,28.35,5,3.57,3.57,0,0,0,24.91,1.5c-1.67,0-3.37,0-5,0H18.08Z" style="fill:#2c74b8"/><path d="M45.61,19.56H34a.71.71,0,0,1-.71-.71V11.54a.71.71,0,0,1,.71-.71h6.17a.71.71,0,0,1,0,1.42H34.7v5.89H45.61a.71.71,0,0,1,0,1.42" style="fill:#2c74b8"/><path d="M40.15,9.86H34a.71.71,0,0,1-.71-.71V.79A.71.71,0,0,1,34,.08H45.61a.71.71,0,0,1,0,1.42H34.7V8.44h5.44a.71.71,0,1,1,0,1.42" style="fill:#2c74b8"/><path d="M50.68,19.63a.71.71,0,0,1-.71-.71V.79a.71.71,0,0,1,1.29-.4L57,8.75a.71.71,0,1,1-1.17.8L51.38,3.07V18.92a.71.71,0,0,1-.71.71" style="fill:#2c74b8"/><path d="M62.58,19.56a.71.71,0,0,1-.61-.35l-4.34-7.33a.71.71,0,1,1,1.22-.72l3,5.05L61.68.72A.71.71,0,1,1,63.1.7l.19,18.14a.71.71,0,0,1-.52.69l-.19,0" style="fill:#2c74b8"/><path d="M67.52,13a.73.73,0,0,1-.27-.05.71.71,0,0,1-.44-.66V.79a.71.71,0,0,1,1.42,0v9.73L78.39.21a.71.71,0,1,1,1,1L68,12.75a.71.71,0,0,1-.5.21" style="fill:#d37522"/><path d="M67.52,19.56a.71.71,0,0,1-.71-.71V15.62a.71.71,0,0,1,.2-.49l6.93-7.26a.71.71,0,0,1,1.16.2l4.69,10.41a.71.71,0,0,1-1.29.58L74.24,9.61l-6,6.29v3a.71.71,0,0,1-.71.71" style="fill:#807f7d"/><path d="M100.56,9.89a.71.71,0,0,1-.71-.71V.72a.71.71,0,0,1,1.42,0V9.18a.71.71,0,0,1-.71.71" style="fill:#2c74b8"/><path d="M112.21,19.56H100.56a.71.71,0,0,1-.71-.71V11.55a.71.71,0,1,1,1.42,0v6.58h10.94a.71.71,0,0,1,0,1.42" style="fill:#2c74b8"/><path d="M95.5,19.56H83.89a.71.71,0,0,1-.71-.71V11.54a.71.71,0,0,1,.71-.71h6.16a.71.71,0,1,1,0,1.42H84.6v5.89H95.5a.71.71,0,1,1,0,1.42" style="fill:#2c74b8"/><path d="M90,9.86H83.89a.71.71,0,0,1-.71-.71V.79a.71.71,0,0,1,.71-.71H95.5a.71.71,0,1,1,0,1.42H84.6V8.45H90a.71.71,0,0,1,0,1.42" style="fill:#2c74b8"/></g></g></g></svg>