<?xml version="1.0" encoding="utf-8"?>
<!-- Generator: Adobe Illustrator 21.0.0, SVG Export Plug-In . SVG Version: 6.00 Build 0)  -->
<svg version="1.1" id="Capa_1" xmlns="http://www.w3.org/2000/svg" xmlns:xlink="http://www.w3.org/1999/xlink" x="0px" y="0px"
	 viewBox="0 0 112.9 19.6" style="enable-background:new 0 0 112.9 19.6;" xml:space="preserve">
<style type="text/css">
	.st0{clip-path:url(#SVGID_2_);}
	.st1{fill:#FFFFFF;}
</style>
<title>frenkel-logo</title>
<g id="Capa_2">
	<g id="Capa_1-2">
		<g>
			<defs>
				<rect id="SVGID_1_" width="112.9" height="19.6"/>
			</defs>
			<clipPath id="SVGID_2_">
				<use xlink:href="#SVGID_1_"  style="overflow:visible;"/>
			</clipPath>
			<g class="st0">
				<path class="st1" d="M0.7,19.5c-0.4,0-0.7-0.3-0.7-0.7c0,0,0,0,0,0v-7.2c0-0.4,0.3-0.7,0.7-0.7l0,0h6.1c0.4,0,0.7,0.3,0.7,0.7
					s-0.3,0.7-0.7,0.7H1.4v6.5C1.4,19.1,1.1,19.5,0.7,19.5"/>
				<path class="st1" d="M6.8,9.9H0.7C0.3,9.9,0,9.5,0,9.1c0,0,0,0,0,0V0.8c0-0.4,0.3-0.7,0.7-0.7h11.6c0.4,0,0.7,0.3,0.7,0.7
					s-0.3,0.7-0.7,0.7H1.4v7h5.4c0.4,0,0.7,0.3,0.7,0.7S7.2,9.9,6.8,9.9"/>
				<path class="st1" d="M17.3,19.6c-0.4,0-0.7-0.3-0.7-0.7v-7.3c0-0.4,0.3-0.7,0.7-0.7h6.9c0.2,0,0.5,0.1,0.6,0.3l4.9,7.2
					c0.2,0.3,0.1,0.8-0.2,1c-0.3,0.2-0.7,0.1-0.9-0.2l-4.7-6.9H18v6.6C18,19.2,17.7,19.5,17.3,19.6"/>
				<path class="st1" d="M25.4,9.9h-8.1c-0.4,0-0.7-0.3-0.7-0.7c0,0,0,0,0,0l0.1-8.4c0-0.4,0.3-0.7,0.7-0.7h2.5c1.6,0,3.4,0,5,0
					c2.7,0.1,4.8,2.2,4.9,4.9c0,0.8-0.2,1.6-0.5,2.3C28.6,8.9,27.1,9.9,25.4,9.9L25.4,9.9 M18,8.4h7.4c1.2,0,2.2-0.6,2.6-1.7
					c0.2-0.5,0.3-1.1,0.4-1.7c0-1.9-1.5-3.4-3.4-3.5c-1.7,0-3.4,0-5,0h-1.8L18,8.4z"/>
				<path class="st1" d="M45.6,19.6H34c-0.4,0-0.7-0.3-0.7-0.7v-7.3c0-0.4,0.3-0.7,0.7-0.7h6.2c0.4,0,0.7,0.3,0.7,0.7
					s-0.3,0.7-0.7,0.7h-5.5v5.9h10.9c0.4,0,0.7,0.3,0.7,0.7C46.3,19.2,46,19.6,45.6,19.6L45.6,19.6"/>
				<path class="st1" d="M40.2,9.9H34c-0.4,0-0.7-0.3-0.7-0.7V0.8c0-0.4,0.3-0.7,0.7-0.7h11.6c0.4,0,0.7,0.3,0.7,0.7
					S46,1.5,45.6,1.5H34.7v6.9h5.4c0.4,0,0.7,0.3,0.7,0.7S40.5,9.9,40.2,9.9L40.2,9.9"/>
				<path class="st1" d="M50.7,19.6c-0.4,0-0.7-0.3-0.7-0.7V0.8c0-0.4,0.3-0.7,0.7-0.7c0.2,0,0.4,0.1,0.6,0.3L57,8.8
					c0.2,0.3,0.2,0.8-0.1,1c-0.3,0.2-0.8,0.2-1-0.1c0,0,0,0,0-0.1l-4.5-6.5v15.9C51.4,19.3,51.1,19.6,50.7,19.6"/>
				<path class="st1" d="M62.6,19.6c-0.3,0-0.5-0.1-0.6-0.4l-4.3-7.3c-0.2-0.3-0.1-0.8,0.2-1c0.3-0.2,0.8-0.1,1,0.2c0,0,0,0.1,0,0.1
					l3,5.1L61.7,0.7C61.7,0.3,62,0,62.4,0c0.4,0,0.7,0.3,0.7,0.7l0.2,18.1c0,0.3-0.2,0.6-0.5,0.7L62.6,19.6"/>
				<path class="st1" d="M67.5,13c-0.1,0-0.2,0-0.3-0.1c-0.3-0.1-0.4-0.4-0.4-0.7V0.8c0-0.4,0.3-0.7,0.7-0.7c0.4,0,0.7,0.3,0.7,0.7
					v9.7L78.4,0.2c0.3-0.3,0.7-0.3,1-0.1s0.3,0.7,0.1,1c0,0-0.1,0.1-0.1,0.1L68,12.8C67.9,12.9,67.7,13,67.5,13"/>
				<path class="st1" d="M67.5,19.6c-0.4,0-0.7-0.3-0.7-0.7v-3.2c0-0.2,0.1-0.4,0.2-0.5l6.9-7.3c0.3-0.3,0.7-0.3,1,0
					C75,7.9,75.1,8,75.1,8.1l4.7,10.4c0.1,0.4-0.1,0.8-0.4,0.9c-0.3,0.1-0.7,0-0.9-0.3l-4.3-9.4l-6,6.3v3
					C68.2,19.3,67.9,19.6,67.5,19.6"/>
				<path class="st1" d="M100.6,9.9c-0.4,0-0.7-0.3-0.7-0.7V0.7c0-0.4,0.3-0.7,0.7-0.7c0.4,0,0.7,0.3,0.7,0.7v8.5
					C101.3,9.6,101,9.9,100.6,9.9"/>
				<path class="st1" d="M112.2,19.6h-11.7c-0.4,0-0.7-0.3-0.7-0.7v-7.3c0-0.4,0.3-0.7,0.7-0.7c0.4,0,0.7,0.3,0.7,0.7c0,0,0,0,0,0
					v6.6h10.9c0.4,0,0.7,0.3,0.7,0.7C112.9,19.2,112.6,19.6,112.2,19.6L112.2,19.6"/>
				<path class="st1" d="M95.5,19.6H83.9c-0.4,0-0.7-0.3-0.7-0.7v-7.3c0-0.4,0.3-0.7,0.7-0.7h6.2c0.4,0,0.7,0.3,0.7,0.7
					s-0.3,0.7-0.7,0.7h-5.5v5.9h10.9c0.4,0,0.7,0.3,0.7,0.7C96.2,19.2,95.9,19.6,95.5,19.6"/>
				<path class="st1" d="M90,9.9h-6.1c-0.4,0-0.7-0.3-0.7-0.7V0.8c0-0.4,0.3-0.7,0.7-0.7h11.6c0.4,0,0.7,0.3,0.7,0.7
					s-0.3,0.7-0.7,0.7H84.6v6.9H90c0.4,0,0.7,0.3,0.7,0.7S90.4,9.9,90,9.9"/>
			</g>
		</g>
	</g>
</g>
</svg>
